<svg xmlns="http://www.w3.org/2000/svg" xmlns:xlink="http://www.w3.org/1999/xlink" width="500" zoomAndPan="magnify" viewBox="0 0 375 374.999991" height="500" preserveAspectRatio="xMidYMid meet" version="1.0"><defs><g/><clipPath id="22da0aa286"><path d="M 2.964844 0 L 374.964844 0 L 374.964844 372 L 2.964844 372 Z M 2.964844 0 " clip-rule="nonzero"/></clipPath><clipPath id="e35c6bc5e5"><path d="M 111.015625 187.546875 L 261.015625 187.546875 L 261.015625 248.371094 L 111.015625 248.371094 Z M 111.015625 187.546875 " clip-rule="nonzero"/></clipPath><clipPath id="d98cd416ef"><path d="M 175 143.441406 L 197 143.441406 L 197 165 L 175 165 Z M 175 143.441406 " clip-rule="nonzero"/></clipPath></defs><path fill="#ffac3e" d="M 75.710938 91.230469 C 75.625 91.230469 75.539062 91.199219 75.46875 91.140625 C 75.308594 91.003906 75.285156 90.765625 75.421875 90.605469 C 82.914062 81.703125 123.363281 37.625 188.996094 37.625 C 189.554688 37.625 190.109375 37.628906 190.675781 37.632812 C 218.6875 37.953125 245.1875 46.113281 269.449219 61.882812 C 287.203125 73.421875 298.496094 85.8125 302.53125 90.605469 C 302.664062 90.765625 302.644531 91.003906 302.484375 91.140625 C 302.324219 91.273438 302.085938 91.253906 301.949219 91.09375 C 297.941406 86.328125 286.707031 74.003906 269.035156 62.519531 C 244.898438 46.828125 218.53125 38.710938 190.667969 38.390625 C 124.402344 37.660156 83.519531 82.160156 76 91.09375 C 75.925781 91.183594 75.820312 91.230469 75.710938 91.230469 Z M 75.710938 91.230469 " fill-opacity="1" fill-rule="nonzero"/><path fill="#ffac3e" d="M 188.957031 334.394531 C 188.394531 334.394531 187.839844 334.390625 187.277344 334.386719 C 159.265625 334.066406 132.761719 325.90625 108.5 310.136719 C 90.746094 298.59375 79.453125 286.203125 75.421875 281.414062 C 75.285156 281.253906 75.308594 281.015625 75.46875 280.878906 C 75.628906 280.742188 75.867188 280.765625 76 280.925781 C 80.011719 285.691406 91.246094 298.015625 108.914062 309.5 C 133.054688 325.191406 159.421875 333.308594 187.285156 333.628906 C 187.84375 333.632812 188.402344 333.636719 188.957031 333.636719 C 254.257812 333.636719 294.496094 289.785156 301.949219 280.925781 C 302.085938 280.765625 302.324219 280.742188 302.484375 280.878906 C 302.644531 281.015625 302.664062 281.253906 302.53125 281.414062 C 295.035156 290.316406 254.585938 334.394531 188.957031 334.394531 Z M 188.957031 334.394531 " fill-opacity="1" fill-rule="nonzero"/><g clip-path="url(#22da0aa286)"><path fill="#ffac3e" d="M 188.976562 372.019531 C 139.289062 372.019531 92.578125 352.671875 57.445312 317.539062 C 22.316406 282.40625 2.964844 235.695312 2.964844 186.007812 C 2.964844 136.324219 22.316406 89.613281 57.445312 54.480469 C 92.578125 19.347656 139.289062 0 188.976562 0 C 238.660156 0 285.371094 19.347656 320.503906 54.480469 C 355.636719 89.613281 374.984375 136.324219 374.984375 186.007812 C 374.984375 235.695312 355.636719 282.40625 320.503906 317.539062 C 285.371094 352.671875 238.660156 372.019531 188.976562 372.019531 Z M 188.976562 1.515625 C 139.695312 1.515625 93.367188 20.707031 58.519531 55.554688 C 23.671875 90.398438 4.480469 136.730469 4.480469 186.007812 C 4.480469 235.289062 23.671875 281.621094 58.519531 316.464844 C 93.363281 351.3125 139.695312 370.503906 188.976562 370.503906 C 238.253906 370.503906 284.585938 351.3125 319.433594 316.464844 C 354.277344 281.621094 373.46875 235.289062 373.46875 186.007812 C 373.46875 136.730469 354.277344 90.398438 319.433594 55.554688 C 284.585938 20.707031 238.253906 1.515625 188.976562 1.515625 Z M 188.976562 1.515625 " fill-opacity="1" fill-rule="nonzero"/></g><g clip-path="url(#e35c6bc5e5)"><path fill="#ffac3e" d="M 168.789062 217.664062 L 184.894531 188.957031 L 197.628906 187.847656 L 207.582031 201.210938 L 213.460938 196.90625 L 261.023438 247.933594 L 232.964844 228.730469 L 222.25 240.246094 L 225.019531 220.847656 L 212.445312 206.773438 L 207.300781 215.355469 L 198.59375 204.46875 L 185.191406 199.675781 L 170.640625 225.484375 L 153.515625 216.839844 L 144.433594 223.839844 L 141.355469 241.855469 L 137.066406 229.800781 L 111.015625 248.371094 L 140.417969 208.628906 L 161.152344 203.425781 L 168.789062 217.664062 " fill-opacity="1" fill-rule="nonzero"/></g><g clip-path="url(#d98cd416ef)"><path fill="#aed768" d="M 196.738281 154.25 C 187.210938 154.910156 186.675781 155.441406 186.019531 164.96875 C 185.363281 155.441406 184.828125 154.910156 175.300781 154.25 C 184.828125 153.59375 185.363281 153.0625 186.019531 143.53125 C 186.675781 153.0625 187.210938 153.59375 196.738281 154.25 " fill-opacity="1" fill-rule="nonzero"/></g><path fill="#aed768" d="M 226.554688 169.550781 C 218.175781 170.128906 217.707031 170.597656 217.128906 178.980469 C 216.546875 170.597656 216.078125 170.128906 207.695312 169.550781 C 216.078125 168.972656 216.546875 168.503906 217.128906 160.121094 C 217.707031 168.503906 218.175781 168.972656 226.554688 169.550781 " fill-opacity="1" fill-rule="nonzero"/><path fill="#aed768" d="M 250.097656 194.695312 C 244.257812 195.097656 243.933594 195.425781 243.527344 201.265625 C 243.125 195.425781 242.796875 195.097656 236.960938 194.695312 C 242.796875 194.292969 243.125 193.964844 243.527344 188.125 C 243.933594 193.964844 244.257812 194.292969 250.097656 194.695312 " fill-opacity="1" fill-rule="nonzero"/><path fill="#aed768" d="M 145.484375 169.550781 C 153.867188 170.128906 154.335938 170.597656 154.914062 178.980469 C 155.492188 170.597656 155.960938 170.128906 164.34375 169.550781 C 155.960938 168.972656 155.492188 168.503906 154.914062 160.121094 C 154.335938 168.503906 153.867188 168.972656 145.484375 169.550781 " fill-opacity="1" fill-rule="nonzero"/><path fill="#aed768" d="M 121.941406 194.695312 C 127.78125 195.097656 128.109375 195.425781 128.511719 201.265625 C 128.914062 195.425781 129.242188 195.097656 135.082031 194.695312 C 129.242188 194.292969 128.914062 193.964844 128.511719 188.125 C 128.109375 193.964844 127.78125 194.292969 121.941406 194.695312 " fill-opacity="1" fill-rule="nonzero"/><g fill="#caf483" fill-opacity="1"><g transform="translate(89.801156, 148.745071)"><g><path d="M 0.546875 -45.171875 L -15.019531 -38.285156 L -14.78125 -37.746094 L -12.636719 -38.695312 L 3.519531 -2.199219 L 1.371094 -1.25 L 1.609375 -0.710938 L 17.175781 -7.601562 L 13.847656 -15.117188 L 13.3125 -14.878906 C 15.023438 -11.015625 14.84375 -7.210938 12.914062 -6.355469 L 7.8125 -4.101562 L -0.144531 -22.082031 L 3.074219 -23.507812 C 4.253906 -24.027344 6.078125 -22.523438 7.121094 -20.164062 L 7.660156 -20.398438 L 3.621094 -29.523438 L 3.082031 -29.285156 C 4.128906 -26.925781 4.019531 -24.566406 2.835938 -24.042969 L -0.382812 -22.617188 L -8.339844 -40.597656 L -3.242188 -42.855469 C -1.308594 -43.710938 1.625 -41.285156 3.335938 -37.421875 L 3.871094 -37.660156 Z M 0.546875 -45.171875 "/></g></g></g><g fill="#caf483" fill-opacity="1"><g transform="translate(108.212695, 140.498558)"><g><path d="M -11.484375 -39.476562 L -11.296875 -38.917969 C -9.515625 -39.507812 -8.550781 -39.023438 -8.238281 -38.074219 L 3.164062 -3.515625 C 3.480469 -2.570312 2.992188 -1.605469 1.210938 -1.015625 L 1.394531 -0.460938 L 6.6875 -2.207031 L 6.503906 -2.765625 L 4.273438 -2.027344 L -7 -36.195312 L 17.390625 -5.738281 L 18.28125 -6.035156 L 6.140625 -42.820312 C 5.828125 -43.769531 6.316406 -44.730469 8.097656 -45.320312 L 7.914062 -45.878906 L 2.617188 -44.128906 L 2.804688 -43.574219 L 5.03125 -44.308594 L 14.007812 -17.109375 L -5.519531 -41.445312 Z M -11.484375 -39.476562 "/></g></g></g><g fill="#caf483" fill-opacity="1"><g transform="translate(129.371919, 133.460606)"><g><path d="M 11.496094 -12.546875 L -1.660156 -41.09375 L 0.691406 -41.609375 L 0.566406 -42.183594 L -8.78125 -40.136719 L -8.65625 -39.5625 L -6.359375 -40.066406 L 11.25 -1.859375 L 12.167969 -2.0625 L 11.890625 -41.773438 C 11.890625 -43.15625 12.789062 -44.253906 14.625 -44.65625 L 14.5 -45.230469 L 8.878906 -44 L 9.003906 -43.425781 L 11.300781 -43.929688 Z M 11.496094 -12.546875 "/></g></g></g><g fill="#caf483" fill-opacity="1"><g transform="translate(151.933505, 128.727982)"><g><path d="M -3.726562 -40.957031 L -3.648438 -40.375 L -1.320312 -40.6875 L 3.992188 -1.128906 L 1.667969 -0.816406 L 1.746094 -0.234375 L 11.054688 -1.484375 L 10.976562 -2.066406 L 8.648438 -1.753906 L 3.335938 -41.3125 L 5.660156 -41.625 L 5.582031 -42.207031 Z M -3.726562 -40.957031 "/></g></g></g><g fill="#caf483" fill-opacity="1"><g transform="translate(164.394041, 126.880953)"><g><path d="M 2.109375 -0.121094 L 2.695312 -0.152344 C 2.589844 -2.027344 3.128906 -2.882812 3.761719 -3.152344 C 5.347656 -1.066406 7.710938 0.152344 10.875 -0.0273438 C 16.382812 -0.339844 19.335938 -5.269531 19.007812 -11.070312 C 18.320312 -23.257812 5.027344 -23.386719 4.40625 -34.347656 C 4.167969 -38.507812 5.65625 -41.296875 8.824219 -41.476562 C 12.398438 -41.675781 15.722656 -37.984375 15.992188 -33.238281 L 16.578125 -33.273438 L 16.078125 -42.0625 L 15.492188 -42.027344 C 15.574219 -40.621094 14.910156 -39.878906 14.03125 -39.828125 C 12.589844 -41.394531 10.597656 -42.339844 7.902344 -42.1875 C 2.683594 -41.890625 0.0078125 -37.273438 0.320312 -31.765625 C 1.015625 -19.457031 14.308594 -19.328125 14.921875 -8.488281 C 15.15625 -4.328125 13.117188 -0.917969 9.953125 -0.738281 C 6.085938 -0.519531 2.453125 -4.429688 2.164062 -9.527344 L 1.578125 -9.496094 Z M 2.109375 -0.121094 "/></g></g></g><g fill="#caf483" fill-opacity="1"><g transform="translate(185.227175, 125.848758)"><g><path d="M 2.601562 -41.042969 L 2.589844 -40.453125 L 4.9375 -40.40625 L 4.121094 -0.503906 L 1.773438 -0.550781 L 1.761719 0.0351562 L 11.148438 0.226562 L 11.160156 -0.359375 L 8.8125 -0.40625 L 9.632812 -40.3125 L 11.976562 -40.261719 L 11.988281 -40.851562 Z M 2.601562 -41.042969 "/></g></g></g><g fill="#caf483" fill-opacity="1"><g transform="translate(197.694329, 125.840282)"><g><path d="M 17.789062 -6.988281 C 17.28125 -2.140625 15.117188 1.585938 12.199219 1.28125 C 9.28125 0.972656 7.941406 -3.121094 8.449219 -7.964844 L 10.898438 -31.316406 C 11.40625 -36.160156 13.566406 -39.886719 16.488281 -39.582031 C 19.40625 -39.277344 20.746094 -35.179688 20.238281 -30.335938 Z M 3.777344 -8.457031 C 3.238281 -3.320312 6.710938 1.292969 12.140625 1.863281 C 17.566406 2.433594 21.921875 -1.359375 22.457031 -6.496094 L 24.910156 -29.847656 C 25.445312 -34.984375 21.976562 -39.597656 16.546875 -40.167969 C 11.121094 -40.734375 6.765625 -36.941406 6.226562 -31.804688 Z M 3.777344 -8.457031 "/></g></g></g><g fill="#caf483" fill-opacity="1"><g transform="translate(221.229111, 128.299712)"><g><path d="M 10.007812 -39.875 L 9.882812 -39.300781 C 11.71875 -38.910156 12.308594 -38.003906 12.097656 -37.03125 L 4.507812 -1.4375 C 4.300781 -0.464844 3.394531 0.125 1.558594 -0.269531 L 1.433594 0.304688 L 6.886719 1.46875 L 7.011719 0.894531 L 4.714844 0.40625 L 12.21875 -34.78125 L 17.910156 3.820312 L 18.828125 4.015625 L 26.910156 -33.871094 C 27.117188 -34.847656 28.023438 -35.433594 29.859375 -35.042969 L 29.984375 -35.617188 L 24.527344 -36.777344 L 24.40625 -36.203125 L 26.703125 -35.714844 L 20.726562 -7.703125 L 16.148438 -38.566406 Z M 10.007812 -39.875 "/></g></g></g><g fill="#caf483" fill-opacity="1"><g transform="translate(243.131151, 132.99182)"><g><path d="M 30.355469 -33.457031 L 14.136719 -38.617188 L 13.960938 -38.058594 L 16.195312 -37.347656 L 4.09375 0.6875 L 1.855469 -0.0234375 L 1.679688 0.535156 L 17.898438 5.695312 L 20.390625 -2.132812 L 19.832031 -2.3125 C 18.550781 1.714844 15.894531 4.441406 13.882812 3.800781 L 8.566406 2.109375 L 14.53125 -16.625 L 17.886719 -15.558594 C 19.117188 -15.167969 19.484375 -12.832031 18.699219 -10.371094 L 19.257812 -10.195312 L 22.285156 -19.703125 L 21.726562 -19.878906 C 20.941406 -17.417969 19.292969 -15.726562 18.0625 -16.117188 L 14.707031 -17.1875 L 20.671875 -35.921875 L 25.984375 -34.230469 C 27.996094 -33.589844 28.585938 -29.832031 27.304688 -25.804688 L 27.867188 -25.625 Z M 30.355469 -33.457031 "/></g></g></g><g fill="#caf483" fill-opacity="1"><g transform="translate(262.343509, 138.967089)"><g><path d="M 1.847656 0.160156 L 1.617188 0.699219 L 10.230469 4.433594 C 16.046875 6.957031 21.605469 4.757812 23.660156 0.0195312 L 32.53125 -20.445312 C 34.585938 -25.183594 32.390625 -30.742188 26.574219 -33.261719 L 17.957031 -36.996094 L 17.722656 -36.457031 L 19.875 -35.523438 L 4.003906 1.09375 Z M 19.351562 -1.847656 C 17.414062 2.621094 13.425781 5.179688 10.464844 3.898438 L 8.3125 2.964844 L 24.183594 -33.65625 L 26.339844 -32.722656 C 29.300781 -31.441406 30.160156 -26.78125 28.222656 -22.3125 Z M 19.351562 -1.847656 "/></g></g></g><g fill="#caf483" fill-opacity="1"><g transform="translate(46.107137, 284.425405)"><g><path d="M 15.0625 4.765625 C 13 7.191406 10.882812 8.832031 8.71875 9.6875 C 6.5625 10.550781 4.410156 10.835938 2.265625 10.546875 C 0.117188 10.265625 -2.226562 9.601562 -4.78125 8.5625 L -2.53125 2.3125 C -0.75 2.925781 0.757812 3.191406 2 3.109375 C 3.25 3.023438 4.363281 2.644531 5.34375 1.96875 C 6.332031 1.300781 7.414062 0.273438 8.59375 -1.109375 L 31.078125 -27.546875 L 37.734375 -21.890625 Z M 15.0625 4.765625 "/></g></g></g><g fill="#caf483" fill-opacity="1"><g transform="translate(63.472224, 299.918318)"><g><path d="M 39.234375 -25.546875 C 42.472656 -23.617188 44.835938 -21.226562 46.328125 -18.375 C 47.816406 -15.53125 48.363281 -12.351562 47.96875 -8.84375 C 47.570312 -5.34375 46.207031 -1.632812 43.875 2.28125 C 41.570312 6.125 38.960938 9.054688 36.046875 11.078125 C 33.140625 13.097656 30.070312 14.132812 26.84375 14.1875 C 23.625 14.238281 20.394531 13.300781 17.15625 11.375 C 13.9375 9.4375 11.570312 7.039062 10.0625 4.1875 C 8.5625 1.332031 8.007812 -1.859375 8.40625 -5.390625 C 8.8125 -8.921875 10.175781 -12.617188 12.5 -16.484375 C 14.769531 -20.296875 17.375 -23.203125 20.3125 -25.203125 C 23.25 -27.210938 26.335938 -28.25 29.578125 -28.3125 C 32.828125 -28.382812 36.046875 -27.460938 39.234375 -25.546875 Z M 35.890625 -19.9375 C 33.304688 -21.488281 30.75 -21.632812 28.21875 -20.375 C 25.6875 -19.113281 23.082031 -16.238281 20.40625 -11.75 C 17.71875 -7.269531 16.425781 -3.613281 16.53125 -0.78125 C 16.644531 2.050781 17.972656 4.234375 20.515625 5.765625 C 23.097656 7.304688 25.640625 7.453125 28.140625 6.203125 C 30.640625 4.953125 33.242188 2.066406 35.953125 -2.453125 C 38.648438 -6.984375 39.957031 -10.644531 39.875 -13.4375 C 39.800781 -16.226562 38.472656 -18.394531 35.890625 -19.9375 Z M 35.890625 -19.9375 "/></g></g></g><g fill="#caf483" fill-opacity="1"><g transform="translate(103.948803, 323.262499)"><g><path d="M 37.546875 -1.84375 C 36.660156 0.820312 35.3125 3 33.5 4.6875 C 31.6875 6.382812 29.460938 7.457031 26.828125 7.90625 C 24.203125 8.351562 21.289062 8.046875 18.09375 6.984375 C 13.28125 5.390625 10.019531 2.925781 8.3125 -0.40625 C 6.601562 -3.75 6.4375 -7.507812 7.8125 -11.6875 L 16.46875 -37.875 L 24.765625 -35.125 L 16.25 -9.34375 C 15.375 -6.707031 15.25 -4.566406 15.875 -2.921875 C 16.5 -1.273438 17.9375 -0.0820312 20.1875 0.65625 C 22.445312 1.40625 24.328125 1.304688 25.828125 0.359375 C 27.328125 -0.578125 28.515625 -2.363281 29.390625 -5 L 37.90625 -30.78125 L 46.203125 -28.03125 Z M 37.546875 -1.84375 "/></g></g></g><g fill="#caf483" fill-opacity="1"><g transform="translate(146.186191, 336.509339)"><g><path d="M 19.21875 -14.0625 L 14.796875 -14.5625 L 13 1.453125 L 4.3125 0.484375 L 8.90625 -40.390625 L 21.65625 -38.953125 C 27.132812 -38.335938 31.132812 -36.863281 33.65625 -34.53125 C 36.1875 -32.195312 37.222656 -28.976562 36.765625 -24.875 C 36.460938 -22.195312 35.554688 -20.066406 34.046875 -18.484375 C 32.535156 -16.898438 30.335938 -15.65625 27.453125 -14.75 L 36.015625 4.046875 L 26.15625 2.9375 Z M 15.484375 -20.703125 L 20.03125 -20.1875 C 22.351562 -19.925781 24.160156 -20.25 25.453125 -21.15625 C 26.753906 -22.0625 27.53125 -23.632812 27.78125 -25.875 C 28.007812 -27.96875 27.5625 -29.566406 26.4375 -30.671875 C 25.3125 -31.773438 23.425781 -32.476562 20.78125 -32.78125 L 16.890625 -33.21875 Z M 15.484375 -20.703125 "/></g></g></g><g fill="#caf483" fill-opacity="1"><g transform="translate(187.930061, 340.78991)"><g><path d="M 35.1875 -3.453125 L 24.015625 -2.359375 L 7.828125 -33.546875 C 8.441406 -30.785156 8.976562 -28.1875 9.4375 -25.75 C 9.90625 -23.3125 10.300781 -20.429688 10.625 -17.109375 L 12.1875 -1.203125 L 4.328125 -0.421875 L 0.3125 -41.34375 L 11.234375 -42.421875 L 27.6875 -11.1875 C 26.375 -16.40625 25.503906 -21.222656 25.078125 -25.640625 L 23.3125 -43.609375 L 31.171875 -44.375 Z M 35.1875 -3.453125 "/></g></g></g><g fill="#caf483" fill-opacity="1"><g transform="translate(232.449911, 335.502121)"><g><path d="M 15.734375 -47.734375 L 16.65625 -41.375 L 2.4375 -37.078125 L 5.53125 -26.84375 L 17.9375 -30.59375 L 19.78125 -24.546875 L 7.375 -20.796875 L 10.65625 -9.9375 L 25.890625 -14.546875 L 27.75 -8.40625 L 4.15625 -1.265625 L -7.765625 -40.625 Z M 15.734375 -47.734375 "/></g></g></g><g fill="#caf483" fill-opacity="1"><g transform="translate(267.079248, 324.705178)"><g><path d="M 12.140625 -52.546875 L 12.140625 -23.734375 L 19.265625 -9.953125 L 11.515625 -5.9375 L 4.421875 -19.671875 L -19.0625 -36.4375 L -10.578125 -40.828125 L 5.265625 -28.015625 L 3.953125 -48.328125 Z M 12.140625 -52.546875 "/></g></g></g><g fill="#caf483" fill-opacity="1"><g transform="translate(302.068037, 306.054699)"><g><path d="M -12.6875 -43.515625 C -10.34375 -45.359375 -8.039062 -46.625 -5.78125 -47.3125 C -3.53125 -48 -1.132812 -48.234375 1.40625 -48.015625 L 1.09375 -41.640625 C -0.78125 -41.679688 -2.46875 -41.46875 -3.96875 -41 C -5.46875 -40.53125 -6.875 -39.78125 -8.1875 -38.75 C -9.625 -37.625 -10.53125 -36.421875 -10.90625 -35.140625 C -11.28125 -33.859375 -11.023438 -32.65625 -10.140625 -31.53125 C -9.535156 -30.75 -8.859375 -30.25 -8.109375 -30.03125 C -7.359375 -29.820312 -6.359375 -29.851562 -5.109375 -30.125 C -3.867188 -30.394531 -2.125 -30.957031 0.125 -31.8125 C 4.144531 -33.300781 7.539062 -33.914062 10.3125 -33.65625 C 13.09375 -33.394531 15.582031 -31.863281 17.78125 -29.0625 C 19.351562 -27.0625 20.234375 -24.910156 20.421875 -22.609375 C 20.609375 -20.304688 20.082031 -17.984375 18.84375 -15.640625 C 17.613281 -13.296875 15.722656 -11.117188 13.171875 -9.109375 C 10.609375 -7.109375 8.007812 -5.726562 5.375 -4.96875 C 2.738281 -4.21875 0.160156 -3.976562 -2.359375 -4.25 L -1.890625 -10.90625 C 0.179688 -10.832031 2.101562 -11.039062 3.875 -11.53125 C 5.644531 -12.03125 7.320312 -12.90625 8.90625 -14.15625 C 10.582031 -15.476562 11.625 -16.925781 12.03125 -18.5 C 12.4375 -20.082031 12.09375 -21.578125 11 -22.984375 C 10.3125 -23.847656 9.554688 -24.425781 8.734375 -24.71875 C 7.921875 -25.007812 6.894531 -25.046875 5.65625 -24.828125 C 4.425781 -24.617188 2.789062 -24.117188 0.75 -23.328125 C -3.632812 -21.648438 -7.179688 -20.984375 -9.890625 -21.328125 C -12.597656 -21.671875 -14.914062 -23.070312 -16.84375 -25.53125 C -18.257812 -27.34375 -19.03125 -29.320312 -19.15625 -31.46875 C -19.28125 -33.613281 -18.773438 -35.726562 -17.640625 -37.8125 C -16.515625 -39.90625 -14.863281 -41.804688 -12.6875 -43.515625 Z M -12.6875 -43.515625 "/></g></g></g></svg>