<svg xmlns="http://www.w3.org/2000/svg" xmlns:xlink="http://www.w3.org/1999/xlink" width="500" zoomAndPan="magnify" viewBox="0 0 375 374.999991" height="500" preserveAspectRatio="xMidYMid meet" version="1.0"><defs><filter x="0%" y="0%" width="100%" height="100%" id="4895e8c8af"><feColorMatrix values="0 0 0 0 1 0 0 0 0 1 0 0 0 0 1 0 0 0 1 0" color-interpolation-filters="sRGB"/></filter><mask id="d728f39970"><g filter="url(#4895e8c8af)"><rect x="-37.5" width="450" fill="#000000" y="-37.499999" height="449.999989" fill-opacity="0.5373"/></g></mask><clipPath id="62025b0dab"><path d="M 0.761719 3 L 321 3 L 321 177 L 0.761719 177 Z M 0.761719 3 " clip-rule="nonzero"/></clipPath><clipPath id="fba2e324df"><path d="M 174 4 L 327.050781 4 L 327.050781 177 L 174 177 Z M 174 4 " clip-rule="nonzero"/></clipPath><clipPath id="182ba4d5f2"><path d="M 62 143 L 261 143 L 261 312.609375 L 62 312.609375 Z M 62 143 " clip-rule="nonzero"/></clipPath><clipPath id="e6033a3b71"><rect x="0" width="328" y="0" height="316"/></clipPath></defs><g mask="url(#d728f39970)"><g transform="matrix(1, 0, 0, 1, 29, 24)"><g clip-path="url(#e6033a3b71)"><path fill="#a31bd8" d="M 172.140625 174.976562 C 142.34375 184.144531 118.566406 172.277344 90.015625 165.046875 C 77.128906 161.785156 59.871094 160.152344 47.25 165.421875 C 36.378906 169.972656 12.1875 187.191406 5.328125 167.242188 C 3.894531 163.097656 2.207031 167.953125 2.421875 170.023438 C 3.472656 180.050781 11.140625 183.996094 20.667969 184.253906 C 28.1875 184.460938 35.164062 180.03125 41.480469 176.589844 C 51.292969 171.230469 62.203125 170.546875 73.105469 170.980469 C 104.609375 172.265625 141.859375 199.226562 172.585938 180.019531 C 173.710938 179.308594 173.621094 174.523438 172.140625 174.976562 " fill-opacity="1" fill-rule="nonzero"/><g clip-path="url(#62025b0dab)"><path fill="#a31bd8" d="M 5.515625 171.546875 C -0.945312 157.054688 27.921875 147.207031 36.519531 143.527344 C 49.089844 138.136719 52.519531 125.515625 55.136719 113.300781 C 58.625 97.070312 64.851562 82.070312 76.949219 70.386719 C 90.5 57.285156 110.898438 51.558594 128.765625 47.304688 C 146.425781 43.089844 164.640625 40.402344 182.585938 37.742188 C 201.640625 34.921875 218.816406 37.375 237.445312 41.507812 C 256.234375 45.671875 275.058594 47.589844 293.292969 40.164062 C 305.132812 35.347656 313.71875 22.578125 319.816406 11.898438 C 320.636719 10.484375 319.710938 2.570312 318.574219 3.789062 C 313.730469 9.03125 310.449219 15.488281 306.179688 21.203125 C 299.65625 29.925781 290.289062 33.773438 279.941406 36.226562 C 258.050781 41.410156 235.222656 32.113281 213.617188 29.671875 C 192.796875 27.316406 171.449219 32.695312 151.011719 35.980469 C 131.878906 39.054688 111.320312 42.605469 93.453125 50.351562 C 79.003906 56.621094 68.835938 66.621094 61.433594 80.417969 C 52.636719 96.796875 54.960938 121.480469 41.738281 134.625 C 29.917969 146.355469 -10.355469 149.746094 3.894531 175.433594 C 5.378906 178.113281 6.082031 172.8125 5.515625 171.546875 " fill-opacity="1" fill-rule="nonzero"/></g><g clip-path="url(#fba2e324df)"><path fill="#a31bd8" d="M 320.816406 8.625 C 327.664062 11.847656 324 16.992188 321.308594 23.023438 C 319.304688 27.523438 317.011719 32.242188 314.203125 36.296875 C 302.316406 53.457031 281.304688 62.25 267.992188 78.242188 C 254.472656 94.472656 246.371094 114.410156 232.535156 130.53125 C 224.578125 139.816406 214.46875 147.640625 204.632812 154.820312 C 195.414062 161.546875 184.027344 165.53125 175.609375 173.15625 C 174.90625 173.800781 174.542969 176.738281 175.933594 176.835938 C 187.695312 177.734375 200.15625 168.183594 209.496094 161.953125 C 221.140625 154.179688 231.761719 144.199219 240.410156 133.210938 C 249.136719 122.113281 255.234375 108.832031 262.390625 96.726562 C 270.898438 82.335938 281.660156 72.011719 294.628906 61.765625 C 309.007812 50.398438 320.015625 40.777344 325.570312 22.886719 C 326.617188 19.53125 330.027344 -1.59375 320.746094 6.050781 C 320.351562 6.378906 320.300781 8.386719 320.816406 8.625 " fill-opacity="1" fill-rule="nonzero"/></g><path fill="#a31bd8" d="M 60.503906 147.421875 C 83.480469 133.902344 107.792969 121.679688 131.324219 109.050781 C 157.277344 95.125 185.265625 86.90625 213.550781 79.171875 C 252.03125 68.648438 310.113281 59.015625 322.238281 14.101562 C 322.644531 12.621094 321.519531 4.984375 320.273438 8.691406 C 312.335938 32.441406 294.410156 44.445312 272.132812 53.59375 C 245.480469 64.554688 217.769531 72.226562 190.394531 81.050781 C 143.765625 96.09375 100.410156 118.167969 60.335938 146.375 C 60.058594 146.574219 60.148438 147.621094 60.503906 147.421875 " fill-opacity="1" fill-rule="nonzero"/><path fill="#a31bd8" d="M 79.054688 136.691406 C 99.105469 129.671875 111.144531 97.050781 104.246094 77.675781 C 103.75 76.273438 102.941406 76.996094 102.804688 78.140625 C 101.707031 87.230469 102.464844 95.933594 100.066406 104.964844 C 96.636719 117.839844 88.1875 125.722656 78.667969 134.21875 C 78.175781 134.664062 78.054688 137.039062 79.054688 136.691406 " fill-opacity="1" fill-rule="nonzero"/><path fill="#a31bd8" d="M 122.648438 113.855469 C 141.078125 106.644531 144.605469 81.96875 144.625 64.632812 C 144.625 63.710938 144.429688 61.527344 143.371094 61.070312 L 142.957031 60.941406 C 141.847656 61.050781 141.535156 62.890625 141.492188 63.722656 C 140.734375 80.535156 139.417969 102.265625 122.144531 110.53125 C 121.222656 110.976562 121.480469 114.308594 122.648438 113.855469 " fill-opacity="1" fill-rule="nonzero"/><path fill="#a31bd8" d="M 164.835938 93.808594 C 180.828125 94.628906 195.949219 63.664062 187.46875 50.757812 C 186.609375 49.429688 185.886719 51.855469 185.867188 52.417969 C 185.601562 60.765625 185.628906 67.441406 182.03125 75.304688 C 178.296875 83.492188 171.992188 88.179688 164.769531 92.9375 C 164.578125 93.054688 164.550781 93.789062 164.835938 93.808594 " fill-opacity="1" fill-rule="nonzero"/><path fill="#a31bd8" d="M 199.921875 83.226562 C 207.203125 81.890625 212.976562 78.578125 217.71875 72.878906 C 221.898438 67.867188 226.425781 59.230469 226.988281 52.675781 C 227.078125 51.734375 227.207031 49.132812 226.21875 48.492188 C 224.746094 47.542969 221.167969 59.082031 220.675781 60.328125 C 216.828125 70.101562 210.050781 77.074219 199.832031 79.863281 C 198.804688 80.148438 199 83.394531 199.921875 83.226562 " fill-opacity="1" fill-rule="nonzero"/><path fill="#a31bd8" d="M 223.886719 75.203125 C 229.628906 73.929688 236.03125 73.671875 241.914062 73.691406 C 249.511719 73.710938 254.78125 75.996094 260.609375 80.496094 C 261.460938 81.148438 261.351562 78.183594 261.195312 77.835938 C 255.582031 65.363281 233.285156 68.449219 223.71875 73.167969 C 223.253906 73.394531 223.332031 75.324219 223.886719 75.203125 " fill-opacity="1" fill-rule="nonzero"/><path fill="#a31bd8" d="M 183.296875 87.972656 C 188.199219 86.816406 194.703125 87.753906 199.59375 88.746094 C 206.363281 90.109375 210.148438 93.421875 215.179688 97.636719 C 216.21875 98.507812 216.277344 94.875 216.136719 94.480469 C 211.976562 82.453125 192.480469 81.167969 183.148438 86.230469 C 182.765625 86.441406 182.8125 88.089844 183.296875 87.972656 " fill-opacity="1" fill-rule="nonzero"/><path fill="#a31bd8" d="M 135.457031 106.960938 C 151.050781 98.800781 168.679688 103.707031 181.589844 114.25 C 182.554688 115.03125 183.03125 111.105469 182.230469 110.34375 C 169.164062 98.050781 150.328125 95.132812 135.160156 104.875 C 134.617188 105.210938 134.804688 107.308594 135.457031 106.960938 " fill-opacity="1" fill-rule="nonzero"/><path fill="#a31bd8" d="M 97.839844 127.683594 C 107.703125 124.347656 116.183594 124.851562 125.890625 128.632812 C 133.320312 131.519531 139.429688 137.34375 146.851562 139.925781 C 148.765625 140.597656 148.589844 135.792969 147.679688 134.941406 C 135.179688 123.203125 112.339844 112.914062 97.515625 125.496094 C 97.0625 125.882812 96.992188 127.96875 97.839844 127.683594 " fill-opacity="1" fill-rule="nonzero"/><g clip-path="url(#182ba4d5f2)"><path fill="#a31bd8" d="M 233.304688 143.425781 C 231.167969 142.121094 230.160156 151.539062 232.574219 152.992188 C 258.515625 168.667969 259.078125 207.269531 253.328125 233.605469 C 245.847656 267.816406 219.933594 295.339844 186.273438 304.390625 C 158.867188 311.757812 128.074219 305.25 104.957031 289.347656 C 79.589844 271.902344 64.429688 236.5625 66.324219 204.28125 C 62.9375 202.582031 63.171875 196.792969 67.136719 196.429688 C 68.46875 187.476562 71.207031 178.894531 75.527344 171.179688 C 75.902344 170.515625 75.734375 166.105469 74.796875 166.945312 C 64.300781 176.363281 63.105469 199.613281 62.886719 212.617188 C 62.539062 233.367188 68.539062 251.703125 79.292969 269.300781 C 99.144531 301.769531 139.894531 316.800781 176.390625 311.601562 C 213.765625 306.277344 244.164062 275.816406 255.382812 240.785156 C 264.910156 211.054688 262.824219 161.535156 233.304688 143.425781 " fill-opacity="1" fill-rule="nonzero"/></g><path fill="#a31bd8" d="M 66.859375 234.378906 C 69.203125 231.65625 71.464844 232.894531 73.964844 234.625 C 75.46875 235.664062 78.324219 237.929688 79.507812 235.457031 C 79.714844 235.019531 79.6875 234.21875 79.371094 233.832031 C 78.621094 232.875 77.214844 233.140625 76.128906 232.539062 C 74.894531 231.84375 73.894531 230.808594 72.828125 229.90625 C 70.25 227.703125 67.984375 228.304688 65.878906 230.816406 C 65.140625 231.6875 65.753906 235.664062 66.859375 234.378906 " fill-opacity="1" fill-rule="nonzero"/><path fill="#a31bd8" d="M 82.277344 234.546875 C 85.261719 235.632812 87.21875 236.484375 90.25 235.355469 C 93.710938 232.539062 96.714844 233.429688 99.253906 238.007812 C 99.671875 238.796875 100.054688 239.679688 100.746094 240.261719 C 101.765625 241.5 103.058594 242.238281 104.632812 242.476562 C 115.433594 245.957031 103.328125 240.886719 108.730469 247.570312 C 106.6875 245.039062 105.679688 243.613281 103 241.773438 C 99.085938 239.085938 92.542969 240.402344 89.054688 242.851562 C 87.871094 243.683594 86.59375 245.15625 86.257812 246.613281 C 86.128906 247.144531 86.574219 252.019531 86.4375 252.179688 C 85.597656 253.199219 85.855469 255.105469 86.308594 256.226562 C 88.738281 262.238281 98.511719 272.136719 93.226562 278.535156 C 92.535156 279.378906 92.523438 284.007812 94.285156 283.035156 C 106.617188 276.222656 91.554688 258.765625 87.832031 252.546875 C 87.789062 253.890625 87.742188 255.246094 87.703125 256.589844 C 88.691406 255.382812 92.140625 241.28125 96.054688 247.035156 C 96.328125 247.453125 96.695312 247.5 97.109375 247.332031 C 107.011719 243.257812 105.351562 256.5 111.28125 255.253906 C 114.671875 254.535156 115.679688 250.398438 114.75 247.234375 C 113.949219 244.5625 112.941406 242.683594 111.144531 240.558594 C 108.128906 236.988281 103.246094 238.816406 100.242188 234.722656 C 99.253906 233.367188 98 230.363281 95.777344 230.421875 C 93.136719 230.480469 94.136719 230.292969 91.695312 231.359375 C 88.316406 232.835938 85.84375 232.042969 82.34375 232.308594 C 81.683594 232.359375 81.722656 234.347656 82.277344 234.546875 " fill-opacity="1" fill-rule="nonzero"/><path fill="#a31bd8" d="M 77.296875 259.132812 C 77.800781 260.152344 84.429688 254.40625 85.035156 252.605469 C 85.546875 251.113281 85.4375 249.539062 85.28125 247.996094 C 85.003906 245.34375 81.585938 243.515625 81.664062 240.894531 C 81.691406 239.996094 81.425781 238.421875 80.390625 238.183594 C 78.15625 237.679688 75.972656 237.847656 73.707031 237.800781 C 71.496094 237.761719 69.933594 235.476562 67.867188 236.722656 C 67.351562 237.027344 67.351562 238.078125 67.453125 238.5625 C 67.984375 241.308594 68.726562 243.269531 71.503906 244.386719 C 73.757812 245.285156 78.074219 243.675781 80.515625 243.664062 C 80.113281 243.011719 79.707031 242.347656 79.292969 241.6875 C 79.714844 244.148438 80.644531 246.097656 82.050781 248.15625 C 82.601562 248.867188 83.085938 249.628906 83.492188 250.429688 C 83.925781 249.402344 83.828125 249.171875 83.195312 249.726562 C 82.039062 250.4375 80.980469 251.320312 79.824219 252.042969 C 75.46875 254.769531 73.292969 258.253906 75.496094 263.304688 C 76.722656 266.125 78.085938 260.734375 77.296875 259.132812 " fill-opacity="1" fill-rule="nonzero"/><path fill="#a31bd8" d="M 116.785156 182.394531 C 117.605469 188.46875 118.160156 197.25 124.019531 200.742188 C 125.1875 201.441406 125.148438 198.167969 125.109375 197.753906 C 124.542969 191.859375 128.785156 199.851562 128.824219 199.949219 C 129.339844 201.492188 129.78125 203.164062 131.292969 204.125 C 134.160156 205.921875 136.472656 207.308594 137.253906 210.976562 C 137.402344 211.699219 137.828125 213.003906 138.519531 213.421875 C 140.515625 214.636719 141.917969 214.339844 144.160156 213.597656 C 148.261719 212.242188 150.347656 215.753906 151.941406 218.277344 C 152.96875 219.90625 154.90625 219.34375 156.347656 219.195312 C 159.570312 218.878906 161.960938 220.757812 165.015625 221.324219 C 165.84375 221.480469 165.46875 219.15625 165.242188 218.828125 C 163.253906 215.960938 162.277344 215.554688 158.808594 215.210938 C 155.644531 216.25 153.105469 215.023438 151.199219 211.5 C 150.863281 210.75 150.507812 209.820312 149.824219 209.34375 C 147.253906 207.585938 144.914062 208.40625 141.859375 208.582031 C 139.449219 208.722656 137.984375 203.429688 136.859375 201.679688 C 134.742188 198.445312 131 199.773438 129.800781 195.132812 C 129.257812 193.046875 128.902344 192.738281 127.164062 191.742188 C 123.617188 189.683594 123.25 196.714844 123.261719 198.4375 C 123.644531 197.65625 124.019531 196.875 124.40625 196.09375 C 119.78125 192.492188 119.464844 185.855469 118.300781 180.566406 C 117.695312 177.816406 116.617188 181.167969 116.785156 182.394531 " fill-opacity="1" fill-rule="nonzero"/><path fill="#a31bd8" d="M 142.570312 201.710938 C 141.15625 198.574219 140.484375 196.054688 144.449219 195.933594 C 146.59375 195.875 147.652344 194.300781 148.453125 192.542969 C 149.636719 189.921875 153.027344 191.136719 154.984375 190.988281 C 155.773438 190.929688 156.695312 189.800781 157.199219 189.289062 C 159.628906 186.816406 161.851562 191.808594 162.859375 193.34375 C 164.324219 195.566406 167.832031 197.152344 169.265625 193.738281 C 171.160156 189.238281 168.265625 186.082031 168.019531 181.730469 C 167.851562 178.6875 166.023438 178.695312 166.210938 181.769531 C 166.347656 184.105469 166.941406 186.09375 167.710938 188.300781 C 169.214844 192.609375 164.578125 190.601562 163.136719 188.496094 C 159.152344 182.652344 157.03125 188.785156 151.859375 187.449219 C 149.507812 186.84375 148.175781 187.695312 147.285156 189.652344 C 145.625 193.324219 141.136719 190.179688 139.894531 192.839844 C 138.105469 196.617188 139.507812 201.808594 141.277344 205.378906 C 142.492188 207.800781 143.066406 202.796875 142.570312 201.710938 " fill-opacity="1" fill-rule="nonzero"/><path fill="#a31bd8" d="M 141.34375 206.238281 C 145.296875 206.65625 148.074219 207.230469 150.933594 204.125 C 151.800781 203.183594 152.414062 202.066406 153.292969 201.125 C 155.390625 198.890625 156.445312 202.867188 157.769531 202.898438 C 159.804688 202.9375 159.183594 203.015625 161.042969 202.242188 C 164.976562 200.621094 166.902344 200.097656 170.726562 202.5625 C 172.683594 203.816406 166.941406 203.996094 166.003906 203.738281 C 163.542969 203.054688 160.984375 202.796875 158.441406 202.886719 C 154.765625 203.015625 151.101562 208.367188 153.75 211.6875 C 156.082031 214.605469 159.945312 212.480469 162.058594 215.417969 C 164.195312 218.375 168.097656 218.453125 171.417969 218.859375 C 172.277344 218.96875 172.050781 216.386719 171.507812 216.039062 C 170.113281 215.152344 169.699219 214.953125 168.117188 214.507812 C 165.082031 213.65625 164.15625 212.382812 161.804688 210.820312 C 160.308594 209.828125 160.855469 210.027344 159.066406 209.878906 C 156.863281 210.511719 156.695312 209.542969 158.542969 206.972656 C 159.804688 206.746094 161.082031 206.683594 162.355469 206.792969 C 166.21875 206.882812 173.445312 208.671875 173.199219 202.789062 C 173.011719 198.109375 163.878906 196.953125 160.707031 197.871094 C 157.523438 198.78125 155.832031 196.875 152.886719 198.070312 C 150.933594 198.863281 150.449219 200.996094 148.054688 201.800781 C 145.910156 202.511719 143.402344 201.925781 141.238281 201.699219 C 140.121094 201.582031 140 206.101562 141.34375 206.238281 " fill-opacity="1" fill-rule="nonzero"/><path fill="#a31bd8" d="M 170.222656 220.492188 C 178.226562 216.03125 182.507812 222.570312 189.136719 224.171875 C 195.15625 225.632812 197.054688 213.765625 201.601562 227.828125 C 202.035156 229.144531 202.945312 230.074219 203.765625 231.242188 C 206.234375 234.742188 212.511719 234.507812 216.128906 235.050781 C 231.070312 237.304688 220.359375 258.003906 212.6875 262.464844 C 210.335938 263.832031 207.667969 266.492188 207.113281 269.28125 C 205.542969 277.269531 200.769531 281.839844 194.367188 286.46875 C 189.574219 289.929688 187.0625 298.535156 188.832031 304.042969 C 189.683594 306.675781 191.933594 304.539062 191.757812 302.621094 C 190.292969 287.367188 203.429688 290.367188 208.746094 281.464844 C 209.339844 280.445312 209.308594 278.160156 209.386719 277.378906 C 210.140625 269.683594 212.324219 267.6875 217.699219 263.464844 C 224.765625 257.90625 226.652344 246.808594 225.101562 238.542969 C 224.589844 235.722656 222.996094 233.972656 220.78125 232.328125 C 213.738281 227.109375 208.132812 230.925781 201.996094 221.597656 C 198.84375 216.8125 194.089844 218.78125 188.980469 217.949219 C 186.300781 217.515625 182.101562 211.519531 179.433594 211.835938 C 175.449219 212.3125 173.097656 213.609375 169.5625 215.644531 C 168.296875 216.378906 168.878906 221.242188 170.222656 220.492188 " fill-opacity="1" fill-rule="nonzero"/><path fill="#a31bd8" d="M 163.382812 218.445312 C 160.753906 226.613281 155.726562 234.78125 156.613281 243.496094 C 157.445312 251.585938 185.90625 262.21875 174.433594 271.773438 C 171.726562 274.027344 170.480469 279 172.734375 282.007812 C 178.464844 289.664062 170.875 300.550781 179.886719 305.496094 C 181.359375 306.308594 181.210938 303.023438 180.875 302.410156 C 176.953125 295.339844 182.585938 289.792969 177.683594 283.015625 C 174.246094 278.261719 180.410156 270.082031 180.53125 263.761719 C 180.628906 258.0625 175.351562 256.183594 171.121094 254 C 165.230469 250.964844 158.105469 243.148438 161.070312 236.464844 C 163.175781 231.71875 164.15625 226.535156 165.015625 221.460938 C 165.171875 220.570312 164.195312 215.914062 163.382812 218.445312 " fill-opacity="1" fill-rule="nonzero"/><path fill="#a31bd8" d="M 253.890625 179.882812 C 252.121094 185.222656 250.3125 188.585938 245.71875 191.554688 C 244.078125 192.609375 243.238281 194.074219 242.683594 195.894531 C 241.726562 198.980469 243.53125 202.5625 243.21875 205.667969 C 242.820312 209.394531 242.484375 213.449219 244.226562 216.890625 C 244.886719 218.195312 245.886719 218.890625 247.011719 219.769531 C 251.460938 223.269531 254.730469 223.824219 256.441406 230.175781 C 257.308594 233.386719 258.820312 229.609375 258.503906 227.988281 C 257.726562 223.84375 256.527344 221.667969 253.496094 218.640625 C 251.84375 217 249.441406 216.03125 247.398438 214.992188 C 243.703125 213.105469 245.261719 207.734375 245.441406 204.273438 C 245.507812 202.867188 245.410156 201.441406 245.242188 200.058594 C 244.816406 196.585938 245.402344 198.59375 248.503906 196.707031 C 253.742188 193.511719 253.859375 189.625 255.371094 184.046875 C 255.679688 182.917969 254.828125 177.054688 253.890625 179.882812 " fill-opacity="1" fill-rule="nonzero"/><path fill="#a31bd8" d="M 66.632812 196.894531 C 83.957031 197.03125 97.980469 206.0625 114.089844 210.886719 C 130.472656 215.804688 148.667969 216.359375 165.628906 214.855469 C 195.886719 212.152344 227.9375 188.40625 245.738281 164.640625 C 246.042969 164.214844 245.738281 162.109375 245.332031 162.523438 C 220.929688 187.695312 193.941406 210.847656 157.453125 212.957031 C 140.464844 213.925781 122.804688 211.886719 106.914062 205.84375 C 93.464844 200.722656 81.277344 194.519531 66.574219 194.5 C 65.878906 194.5 65.921875 196.882812 66.632812 196.894531 " fill-opacity="1" fill-rule="nonzero"/><path fill="#a31bd8" d="M 76.582031 167.363281 C 72.789062 175.035156 69.882812 183.828125 67.601562 192.066406 C 67.53125 192.304688 67.582031 194.085938 68.023438 193.5 C 70.417969 190.347656 71.304688 186.015625 72.433594 182.277344 C 73.808594 177.675781 75.171875 173.117188 76.96875 168.65625 C 77.085938 168.371094 76.832031 166.875 76.582031 167.363281 " fill-opacity="1" fill-rule="nonzero"/><path fill="#a31bd8" d="M 82.761719 168.925781 C 79.351562 177.488281 74.339844 185.835938 73.351562 195.144531 C 73.324219 195.371094 73.578125 196.546875 73.808594 195.855469 C 76.613281 187.191406 80.113281 178.902344 83.304688 170.378906 C 83.460938 169.953125 83.15625 167.945312 82.761719 168.925781 " fill-opacity="1" fill-rule="nonzero"/><path fill="#a31bd8" d="M 78.855469 198.257812 C 80.09375 194.132812 81.121094 189.949219 82.535156 185.867188 C 84.617188 179.84375 87.453125 174.117188 89.875 168.222656 L 89.808594 167.925781 C 84.125 176.488281 79.5 187.636719 77.898438 198.03125 C 78.222656 198.101562 78.539062 198.1875 78.855469 198.257812 " fill-opacity="1" fill-rule="nonzero"/><path fill="#a31bd8" d="M 86.65625 200.523438 C 88.621094 195.566406 89.738281 190.277344 91.8125 185.3125 C 93.867188 180.417969 96.558594 175.835938 99.421875 171.375 C 99.609375 171.089844 99.363281 169.714844 99.1875 169.933594 C 92.484375 178.121094 86.941406 189.632812 85.882812 200.277344 C 86.140625 200.355469 86.398438 200.433594 86.65625 200.523438 " fill-opacity="1" fill-rule="nonzero"/><path fill="#a31bd8" d="M 94.363281 203.195312 C 95.46875 198.683594 96.488281 194.332031 98.316406 189.941406 C 100.234375 185.363281 102.566406 180.960938 104.757812 176.519531 C 105.015625 175.976562 104.632812 173.613281 104.253906 174.3125 C 99.828125 182.878906 93.484375 192.75 93.148438 202.769531 C 93.550781 202.90625 93.957031 203.054688 94.363281 203.195312 " fill-opacity="1" fill-rule="nonzero"/><path fill="#a31bd8" d="M 100.835938 205.527344 C 103.878906 195.636719 105.996094 186.125 111.558594 176.984375 C 111.855469 176.488281 111.519531 174.214844 111.085938 174.898438 C 105.5 183.671875 100.699219 194.53125 99.679688 205.09375 C 100.066406 205.242188 100.449219 205.378906 100.835938 205.527344 " fill-opacity="1" fill-rule="nonzero"/><path fill="#a31bd8" d="M 107.664062 208.179688 C 109.058594 203.976562 109.929688 199.601562 111.449219 195.398438 C 113.335938 190.160156 115.828125 185.144531 118.378906 180.199219 C 118.664062 179.65625 118.257812 177.25 117.882812 177.972656 C 113.070312 187.054688 107.496094 197.488281 106.835938 207.941406 C 106.902344 207.96875 106.972656 208 107.042969 208.03125 C 107.25 208.078125 107.449219 208.128906 107.664062 208.179688 " fill-opacity="1" fill-rule="nonzero"/><path fill="#a31bd8" d="M 123.644531 182.175781 C 119.515625 190.109375 115.542969 199.238281 113.652344 207.992188 C 113.613281 208.1875 113.742188 209.78125 114.117188 209.207031 C 116.027344 206.257812 116.816406 202.53125 117.964844 199.226562 C 119.722656 194.144531 121.6875 189.167969 124.140625 184.382812 C 124.40625 183.828125 124.011719 181.476562 123.644531 182.175781 " fill-opacity="1" fill-rule="nonzero"/><path fill="#a31bd8" d="M 121.777344 211.414062 C 123.042969 207.882812 123.953125 204.152344 125.078125 200.640625 C 127.242188 193.957031 129.792969 187.417969 133.023438 181.179688 C 133.292969 180.671875 132.925781 178.429688 132.558594 179.089844 C 127.292969 188.84375 122.746094 200.089844 120.234375 211.074219 C 120.75 211.183594 121.265625 211.304688 121.777344 211.414062 " fill-opacity="1" fill-rule="nonzero"/><path fill="#a31bd8" d="M 130.976562 213.183594 C 133.855469 202.769531 135.929688 193.183594 141.949219 183.949219 C 142.3125 183.402344 141.9375 180.820312 141.433594 181.5625 C 135.496094 190.414062 130.464844 201.800781 130.375 212.640625 C 130.367188 212.726562 130.40625 212.90625 130.464844 213.082031 C 130.632812 213.113281 130.808594 213.152344 130.976562 213.183594 " fill-opacity="1" fill-rule="nonzero"/><path fill="#a31bd8" d="M 138.378906 214.121094 C 142.324219 204.3125 145.4375 194.027344 149.351562 184.164062 C 149.539062 183.679688 149.074219 181.515625 148.789062 182.195312 C 144.605469 192.433594 139.113281 203.054688 137.390625 214.074219 C 137.726562 214.09375 138.054688 214.113281 138.378906 214.121094 " fill-opacity="1" fill-rule="nonzero"/><path fill="#a31bd8" d="M 147.085938 214.4375 C 151.140625 204.09375 152.730469 193.085938 158.691406 183.273438 C 158.976562 182.789062 158.640625 180.535156 158.226562 181.1875 C 152.066406 191.058594 148.136719 202.984375 145.625 214.429688 C 146.117188 214.4375 146.601562 214.4375 147.085938 214.4375 " fill-opacity="1" fill-rule="nonzero"/><path fill="#a31bd8" d="M 155.914062 214.222656 C 159.214844 202.964844 162.542969 192.34375 168.128906 181.792969 C 168.414062 181.246094 168.027344 178.824219 167.644531 179.527344 C 161.890625 189.988281 155.773438 202.175781 154.617188 214.320312 C 155.054688 214.300781 155.476562 214.25 155.914062 214.222656 " fill-opacity="1" fill-rule="nonzero"/><path fill="#a31bd8" d="M 174.394531 176.132812 C 170.488281 187.804688 165.074219 199.355469 162.792969 211.492188 C 162.722656 211.886719 163.039062 214.171875 163.492188 212.984375 C 167.851562 201.5625 171.339844 189.515625 174.996094 177.835938 C 175.15625 177.351562 174.777344 174.996094 174.394531 176.132812 " fill-opacity="1" fill-rule="nonzero"/><path fill="#a31bd8" d="M 170.203125 212.203125 C 174.226562 199.476562 177.378906 186.824219 182.804688 174.492188 C 183.050781 173.917969 182.625 171.4375 182.308594 172.148438 C 176.527344 184.757812 171.398438 198.269531 169.066406 211.984375 C 169.046875 212.074219 169.058594 212.242188 169.078125 212.441406 C 169.453125 212.363281 169.828125 212.28125 170.203125 212.203125 " fill-opacity="1" fill-rule="nonzero"/><path fill="#a31bd8" d="M 179.472656 209.917969 C 182.152344 196.835938 187.457031 184.90625 190.671875 171.960938 C 190.769531 171.554688 190.421875 169.488281 190.15625 170.476562 C 186.53125 183.589844 178.542969 196.261719 178.613281 210.15625 C 178.898438 210.078125 179.1875 209.996094 179.472656 209.917969 " fill-opacity="1" fill-rule="nonzero"/><path fill="#a31bd8" d="M 188.296875 207.269531 C 191.746094 192.988281 193.152344 178.65625 200.59375 165.523438 C 200.878906 165.015625 200.542969 162.613281 200.128906 163.296875 C 192.183594 176.382812 188.753906 192.609375 186.914062 207.714844 C 187.378906 207.566406 187.832031 207.417969 188.296875 207.269531 " fill-opacity="1" fill-rule="nonzero"/><path fill="#a31bd8" d="M 195.425781 204.648438 C 197.6875 190.050781 202.027344 176.796875 207.390625 162.863281 C 207.589844 162.355469 207.222656 160.082031 206.957031 160.714844 C 201.039062 174.503906 194.160156 189.820312 194.21875 205.160156 C 194.625 204.992188 195.027344 204.824219 195.425781 204.648438 " fill-opacity="1" fill-rule="nonzero"/><path fill="#a31bd8" d="M 204.632812 199.40625 C 205.878906 184.769531 210.691406 171.289062 215.277344 157.324219 C 215.40625 156.925781 215.050781 155.039062 214.84375 155.59375 C 209.675781 169.488281 202.589844 184.996094 203.46875 200.195312 C 203.863281 199.941406 204.25 199.671875 204.632812 199.40625 " fill-opacity="1" fill-rule="nonzero"/><path fill="#a31bd8" d="M 214.714844 191.671875 C 216.070312 178.230469 220.605469 165.679688 224.757812 152.785156 C 224.914062 152.296875 224.460938 149.996094 224.230469 150.648438 C 219.648438 163.632812 212.628906 178.605469 213.320312 192.828125 C 213.785156 192.441406 214.25 192.058594 214.714844 191.671875 " fill-opacity="1" fill-rule="nonzero"/><path fill="#a31bd8" d="M 222.878906 184.984375 C 225.46875 172.347656 225.113281 159.667969 231.484375 147.730469 C 231.753906 147.226562 231.40625 144.800781 231.050781 145.433594 C 224.410156 157.253906 222.027344 172.40625 221.625 185.976562 C 222.046875 185.636719 222.464844 185.300781 222.878906 184.984375 " fill-opacity="1" fill-rule="nonzero"/><path fill="#a31bd8" d="M 231.179688 179.257812 C 233.066406 170.425781 233.957031 161.59375 237.800781 153.109375 C 238.066406 152.515625 237.664062 149.816406 237.296875 150.546875 C 232.839844 159.636719 230.359375 170.238281 229.5 180.40625 C 230.0625 180.03125 230.625 179.644531 231.179688 179.257812 " fill-opacity="1" fill-rule="nonzero"/><path fill="#a31bd8" d="M 239.886719 172.089844 C 240.105469 171.21875 240.28125 170.398438 240.441406 169.785156 C 241.378906 166.261719 241.851562 162.644531 242.179688 159.023438 C 242.238281 158.3125 241.535156 156.144531 241.339844 157.898438 C 240.984375 161.050781 240.398438 164.148438 239.609375 167.222656 C 238.9375 169.835938 237.761719 172.265625 236.992188 174.828125 C 237.988281 173.976562 238.957031 173.066406 239.886719 172.089844 " fill-opacity="1" fill-rule="nonzero"/></g></g></g></svg>