<svg xmlns="http://www.w3.org/2000/svg" xmlns:xlink="http://www.w3.org/1999/xlink" width="500" zoomAndPan="magnify" viewBox="0 0 375 374.999991" height="500" preserveAspectRatio="xMidYMid meet" version="1.0"><path fill="#a31bd8" d="M 148.265625 224.628906 C 148.003906 220.070312 147.8125 215.511719 147.652344 210.949219 C 147.480469 206.390625 147.351562 201.828125 147.242188 197.269531 C 147.132812 192.707031 147.042969 188.148438 146.980469 183.585938 C 146.910156 179.023438 146.875 174.460938 146.898438 169.898438 C 146.933594 160.777344 147.171875 151.648438 147.128906 142.527344 C 147.128906 142.527344 147.105469 139.105469 147.105469 139.105469 C 147.089844 137.964844 147.070312 136.828125 147.046875 135.6875 C 147.046875 135.6875 147.011719 133.980469 147.011719 133.980469 C 147.011719 133.980469 146.988281 133.128906 146.988281 133.128906 C 146.988281 133.128906 146.953125 132.726562 146.953125 132.726562 C 146.941406 132.59375 146.910156 132.464844 146.890625 132.332031 C 146.785156 131.8125 146.59375 131.3125 146.300781 130.882812 C 146.011719 130.449219 145.628906 130.085938 145.1875 129.800781 C 144.746094 129.515625 144.25 129.304688 143.730469 129.15625 C 143.214844 129.007812 142.675781 128.914062 142.128906 128.871094 C 141.582031 128.828125 141.027344 128.832031 140.476562 128.863281 C 139.925781 128.902344 139.375 128.96875 138.824219 129.058594 C 138.28125 129.160156 137.734375 129.273438 137.199219 129.417969 C 136.660156 129.566406 136.128906 129.726562 135.605469 129.917969 C 134.554688 130.289062 133.546875 130.761719 132.554688 131.277344 C 131.574219 131.800781 130.625 132.378906 129.800781 133.066406 C 128.96875 133.753906 128.265625 134.550781 127.742188 135.457031 C 127.214844 136.363281 126.875 137.375 126.640625 138.429688 C 126.402344 139.480469 126.28125 140.578125 126.210938 141.683594 C 126.179688 142.238281 126.15625 142.792969 126.148438 143.351562 C 126.148438 143.351562 126.121094 145.058594 126.121094 145.058594 C 126.121094 145.058594 126.054688 148.480469 126.054688 148.480469 C 126.054688 148.480469 125.917969 155.320312 125.917969 155.320312 C 125.917969 155.320312 125.691406 168.996094 125.691406 168.996094 C 125.691406 168.996094 125.484375 182.671875 125.484375 182.671875 C 125.484375 182.671875 125.285156 196.339844 125.285156 196.339844 C 125.257812 198.621094 125.234375 200.898438 125.226562 203.175781 C 125.210938 205.453125 125.195312 207.730469 125.203125 210.007812 C 125.210938 212.285156 125.214844 214.5625 125.246094 216.839844 C 125.257812 217.980469 125.28125 219.117188 125.308594 220.253906 C 125.328125 221.394531 125.359375 222.53125 125.398438 223.667969 C 125.476562 225.941406 125.582031 228.214844 125.761719 230.480469 C 125.859375 231.609375 125.964844 232.742188 126.125 233.863281 C 126.285156 234.984375 126.476562 236.105469 126.84375 237.167969 C 126.84375 237.167969 126.84375 237.175781 126.84375 237.175781 C 126.867188 237.234375 126.835938 237.296875 126.777344 237.316406 C 126.722656 237.335938 126.664062 237.308594 126.640625 237.253906 C 126.53125 236.988281 126.40625 236.722656 126.320312 236.449219 C 126.273438 236.3125 126.222656 236.175781 126.179688 236.039062 C 126.179688 236.039062 126.058594 235.625 126.058594 235.625 C 125.898438 235.070312 125.761719 234.511719 125.644531 233.949219 C 125.40625 232.824219 125.210938 231.695312 125.042969 230.5625 C 124.722656 228.292969 124.472656 226.015625 124.28125 223.734375 C 124.183594 222.59375 124.089844 221.453125 124.011719 220.3125 C 123.929688 219.171875 123.863281 218.03125 123.796875 216.890625 C 123.667969 214.609375 123.558594 212.324219 123.480469 210.042969 C 123.398438 207.757812 123.324219 205.476562 123.273438 203.191406 C 123.226562 200.90625 123.191406 198.625 123.164062 196.339844 C 123.105469 191.773438 123.109375 187.207031 123.148438 182.640625 C 123.191406 178.074219 123.273438 173.511719 123.40625 168.949219 C 123.40625 168.949219 123.609375 162.105469 123.609375 162.105469 C 123.609375 162.105469 123.851562 155.261719 123.851562 155.261719 C 123.9375 152.980469 124.019531 150.703125 124.117188 148.421875 C 124.117188 148.421875 124.261719 145.003906 124.261719 145.003906 C 124.261719 145.003906 124.296875 144.148438 124.296875 144.148438 C 124.308594 143.867188 124.320312 143.582031 124.335938 143.289062 C 124.363281 142.710938 124.40625 142.128906 124.460938 141.542969 C 124.574219 140.378906 124.742188 139.203125 125.046875 138.039062 C 125.355469 136.878906 125.800781 135.722656 126.46875 134.679688 C 127.128906 133.636719 128.003906 132.738281 128.964844 132.011719 C 129.925781 131.28125 130.964844 130.710938 132.019531 130.207031 C 133.070312 129.710938 134.152344 129.261719 135.269531 128.917969 C 136.382812 128.566406 137.527344 128.308594 138.683594 128.140625 C 139.265625 128.066406 139.851562 128.015625 140.4375 127.992188 C 141.023438 127.980469 141.613281 127.996094 142.203125 128.058594 C 142.792969 128.117188 143.382812 128.234375 143.957031 128.410156 C 144.527344 128.585938 145.089844 128.835938 145.597656 129.183594 C 146.105469 129.523438 146.558594 129.972656 146.890625 130.492188 C 147.230469 131.015625 147.449219 131.601562 147.5625 132.199219 C 147.585938 132.347656 147.617188 132.5 147.632812 132.648438 C 147.632812 132.648438 147.664062 133.101562 147.664062 133.101562 C 147.664062 133.101562 147.679688 133.957031 147.679688 133.957031 C 147.679688 133.957031 147.707031 135.671875 147.707031 135.671875 C 147.707031 135.671875 147.832031 142.515625 147.832031 142.515625 C 147.921875 147.078125 148.082031 151.636719 148.25 156.199219 C 148.25 156.199219 148.503906 163.039062 148.503906 163.039062 C 148.550781 164.179688 148.582031 165.320312 148.621094 166.460938 C 148.65625 167.601562 148.695312 168.738281 148.722656 169.878906 C 148.84375 174.441406 148.910156 179.003906 148.929688 183.566406 C 148.957031 188.125 148.960938 192.6875 148.945312 197.25 C 148.929688 201.8125 148.894531 206.375 148.816406 210.9375 C 148.75 215.5 148.652344 220.0625 148.484375 224.628906 C 148.480469 224.6875 148.429688 224.734375 148.371094 224.734375 C 148.3125 224.730469 148.269531 224.6875 148.265625 224.628906 Z M 148.265625 224.628906 " fill-opacity="1" fill-rule="nonzero"/><path fill="#a31bd8" d="M 148.347656 224.875 C 147.40625 224.804688 146.449219 224.796875 145.5 224.8125 C 144.546875 224.824219 143.597656 224.878906 142.652344 224.96875 C 140.765625 225.140625 138.890625 225.464844 137.085938 225.996094 C 136.632812 226.128906 136.1875 226.273438 135.75 226.4375 C 135.308594 226.597656 134.875 226.773438 134.453125 226.96875 C 133.605469 227.351562 132.789062 227.804688 132.03125 228.332031 C 131.652344 228.59375 131.292969 228.882812 130.949219 229.183594 C 130.601562 229.484375 130.28125 229.8125 129.972656 230.148438 C 129.675781 230.492188 129.390625 230.847656 129.132812 231.222656 C 128.878906 231.601562 128.636719 231.988281 128.4375 232.394531 C 128.019531 233.203125 127.71875 234.070312 127.507812 234.960938 C 127.507812 234.960938 127.46875 235.128906 127.46875 235.128906 C 127.46875 235.128906 127.441406 235.289062 127.441406 235.289062 C 127.441406 235.289062 127.386719 235.609375 127.386719 235.609375 C 127.371094 235.71875 127.367188 235.824219 127.359375 235.933594 C 127.351562 236.039062 127.335938 236.148438 127.34375 236.253906 C 127.34375 236.253906 127.351562 236.570312 127.351562 236.570312 C 127.351562 236.679688 127.378906 236.78125 127.386719 236.886719 C 127.40625 237.097656 127.464844 237.304688 127.511719 237.507812 C 127.535156 237.613281 127.578125 237.710938 127.609375 237.8125 C 127.640625 237.910156 127.675781 238.011719 127.722656 238.109375 C 127.722656 238.109375 127.855469 238.398438 127.855469 238.398438 C 127.90625 238.496094 127.964844 238.585938 128.015625 238.679688 C 128.015625 238.679688 128.097656 238.820312 128.097656 238.820312 C 128.125 238.867188 128.15625 238.910156 128.1875 238.953125 C 128.1875 238.953125 128.375 239.222656 128.375 239.222656 C 128.441406 239.308594 128.515625 239.390625 128.582031 239.476562 C 128.652344 239.5625 128.71875 239.648438 128.800781 239.726562 C 129.402344 240.378906 130.128906 240.941406 130.902344 241.429688 C 131.679688 241.921875 132.515625 242.339844 133.371094 242.722656 C 134.226562 243.101562 135.105469 243.4375 136 243.738281 C 136.894531 244.039062 137.800781 244.3125 138.714844 244.566406 C 139.632812 244.816406 140.554688 245.042969 141.484375 245.253906 C 143.339844 245.671875 145.214844 246.027344 147.101562 246.332031 C 148.984375 246.636719 150.882812 246.894531 152.78125 247.113281 C 154.683594 247.335938 156.589844 247.507812 158.5 247.652344 C 160.410156 247.789062 162.324219 247.890625 164.238281 247.953125 C 166.15625 248.015625 168.066406 248.03125 169.988281 248.007812 C 171.90625 247.988281 173.824219 247.976562 175.742188 247.941406 C 175.742188 247.941406 178.617188 247.886719 178.617188 247.886719 C 178.617188 247.886719 181.496094 247.820312 181.496094 247.820312 C 183.414062 247.773438 185.328125 247.714844 187.246094 247.65625 C 187.246094 247.65625 210.25 246.898438 210.25 246.898438 C 214.082031 246.761719 217.914062 246.613281 221.742188 246.433594 C 221.742188 246.433594 227.480469 246.15625 227.480469 246.15625 C 229.394531 246.054688 231.304688 245.9375 233.214844 245.816406 C 235.125 245.695312 237.03125 245.550781 238.925781 245.363281 C 239.871094 245.265625 240.816406 245.160156 241.75 245.023438 C 241.980469 244.988281 242.214844 244.953125 242.445312 244.910156 C 242.445312 244.910156 242.789062 244.851562 242.789062 244.851562 C 242.789062 244.851562 243.128906 244.785156 243.128906 244.785156 C 243.355469 244.746094 243.570312 244.6875 243.789062 244.636719 C 243.789062 244.636719 244.097656 244.542969 244.097656 244.542969 C 244.195312 244.511719 244.273438 244.472656 244.367188 244.441406 C 245.125 244.089844 245.828125 243.519531 246.425781 242.859375 C 247.023438 242.195312 247.53125 241.4375 247.921875 240.625 C 248.71875 239.007812 249.058594 237.148438 248.71875 235.394531 C 248.546875 234.519531 248.210938 233.675781 247.726562 232.917969 C 247.609375 232.726562 247.472656 232.546875 247.34375 232.363281 C 247.199219 232.1875 247.0625 232.007812 246.90625 231.839844 C 246.757812 231.667969 246.59375 231.511719 246.429688 231.347656 C 246.347656 231.269531 246.261719 231.195312 246.175781 231.117188 C 246.09375 231.042969 246.007812 230.964844 245.917969 230.894531 C 245.207031 230.308594 244.421875 229.804688 243.585938 229.382812 C 242.753906 228.957031 241.878906 228.605469 240.984375 228.304688 C 240.085938 228.003906 239.167969 227.761719 238.242188 227.558594 C 237.3125 227.355469 236.375 227.1875 235.429688 227.058594 C 234.484375 226.933594 233.53125 226.820312 232.578125 226.753906 C 231.625 226.671875 230.667969 226.625 229.710938 226.585938 C 229.671875 226.585938 229.644531 226.554688 229.644531 226.515625 C 229.644531 226.480469 229.675781 226.453125 229.710938 226.449219 C 231.632812 226.402344 233.558594 226.4375 235.480469 226.609375 C 237.398438 226.792969 239.320312 227.089844 241.191406 227.636719 C 242.125 227.910156 243.050781 228.242188 243.941406 228.65625 C 244.835938 229.066406 245.691406 229.578125 246.484375 230.1875 C 246.582031 230.261719 246.679688 230.339844 246.773438 230.421875 C 246.871094 230.503906 246.96875 230.582031 247.0625 230.667969 C 247.246094 230.839844 247.433594 231.007812 247.601562 231.191406 C 247.78125 231.371094 247.941406 231.566406 248.109375 231.757812 C 248.261719 231.957031 248.421875 232.15625 248.5625 232.371094 C 249.140625 233.210938 249.550781 234.171875 249.773438 235.175781 C 250 236.175781 250.019531 237.21875 249.882812 238.230469 C 249.75 239.242188 249.453125 240.226562 249.027344 241.148438 C 248.601562 242.070312 248.050781 242.933594 247.375 243.707031 C 246.699219 244.472656 245.90625 245.164062 244.929688 245.640625 C 244.378906 245.890625 243.902344 245.992188 243.410156 246.109375 C 243.410156 246.109375 243.046875 246.1875 243.046875 246.1875 C 243.046875 246.1875 242.683594 246.257812 242.683594 246.257812 C 242.441406 246.304688 242.199219 246.339844 241.957031 246.378906 C 240.992188 246.53125 240.035156 246.652344 239.074219 246.757812 C 237.152344 246.96875 235.234375 247.128906 233.316406 247.269531 C 225.636719 247.792969 217.960938 248.019531 210.285156 248.191406 C 206.449219 248.277344 202.609375 248.34375 198.773438 248.375 C 198.773438 248.375 195.894531 248.398438 195.894531 248.398438 C 195.894531 248.398438 193.015625 248.40625 193.015625 248.40625 C 193.015625 248.40625 187.257812 248.40625 187.257812 248.40625 C 187.257812 248.40625 181.5 248.398438 181.5 248.398438 C 181.5 248.398438 175.746094 248.402344 175.746094 248.402344 C 175.746094 248.402344 169.988281 248.425781 169.988281 248.425781 C 169.988281 248.425781 167.109375 248.433594 167.109375 248.433594 C 166.148438 248.433594 165.1875 248.417969 164.226562 248.394531 C 162.308594 248.355469 160.386719 248.292969 158.46875 248.199219 C 156.546875 248.113281 154.628906 247.992188 152.710938 247.84375 C 148.878906 247.535156 145.042969 247.09375 141.25 246.335938 C 139.355469 245.949219 137.46875 245.5 135.617188 244.882812 C 133.773438 244.269531 131.9375 243.535156 130.25 242.464844 C 129.40625 241.929688 128.601562 241.308594 127.902344 240.546875 C 127.8125 240.457031 127.730469 240.355469 127.648438 240.253906 C 127.566406 240.15625 127.484375 240.054688 127.402344 239.953125 C 127.402344 239.953125 127.179688 239.628906 127.179688 239.628906 C 127.144531 239.574219 127.105469 239.523438 127.070312 239.464844 C 127.070312 239.464844 126.96875 239.292969 126.96875 239.292969 C 126.90625 239.179688 126.839844 239.066406 126.777344 238.949219 C 126.777344 238.949219 126.609375 238.585938 126.609375 238.585938 C 126.550781 238.464844 126.511719 238.339844 126.46875 238.210938 C 126.425781 238.085938 126.375 237.960938 126.34375 237.828125 C 126.285156 237.566406 126.214844 237.308594 126.195312 237.039062 C 126.179688 236.90625 126.15625 236.773438 126.15625 236.640625 C 126.15625 236.640625 126.148438 236.242188 126.148438 236.242188 C 126.140625 236.109375 126.160156 235.976562 126.167969 235.84375 C 126.183594 235.714844 126.1875 235.578125 126.207031 235.449219 C 126.207031 235.449219 126.277344 235.0625 126.277344 235.0625 C 126.277344 235.0625 126.316406 234.871094 126.316406 234.871094 C 126.316406 234.871094 126.359375 234.6875 126.359375 234.6875 C 126.601562 233.714844 126.941406 232.757812 127.414062 231.867188 C 127.878906 230.972656 128.46875 230.140625 129.148438 229.398438 C 129.496094 229.035156 129.855469 228.683594 130.238281 228.359375 C 130.625 228.042969 131.019531 227.734375 131.433594 227.460938 C 133.089844 226.347656 134.945312 225.605469 136.835938 225.101562 C 138.726562 224.59375 140.664062 224.332031 142.597656 224.21875 C 144.535156 224.117188 146.46875 224.152344 148.402344 224.382812 C 148.539062 224.398438 148.632812 224.523438 148.617188 224.660156 C 148.601562 224.789062 148.484375 224.886719 148.355469 224.875 C 148.355469 224.875 148.347656 224.875 148.347656 224.875 Z M 148.347656 224.875 " fill-opacity="1" fill-rule="nonzero"/><path fill="#a31bd8" d="M 230.109375 226.523438 C 229.785156 221.855469 229.53125 217.183594 229.308594 212.511719 C 229.074219 207.839844 228.882812 203.167969 228.707031 198.496094 C 228.535156 193.820312 228.382812 189.148438 228.253906 184.472656 C 228.117188 179.800781 228.023438 175.125 227.980469 170.449219 C 227.886719 161.097656 228.007812 151.738281 227.839844 142.390625 C 227.800781 140.054688 227.757812 137.710938 227.671875 135.382812 C 227.652344 134.800781 227.636719 134.222656 227.605469 133.628906 C 227.582031 133.039062 227.570312 132.441406 227.617188 131.835938 C 227.664062 131.234375 227.769531 130.621094 227.976562 130.03125 C 228.179688 129.4375 228.519531 128.871094 228.976562 128.417969 C 229.429688 127.957031 229.988281 127.621094 230.570312 127.394531 C 231.15625 127.167969 231.765625 127.035156 232.371094 126.960938 C 233.582031 126.8125 234.785156 126.871094 235.972656 127 C 237.15625 127.136719 238.324219 127.359375 239.480469 127.609375 C 240.054688 127.75 240.628906 127.875 241.214844 128.039062 C 241.792969 128.210938 242.371094 128.410156 242.933594 128.644531 C 244.058594 129.132812 245.140625 129.773438 246.066406 130.621094 C 246.527344 131.039062 246.957031 131.496094 247.339844 131.988281 C 247.722656 132.484375 248.0625 133.003906 248.367188 133.542969 C 248.972656 134.625 249.421875 135.765625 249.785156 136.925781 C 250.136719 138.082031 250.398438 139.257812 250.609375 140.433594 C 251.035156 142.789062 251.234375 145.152344 251.382812 147.503906 C 251.53125 149.859375 251.589844 152.210938 251.636719 154.554688 C 251.714844 159.25 251.683594 163.929688 251.65625 168.605469 C 251.632812 173.28125 251.574219 177.957031 251.53125 182.625 C 251.4375 191.960938 251.375 201.332031 251.097656 210.683594 C 251.035156 213.023438 250.953125 215.359375 250.863281 217.699219 C 250.863281 217.699219 250.726562 221.207031 250.726562 221.207031 C 250.726562 221.207031 250.550781 224.714844 250.550781 224.714844 C 250.492188 225.882812 250.425781 227.050781 250.351562 228.222656 C 250.277344 229.390625 250.199219 230.558594 250.113281 231.726562 C 250.113281 231.726562 249.96875 233.476562 249.96875 233.476562 C 249.96875 233.476562 249.808594 235.226562 249.808594 235.226562 C 249.746094 235.8125 249.6875 236.394531 249.609375 236.976562 C 249.609375 236.976562 249.554688 237.414062 249.554688 237.414062 C 249.554688 237.414062 249.488281 237.847656 249.488281 237.847656 C 249.46875 237.996094 249.445312 238.140625 249.417969 238.285156 C 249.390625 238.433594 249.363281 238.570312 249.324219 238.730469 C 249.308594 238.789062 249.25 238.824219 249.191406 238.808594 C 249.136719 238.792969 249.101562 238.738281 249.109375 238.683594 C 249.109375 238.683594 249.113281 238.667969 249.113281 238.667969 C 249.132812 238.542969 249.152344 238.390625 249.164062 238.25 C 249.179688 238.105469 249.191406 237.960938 249.199219 237.816406 C 249.199219 237.816406 249.230469 237.378906 249.230469 237.378906 C 249.230469 237.378906 249.253906 236.945312 249.253906 236.945312 C 249.285156 236.363281 249.296875 235.777344 249.320312 235.195312 C 249.320312 235.195312 249.363281 233.445312 249.363281 233.445312 C 249.363281 233.445312 249.390625 231.691406 249.390625 231.691406 C 249.410156 230.527344 249.414062 229.355469 249.421875 228.1875 C 249.421875 228.1875 249.433594 224.683594 249.433594 224.683594 C 249.433594 224.683594 249.414062 217.675781 249.414062 217.675781 C 249.414062 217.675781 249.375 210.664062 249.375 210.664062 C 249.375 210.664062 249.261719 196.644531 249.261719 196.644531 C 249.234375 194.304688 249.21875 191.972656 249.203125 189.632812 C 249.183594 187.292969 249.1875 184.949219 249.191406 182.609375 C 249.210938 177.929688 249.273438 173.25 249.371094 168.578125 C 249.371094 168.578125 249.496094 161.570312 249.496094 161.570312 C 249.53125 159.234375 249.5625 156.902344 249.566406 154.574219 C 249.566406 152.242188 249.539062 149.917969 249.449219 147.601562 C 249.359375 145.289062 249.195312 142.980469 248.875 140.714844 C 248.710938 139.585938 248.5 138.464844 248.207031 137.378906 C 248.058594 136.835938 247.898438 136.296875 247.707031 135.773438 C 247.511719 135.253906 247.304688 134.738281 247.050781 134.246094 C 246.800781 133.757812 246.519531 133.285156 246.207031 132.839844 C 245.886719 132.398438 245.53125 131.984375 245.144531 131.601562 C 244.371094 130.832031 243.445312 130.222656 242.441406 129.738281 C 241.9375 129.503906 241.414062 129.296875 240.878906 129.117188 C 240.347656 128.941406 239.785156 128.792969 239.230469 128.636719 C 238.113281 128.339844 236.984375 128.089844 235.851562 127.921875 C 234.722656 127.761719 233.574219 127.667969 232.460938 127.769531 C 231.902344 127.828125 231.359375 127.9375 230.851562 128.125 C 230.34375 128.308594 229.875 128.578125 229.496094 128.945312 C 229.121094 129.308594 228.828125 129.761719 228.640625 130.273438 C 228.449219 130.78125 228.351562 131.332031 228.300781 131.890625 C 228.199219 133.015625 228.316406 134.179688 228.332031 135.355469 C 228.332031 135.355469 228.546875 142.371094 228.546875 142.371094 C 228.84375 151.71875 229.429688 161.058594 229.804688 170.40625 C 229.992188 175.078125 230.117188 179.753906 230.203125 184.425781 C 230.292969 189.101562 230.363281 193.777344 230.410156 198.453125 C 230.460938 203.132812 230.488281 207.808594 230.472656 212.484375 C 230.464844 217.164062 230.433594 221.839844 230.328125 226.519531 C 230.324219 226.582031 230.277344 226.628906 230.214844 226.628906 C 230.160156 226.625 230.113281 226.582031 230.109375 226.523438 Z M 230.109375 226.523438 " fill-opacity="1" fill-rule="nonzero"/><path fill="#a31bd8" d="M 138.894531 225.492188 C 138.992188 225.835938 139.066406 226.171875 139.136719 226.507812 C 139.214844 226.84375 139.269531 227.175781 139.339844 227.503906 C 139.410156 227.832031 139.464844 228.15625 139.539062 228.476562 C 139.59375 228.800781 139.675781 229.113281 139.738281 229.425781 C 139.890625 230.046875 140.050781 230.648438 140.25 231.214844 C 140.457031 231.78125 140.691406 232.300781 140.953125 232.816406 C 141.222656 233.324219 141.542969 233.832031 141.976562 234.289062 C 142.402344 234.75 142.9375 235.148438 143.523438 235.445312 C 144.113281 235.742188 144.75 235.953125 145.398438 236.117188 C 146.046875 236.28125 146.71875 236.375 147.394531 236.464844 C 148.070312 236.550781 148.75 236.628906 149.425781 236.746094 C 149.765625 236.804688 150.101562 236.867188 150.433594 236.949219 C 150.605469 236.988281 150.765625 237.023438 150.941406 237.070312 C 151.117188 237.117188 151.296875 237.164062 151.472656 237.214844 C 152.183594 237.429688 152.890625 237.714844 153.550781 238.097656 C 154.214844 238.480469 154.835938 238.964844 155.359375 239.535156 C 155.886719 240.105469 156.316406 240.757812 156.648438 241.445312 C 156.972656 242.132812 157.207031 242.851562 157.34375 243.574219 C 157.480469 244.296875 157.527344 245.023438 157.496094 245.738281 C 157.464844 246.453125 157.359375 247.15625 157.164062 247.835938 C 157.144531 247.894531 157.082031 247.929688 157.023438 247.914062 C 156.980469 247.902344 156.953125 247.871094 156.945312 247.832031 C 156.757812 247.160156 156.582031 246.507812 156.382812 245.882812 C 156.175781 245.257812 155.953125 244.652344 155.6875 244.085938 C 155.429688 243.515625 155.125 242.984375 154.796875 242.492188 C 154.457031 242.003906 154.082031 241.558594 153.671875 241.152344 C 153.257812 240.75 152.816406 240.378906 152.335938 240.042969 C 151.851562 239.707031 151.328125 239.40625 150.769531 239.160156 C 150.769531 239.160156 150.339844 238.984375 150.339844 238.984375 C 150.339844 238.984375 149.875 238.808594 149.875 238.808594 C 149.5625 238.691406 149.25 238.570312 148.9375 238.4375 C 148.625 238.3125 148.316406 238.175781 148.003906 238.035156 C 147.691406 237.902344 147.382812 237.757812 147.070312 237.617188 C 146.441406 237.339844 145.8125 237.0625 145.175781 236.816406 C 144.535156 236.574219 143.894531 236.332031 143.242188 236.089844 C 142.59375 235.84375 141.921875 235.601562 141.261719 235.261719 C 140.605469 234.921875 139.949219 234.464844 139.453125 233.855469 C 138.945312 233.257812 138.601562 232.539062 138.394531 231.816406 C 138.183594 231.09375 138.085938 230.363281 138.050781 229.648438 C 138.039062 229.289062 138.035156 228.929688 138.058594 228.578125 C 138.074219 228.402344 138.078125 228.226562 138.101562 228.050781 C 138.121094 227.875 138.144531 227.699219 138.167969 227.527344 C 138.191406 227.351562 138.222656 227.179688 138.257812 227.007812 C 138.292969 226.835938 138.328125 226.664062 138.367188 226.492188 C 138.453125 226.152344 138.558594 225.816406 138.675781 225.480469 C 138.699219 225.421875 138.765625 225.390625 138.824219 225.414062 C 138.859375 225.425781 138.886719 225.453125 138.894531 225.488281 C 138.894531 225.488281 138.894531 225.492188 138.894531 225.492188 Z M 138.894531 225.492188 " fill-opacity="1" fill-rule="nonzero"/><path fill="#a31bd8" d="M 148.304688 220.023438 C 149.542969 219.539062 150.867188 219.230469 152.253906 219.199219 C 152.945312 219.1875 153.65625 219.25 154.363281 219.425781 C 155.066406 219.613281 155.769531 219.917969 156.390625 220.367188 C 157.015625 220.820312 157.535156 221.421875 157.921875 222.078125 C 158.308594 222.738281 158.566406 223.449219 158.722656 224.160156 C 158.878906 224.871094 158.960938 225.585938 158.953125 226.289062 C 158.953125 226.289062 158.953125 226.550781 158.953125 226.550781 C 158.953125 226.550781 158.953125 226.792969 158.953125 226.792969 C 158.949219 226.953125 158.941406 227.113281 158.9375 227.277344 C 158.929688 227.601562 158.921875 227.921875 158.90625 228.242188 C 158.867188 229.53125 158.800781 230.804688 158.898438 232.054688 C 158.953125 232.675781 159.054688 233.285156 159.253906 233.859375 C 159.308594 234 159.355469 234.144531 159.421875 234.28125 C 159.492188 234.410156 159.554688 234.550781 159.628906 234.675781 C 159.714844 234.800781 159.792969 234.925781 159.882812 235.046875 C 159.984375 235.15625 160.078125 235.273438 160.179688 235.378906 C 160.605469 235.804688 161.148438 236.109375 161.730469 236.3125 C 161.875 236.375 162.027344 236.410156 162.175781 236.453125 C 162.328125 236.496094 162.476562 236.535156 162.632812 236.5625 C 162.632812 236.5625 163.097656 236.648438 163.097656 236.648438 C 163.097656 236.648438 163.570312 236.699219 163.570312 236.699219 C 164.832031 236.832031 166.125 236.722656 167.402344 236.574219 C 167.402344 236.574219 168.363281 236.445312 168.363281 236.445312 C 168.363281 236.445312 169.320312 236.300781 169.320312 236.300781 C 169.320312 236.300781 171.238281 235.988281 171.238281 235.988281 C 171.238281 235.988281 175.078125 235.355469 175.078125 235.355469 C 176.328125 235.136719 177.703125 234.898438 179.074219 234.835938 C 180.449219 234.765625 181.859375 234.851562 183.246094 235.164062 C 183.417969 235.207031 183.59375 235.242188 183.765625 235.289062 C 183.765625 235.289062 184.277344 235.445312 184.277344 235.445312 C 184.277344 235.445312 184.535156 235.527344 184.535156 235.527344 C 184.621094 235.554688 184.703125 235.589844 184.789062 235.621094 C 184.789062 235.621094 185.289062 235.820312 185.289062 235.820312 C 185.949219 236.121094 186.597656 236.449219 187.1875 236.878906 C 187.1875 236.878906 187.410156 237.035156 187.410156 237.035156 C 187.410156 237.035156 187.621094 237.203125 187.621094 237.203125 C 187.761719 237.320312 187.90625 237.429688 188.042969 237.550781 C 188.042969 237.550781 188.4375 237.925781 188.4375 237.925781 C 188.570312 238.046875 188.6875 238.1875 188.8125 238.316406 C 189.292969 238.851562 189.722656 239.429688 190.070312 240.050781 C 190.421875 240.664062 190.710938 241.304688 190.9375 241.960938 C 191.160156 242.617188 191.324219 243.285156 191.4375 243.953125 C 191.671875 245.292969 191.703125 246.644531 191.5625 247.960938 C 191.554688 248.023438 191.5 248.066406 191.441406 248.058594 C 191.390625 248.054688 191.351562 248.015625 191.34375 247.96875 C 191.105469 246.679688 190.796875 245.425781 190.355469 244.242188 C 190.136719 243.652344 189.882812 243.082031 189.597656 242.535156 C 189.308594 241.988281 188.980469 241.476562 188.621094 240.996094 C 188.261719 240.515625 187.859375 240.082031 187.425781 239.691406 C 187.3125 239.597656 187.210938 239.492188 187.09375 239.40625 C 187.09375 239.40625 186.75 239.136719 186.75 239.136719 C 186.632812 239.050781 186.507812 238.976562 186.390625 238.890625 C 186.390625 238.890625 186.210938 238.769531 186.210938 238.769531 C 186.210938 238.769531 186.023438 238.660156 186.023438 238.660156 C 185.527344 238.359375 184.992188 238.128906 184.449219 237.917969 C 184.449219 237.917969 184.035156 237.78125 184.035156 237.78125 C 183.964844 237.757812 183.894531 237.730469 183.824219 237.710938 C 183.824219 237.710938 183.613281 237.652344 183.613281 237.652344 C 183.613281 237.652344 183.1875 237.539062 183.1875 237.539062 C 183.042969 237.503906 182.894531 237.480469 182.75 237.449219 C 181.585938 237.210938 180.371094 237.125 179.140625 237.128906 C 177.898438 237.136719 176.683594 237.261719 175.355469 237.40625 C 172.75 237.695312 170.113281 237.867188 167.453125 237.773438 C 167.125 237.765625 166.789062 237.746094 166.457031 237.730469 C 166.292969 237.726562 166.125 237.710938 165.960938 237.699219 C 165.960938 237.699219 165.464844 237.664062 165.464844 237.664062 C 165.128906 237.636719 164.796875 237.605469 164.46875 237.570312 C 164.46875 237.570312 163.96875 237.503906 163.96875 237.503906 C 163.804688 237.484375 163.636719 237.460938 163.472656 237.429688 C 162.808594 237.332031 162.148438 237.160156 161.503906 236.933594 C 161.347656 236.867188 161.183594 236.816406 161.027344 236.738281 C 160.871094 236.660156 160.714844 236.589844 160.5625 236.507812 C 160.5625 236.507812 160.117188 236.226562 160.117188 236.226562 C 160.117188 236.226562 159.703125 235.898438 159.703125 235.898438 C 159.167969 235.433594 158.742188 234.84375 158.429688 234.214844 C 158.117188 233.589844 157.894531 232.929688 157.710938 232.265625 C 157.371094 230.941406 157.175781 229.601562 157.082031 228.28125 C 157.0625 227.949219 157.035156 227.621094 157.027344 227.289062 C 157.019531 227.125 157.011719 226.960938 157.007812 226.796875 C 157.007812 226.796875 157.003906 226.550781 157.003906 226.550781 C 157.003906 226.550781 156.992188 226.320312 156.992188 226.320312 C 156.980469 225.71875 156.921875 225.128906 156.816406 224.5625 C 156.601562 223.429688 156.132812 222.421875 155.332031 221.703125 C 154.925781 221.347656 154.445312 221.058594 153.910156 220.835938 C 153.371094 220.621094 152.785156 220.46875 152.175781 220.367188 C 150.957031 220.171875 149.664062 220.175781 148.351562 220.238281 C 148.289062 220.238281 148.238281 220.191406 148.234375 220.132812 C 148.234375 220.082031 148.261719 220.039062 148.304688 220.023438 Z M 148.304688 220.023438 " fill-opacity="1" fill-rule="nonzero"/><path fill="#a31bd8" d="M 228.945312 172.546875 C 227.78125 172.554688 226.617188 172.605469 225.472656 172.757812 C 224.324219 172.902344 223.191406 173.132812 222.121094 173.511719 C 221.054688 173.894531 220.042969 174.417969 219.234375 175.15625 C 218.832031 175.519531 218.480469 175.9375 218.203125 176.394531 C 218.132812 176.507812 218.074219 176.625 218.007812 176.742188 C 218.007812 176.742188 217.835938 177.105469 217.835938 177.105469 C 217.835938 177.105469 217.691406 177.480469 217.691406 177.480469 C 217.691406 177.480469 217.546875 177.890625 217.546875 177.890625 C 217.160156 178.988281 216.753906 180.085938 216.335938 181.183594 C 215.902344 182.277344 215.441406 183.375 214.851562 184.441406 C 214.699219 184.703125 214.5625 184.976562 214.382812 185.230469 C 214.207031 185.484375 214.050781 185.753906 213.847656 185.992188 C 213.648438 186.234375 213.46875 186.488281 213.242188 186.710938 C 213.023438 186.9375 212.816406 187.175781 212.570312 187.375 C 211.632812 188.222656 210.546875 188.871094 209.441406 189.382812 C 209.441406 189.382812 208.601562 189.742188 208.601562 189.742188 C 208.601562 189.742188 208.390625 189.832031 208.390625 189.832031 C 208.390625 189.832031 208.179688 189.910156 208.179688 189.910156 C 208.179688 189.910156 207.757812 190.066406 207.757812 190.066406 C 207.757812 190.066406 207.332031 190.21875 207.332031 190.21875 C 207.332031 190.21875 207.144531 190.292969 207.144531 190.292969 C 207.089844 190.3125 207.03125 190.332031 206.976562 190.355469 C 206.757812 190.449219 206.554688 190.5625 206.363281 190.6875 C 205.988281 190.945312 205.671875 191.261719 205.4375 191.648438 C 205.320312 191.839844 205.21875 192.046875 205.140625 192.265625 C 205.0625 192.484375 204.996094 192.710938 204.953125 192.949219 C 204.777344 193.898438 204.886719 194.949219 205.160156 195.957031 C 205.441406 196.96875 205.890625 197.953125 206.460938 198.859375 C 207.601562 200.675781 209.210938 202.214844 211.082031 203.238281 C 212.019531 203.75 213.019531 204.140625 214.054688 204.382812 C 214.183594 204.417969 214.3125 204.445312 214.445312 204.46875 C 214.445312 204.46875 214.882812 204.558594 214.882812 204.558594 C 215.222656 204.632812 215.574219 204.726562 215.941406 204.894531 C 216.121094 204.976562 216.308594 205.082031 216.492188 205.207031 C 216.679688 205.339844 216.859375 205.5 217.023438 205.691406 C 217.351562 206.074219 217.558594 206.589844 217.609375 207.042969 C 217.667969 207.5 217.617188 207.90625 217.546875 208.269531 C 217.472656 208.632812 217.367188 208.957031 217.253906 209.265625 C 217.023438 209.882812 216.75 210.4375 216.46875 210.976562 C 215.910156 212.046875 215.320312 213.046875 214.757812 214.050781 C 214.195312 215.050781 213.65625 216.050781 213.191406 217.066406 C 212.730469 218.082031 212.339844 219.117188 212.074219 220.160156 C 211.8125 221.207031 211.6875 222.265625 211.761719 223.296875 C 211.832031 224.332031 212.105469 225.335938 212.574219 226.269531 C 213.035156 227.199219 213.6875 228.058594 214.453125 228.828125 C 215.214844 229.601562 216.085938 230.292969 217.011719 230.917969 C 217.945312 231.535156 218.925781 232.101562 219.941406 232.609375 C 220.953125 233.121094 222.003906 233.578125 223.0625 234.011719 C 223.59375 234.222656 224.132812 234.4375 224.667969 234.625 C 224.933594 234.71875 225.199219 234.816406 225.46875 234.894531 C 225.46875 234.894531 225.875 235.019531 225.875 235.019531 C 226.007812 235.0625 226.144531 235.09375 226.28125 235.132812 C 226.417969 235.167969 226.550781 235.207031 226.6875 235.238281 C 226.6875 235.238281 227.097656 235.332031 227.097656 235.332031 C 227.371094 235.398438 227.648438 235.433594 227.921875 235.488281 C 228.476562 235.570312 229.03125 235.632812 229.585938 235.640625 C 229.863281 235.65625 230.136719 235.636719 230.414062 235.632812 C 230.6875 235.609375 230.964844 235.597656 231.238281 235.546875 C 231.511719 235.515625 231.777344 235.449219 232.046875 235.390625 C 232.046875 235.390625 232.445312 235.28125 232.445312 235.28125 C 232.578125 235.246094 232.707031 235.191406 232.835938 235.148438 C 233.351562 234.957031 233.851562 234.710938 234.320312 234.410156 C 234.78125 234.105469 235.21875 233.753906 235.625 233.363281 C 236.03125 232.976562 236.394531 232.535156 236.726562 232.074219 C 236.898438 231.847656 237.050781 231.601562 237.207031 231.363281 C 237.351562 231.117188 237.5 230.871094 237.632812 230.613281 C 238.1875 229.605469 238.601562 228.515625 238.972656 227.410156 C 238.84375 227.980469 238.710938 228.550781 238.53125 229.105469 C 238.359375 229.664062 238.164062 230.21875 237.929688 230.757812 C 237.820312 231.03125 237.683594 231.292969 237.554688 231.558594 C 237.414062 231.820312 237.277344 232.082031 237.121094 232.332031 C 236.808594 232.839844 236.464844 233.332031 236.066406 233.78125 C 235.667969 234.230469 235.226562 234.648438 234.738281 235.015625 C 234.25 235.378906 233.714844 235.683594 233.15625 235.933594 C 233.015625 235.992188 232.875 236.058594 232.730469 236.109375 C 232.730469 236.109375 232.296875 236.261719 232.296875 236.261719 C 232.003906 236.347656 231.710938 236.4375 231.410156 236.492188 C 231.109375 236.566406 230.808594 236.601562 230.503906 236.648438 C 230.199219 236.671875 229.894531 236.710938 229.589844 236.714844 C 227.148438 236.800781 224.769531 236.121094 222.558594 235.355469 C 221.445312 234.96875 220.339844 234.535156 219.257812 234.042969 C 218.171875 233.550781 217.105469 233 216.078125 232.363281 C 215.054688 231.722656 214.066406 230.996094 213.164062 230.140625 C 212.265625 229.285156 211.460938 228.289062 210.859375 227.152344 C 210.554688 226.589844 210.308594 225.988281 210.117188 225.367188 C 209.933594 224.746094 209.8125 224.105469 209.753906 223.460938 C 209.640625 222.171875 209.773438 220.890625 210.058594 219.675781 C 210.335938 218.457031 210.769531 217.304688 211.257812 216.195312 C 211.746094 215.089844 212.300781 214.03125 212.867188 213 C 213.433594 211.972656 214.023438 210.964844 214.539062 209.972656 C 214.792969 209.476562 215.03125 208.984375 215.207031 208.507812 C 215.292969 208.273438 215.363281 208.042969 215.402344 207.835938 C 215.445312 207.628906 215.453125 207.445312 215.4375 207.324219 C 215.421875 207.203125 215.394531 207.160156 215.351562 207.097656 C 215.324219 207.066406 215.285156 207.03125 215.234375 206.992188 C 215.179688 206.957031 215.113281 206.914062 215.03125 206.878906 C 214.871094 206.800781 214.65625 206.738281 214.425781 206.6875 C 214.425781 206.6875 214.011719 206.601562 214.011719 206.601562 C 213.855469 206.574219 213.703125 206.539062 213.546875 206.5 C 212.320312 206.203125 211.132812 205.742188 210.035156 205.125 C 207.84375 203.886719 205.988281 202.089844 204.695312 199.941406 C 204.050781 198.871094 203.539062 197.707031 203.21875 196.46875 C 203.066406 195.847656 202.953125 195.210938 202.921875 194.554688 C 202.886719 193.902344 202.925781 193.234375 203.070312 192.566406 C 203.136719 192.234375 203.238281 191.902344 203.367188 191.578125 C 203.496094 191.253906 203.660156 190.933594 203.855469 190.636719 C 204.242188 190.039062 204.773438 189.523438 205.371094 189.148438 C 205.671875 188.960938 205.988281 188.808594 206.308594 188.683594 C 206.390625 188.652344 206.472656 188.625 206.550781 188.597656 C 206.550781 188.597656 206.773438 188.523438 206.773438 188.523438 C 206.773438 188.523438 207.175781 188.390625 207.175781 188.390625 C 207.175781 188.390625 207.574219 188.257812 207.574219 188.257812 C 207.574219 188.257812 207.773438 188.191406 207.773438 188.191406 C 207.773438 188.191406 207.96875 188.117188 207.96875 188.117188 C 207.96875 188.117188 208.746094 187.816406 208.746094 187.816406 C 209.761719 187.378906 210.714844 186.859375 211.535156 186.179688 C 212.355469 185.503906 213.035156 184.660156 213.621094 183.714844 C 214.785156 181.820312 215.636719 179.636719 216.550781 177.503906 C 216.550781 177.503906 216.722656 177.101562 216.722656 177.101562 C 216.722656 177.101562 216.917969 176.675781 216.917969 176.675781 C 216.917969 176.675781 217.148438 176.261719 217.148438 176.261719 C 217.234375 176.128906 217.316406 175.996094 217.40625 175.867188 C 217.765625 175.351562 218.207031 174.898438 218.6875 174.511719 C 219.660156 173.738281 220.792969 173.242188 221.941406 172.9375 C 224.253906 172.324219 226.628906 172.324219 228.945312 172.546875 Z M 228.945312 172.546875 " fill-opacity="1" fill-rule="nonzero"/><path fill="#a31bd8" d="M 229.1875 182.527344 C 227.820312 182.949219 226.484375 183.351562 225.222656 183.878906 C 224.589844 184.144531 223.976562 184.4375 223.390625 184.761719 C 222.808594 185.097656 222.246094 185.453125 221.707031 185.84375 C 221.175781 186.238281 220.652344 186.664062 220.203125 187.171875 C 219.746094 187.675781 219.363281 188.253906 219.097656 188.890625 C 218.828125 189.527344 218.671875 190.207031 218.601562 190.894531 C 218.542969 191.582031 218.578125 192.285156 218.65625 192.972656 C 218.742188 193.65625 218.890625 194.324219 219.074219 194.972656 C 219.261719 195.617188 219.480469 196.246094 219.777344 196.835938 C 220.367188 198.023438 221.210938 199.039062 222.203125 199.882812 C 223.195312 200.734375 224.363281 201.402344 225.628906 201.886719 C 226.261719 202.132812 226.917969 202.328125 227.589844 202.492188 C 228.265625 202.648438 228.957031 202.765625 229.664062 202.863281 C 229.699219 202.867188 229.726562 202.902344 229.722656 202.941406 C 229.71875 202.972656 229.695312 202.996094 229.667969 203 C 228.960938 203.144531 228.234375 203.199219 227.503906 203.183594 C 226.773438 203.175781 226.039062 203.085938 225.316406 202.921875 C 223.875 202.597656 222.464844 201.964844 221.273438 201.007812 C 220.082031 200.058594 219.164062 198.765625 218.597656 197.367188 C 218.3125 196.667969 218.101562 195.941406 218 195.203125 C 217.964844 195.019531 217.953125 194.832031 217.933594 194.648438 C 217.933594 194.648438 217.910156 194.371094 217.910156 194.371094 C 217.902344 194.28125 217.902344 194.1875 217.898438 194.097656 C 217.894531 193.910156 217.882812 193.726562 217.890625 193.542969 C 217.890625 193.542969 217.90625 192.996094 217.90625 192.996094 C 217.933594 192.632812 217.953125 192.269531 218.003906 191.910156 C 218.027344 191.730469 218.035156 191.550781 218.066406 191.371094 C 218.09375 191.191406 218.121094 191.015625 218.144531 190.835938 C 218.269531 190.121094 218.449219 189.417969 218.683594 188.734375 C 218.921875 188.046875 219.214844 187.371094 219.589844 186.730469 C 219.96875 186.089844 220.425781 185.480469 220.976562 184.96875 C 221.523438 184.449219 222.152344 184.027344 222.816406 183.691406 C 223.476562 183.347656 224.167969 183.082031 224.871094 182.875 C 225.574219 182.667969 226.289062 182.527344 227.007812 182.445312 C 227.730469 182.363281 228.453125 182.339844 229.171875 182.390625 C 229.210938 182.394531 229.242188 182.429688 229.238281 182.46875 C 229.234375 182.496094 229.214844 182.519531 229.1875 182.527344 Z M 229.1875 182.527344 " fill-opacity="1" fill-rule="nonzero"/><path fill="#a31bd8" d="M 177.453125 138.363281 C 177.773438 139.335938 177.964844 140.34375 178.070312 141.371094 C 178.164062 142.398438 178.164062 143.445312 178.015625 144.5 C 178.015625 144.5 177.957031 144.894531 177.957031 144.894531 C 177.957031 144.894531 177.875 145.289062 177.875 145.289062 C 177.851562 145.421875 177.816406 145.550781 177.785156 145.683594 C 177.75 145.816406 177.71875 145.945312 177.675781 146.078125 C 177.519531 146.597656 177.316406 147.117188 177.046875 147.613281 C 176.539062 148.617188 175.714844 149.523438 174.703125 150.101562 C 174.191406 150.378906 173.652344 150.589844 173.101562 150.710938 C 172.554688 150.824219 172.003906 150.894531 171.464844 150.886719 C 171.335938 150.886719 171.191406 150.890625 171.070312 150.882812 C 171.070312 150.882812 170.695312 150.875 170.695312 150.875 C 170.449219 150.867188 170.199219 150.867188 169.949219 150.867188 C 169.453125 150.867188 168.960938 150.886719 168.46875 150.933594 C 167.488281 151.015625 166.511719 151.203125 165.625 151.550781 C 165.183594 151.726562 164.773438 151.957031 164.425781 152.246094 C 164.074219 152.53125 163.789062 152.875 163.550781 153.253906 C 163.316406 153.636719 163.128906 154.054688 162.957031 154.488281 C 162.957031 154.488281 162.835938 154.820312 162.835938 154.820312 C 162.835938 154.820312 162.722656 155.15625 162.722656 155.15625 C 162.644531 155.378906 162.578125 155.613281 162.503906 155.839844 C 162.503906 155.839844 161.65625 158.664062 161.65625 158.664062 C 161.375 159.621094 161.097656 160.582031 160.792969 161.539062 C 160.714844 161.78125 160.644531 162.011719 160.558594 162.261719 C 160.460938 162.519531 160.371094 162.78125 160.257812 163.039062 C 160.152344 163.296875 160.019531 163.542969 159.890625 163.792969 C 159.824219 163.917969 159.75 164.039062 159.679688 164.160156 C 159.679688 164.160156 159.570312 164.339844 159.570312 164.339844 C 159.570312 164.339844 159.449219 164.515625 159.449219 164.515625 C 159.136719 164.988281 158.769531 165.429688 158.355469 165.824219 C 157.949219 166.222656 157.503906 166.585938 157.023438 166.886719 C 156.070312 167.496094 155.019531 167.902344 153.960938 168.117188 C 152.902344 168.335938 151.835938 168.394531 150.800781 168.320312 C 149.761719 168.246094 148.75 168.0625 147.773438 167.761719 C 147.714844 167.746094 147.683594 167.683594 147.699219 167.625 C 147.714844 167.578125 147.753906 167.550781 147.796875 167.546875 C 148.804688 167.464844 149.789062 167.367188 150.742188 167.195312 C 151.699219 167.03125 152.621094 166.789062 153.476562 166.457031 C 154.335938 166.125 155.117188 165.683594 155.796875 165.148438 C 156.472656 164.605469 157.039062 163.964844 157.492188 163.234375 C 157.722656 162.871094 157.929688 162.488281 158.109375 162.085938 C 158.207031 161.890625 158.28125 161.679688 158.367188 161.476562 C 158.367188 161.476562 158.625 160.785156 158.625 160.785156 C 158.625 160.785156 159.699219 158 159.699219 158 C 160.058594 157.066406 160.417969 156.121094 160.867188 155.191406 C 161.09375 154.726562 161.335938 154.265625 161.621094 153.8125 C 161.90625 153.355469 162.230469 152.914062 162.609375 152.511719 C 162.984375 152.105469 163.433594 151.753906 163.90625 151.480469 C 164.378906 151.207031 164.878906 151.003906 165.378906 150.855469 C 166.378906 150.554688 167.382812 150.402344 168.378906 150.230469 C 168.378906 150.230469 169.125 150.105469 169.125 150.105469 C 169.125 150.105469 169.867188 149.972656 169.867188 149.972656 C 169.867188 149.972656 170.613281 149.835938 170.613281 149.835938 C 170.613281 149.835938 170.984375 149.765625 170.984375 149.765625 C 171.109375 149.742188 171.214844 149.710938 171.332031 149.6875 C 171.785156 149.585938 172.214844 149.421875 172.613281 149.242188 C 172.710938 149.1875 172.808594 149.136719 172.90625 149.089844 C 173.003906 149.046875 173.09375 148.980469 173.183594 148.925781 C 173.183594 148.925781 173.324219 148.84375 173.324219 148.84375 C 173.367188 148.816406 173.410156 148.78125 173.453125 148.753906 C 173.535156 148.6875 173.625 148.632812 173.707031 148.570312 C 174.363281 148.050781 174.902344 147.421875 175.34375 146.671875 C 175.558594 146.296875 175.753906 145.898438 175.914062 145.472656 C 176.082031 145.054688 176.222656 144.617188 176.34375 144.164062 C 176.589844 143.261719 176.757812 142.316406 176.894531 141.347656 C 177.03125 140.382812 177.125 139.394531 177.234375 138.386719 C 177.242188 138.324219 177.296875 138.277344 177.359375 138.285156 C 177.402344 138.289062 177.4375 138.320312 177.453125 138.363281 Z M 177.453125 138.363281 " fill-opacity="1" fill-rule="nonzero"/><path fill="#a31bd8" d="M 195.339844 138.082031 C 195.769531 139.769531 196.039062 141.507812 196.054688 143.292969 C 196.054688 143.738281 196.039062 144.1875 196 144.640625 C 195.957031 145.089844 195.894531 145.546875 195.792969 146.003906 C 195.6875 146.457031 195.554688 146.917969 195.355469 147.367188 C 195.160156 147.820312 194.902344 148.261719 194.558594 148.667969 C 194.222656 149.070312 193.789062 149.429688 193.296875 149.679688 C 192.804688 149.9375 192.269531 150.078125 191.746094 150.132812 C 191.746094 150.132812 191.550781 150.152344 191.550781 150.152344 C 191.550781 150.152344 191.460938 150.160156 191.460938 150.160156 C 191.460938 150.160156 191.386719 150.167969 191.386719 150.167969 C 191.386719 150.167969 191.078125 150.191406 191.078125 150.191406 C 190.871094 150.203125 190.667969 150.230469 190.460938 150.25 C 190.460938 150.25 189.855469 150.324219 189.855469 150.324219 C 189.65625 150.359375 189.453125 150.382812 189.257812 150.425781 C 188.46875 150.570312 187.707031 150.78125 187.027344 151.082031 C 186.6875 151.230469 186.367188 151.40625 186.082031 151.605469 C 185.800781 151.808594 185.550781 152.039062 185.339844 152.296875 C 185.132812 152.558594 184.957031 152.847656 184.828125 153.171875 C 184.695312 153.496094 184.613281 153.851562 184.558594 154.222656 C 184.507812 154.597656 184.496094 154.988281 184.515625 155.386719 C 184.539062 155.8125 184.5625 156.261719 184.566406 156.703125 C 184.578125 157.589844 184.550781 158.488281 184.425781 159.375 C 184.363281 159.820312 184.28125 160.265625 184.152344 160.703125 C 184.035156 161.140625 183.875 161.570312 183.675781 161.984375 C 183.265625 162.800781 182.648438 163.546875 181.855469 164.035156 C 181.464844 164.277344 181.042969 164.476562 180.605469 164.609375 C 180.390625 164.691406 180.167969 164.726562 179.945312 164.785156 C 179.835938 164.8125 179.722656 164.828125 179.613281 164.847656 C 179.5 164.863281 179.390625 164.890625 179.277344 164.898438 C 178.386719 165.015625 177.464844 164.964844 176.632812 164.957031 C 175.78125 164.945312 174.933594 164.984375 174.09375 165.058594 C 173.257812 165.140625 172.429688 165.265625 171.636719 165.457031 C 171.242188 165.550781 170.855469 165.671875 170.488281 165.808594 C 170.113281 165.9375 169.765625 166.101562 169.441406 166.285156 C 169.121094 166.46875 168.832031 166.679688 168.585938 166.910156 C 168.34375 167.144531 168.148438 167.402344 168.007812 167.679688 C 167.867188 167.957031 167.777344 168.261719 167.734375 168.585938 C 167.691406 168.910156 167.703125 169.257812 167.746094 169.609375 C 167.746094 169.609375 167.765625 169.742188 167.765625 169.742188 C 167.765625 169.742188 167.789062 169.898438 167.789062 169.898438 C 167.789062 169.898438 167.839844 170.207031 167.839844 170.207031 C 167.839844 170.207031 167.949219 170.839844 167.949219 170.839844 C 167.949219 170.839844 168.167969 172.125 168.167969 172.125 C 168.304688 172.992188 168.429688 173.871094 168.5 174.773438 C 168.574219 175.675781 168.59375 176.597656 168.503906 177.542969 C 168.480469 177.78125 168.460938 178.015625 168.414062 178.257812 C 168.394531 178.375 168.375 178.496094 168.351562 178.617188 C 168.351562 178.617188 168.269531 178.976562 168.269531 178.976562 C 168.269531 178.976562 168.230469 179.15625 168.230469 179.15625 C 168.214844 179.21875 168.195312 179.277344 168.175781 179.339844 C 168.175781 179.339844 168.066406 179.699219 168.066406 179.699219 C 168.027344 179.820312 167.976562 179.941406 167.929688 180.0625 C 167.878906 180.179688 167.839844 180.300781 167.773438 180.417969 C 167.65625 180.652344 167.539062 180.890625 167.382812 181.113281 C 167.382812 181.113281 167.273438 181.285156 167.273438 181.285156 C 167.238281 181.339844 167.199219 181.394531 167.152344 181.449219 C 167.152344 181.449219 166.890625 181.765625 166.890625 181.765625 C 166.808594 181.875 166.699219 181.964844 166.605469 182.0625 C 166.5 182.15625 166.410156 182.261719 166.296875 182.34375 C 166.070312 182.507812 165.855469 182.683594 165.609375 182.804688 C 165.488281 182.871094 165.371094 182.941406 165.25 183 C 165.25 183 164.875 183.152344 164.875 183.152344 C 164.628906 183.265625 164.375 183.316406 164.121094 183.390625 C 164.058594 183.40625 163.996094 183.425781 163.933594 183.4375 C 163.933594 183.4375 163.746094 183.46875 163.746094 183.46875 C 163.746094 183.46875 163.367188 183.527344 163.367188 183.527344 C 163.242188 183.550781 163.121094 183.554688 162.996094 183.5625 C 162.996094 183.5625 162.625 183.582031 162.625 183.582031 C 161.648438 183.609375 160.714844 183.46875 159.816406 183.285156 C 158.953125 183.085938 158.09375 182.863281 157.25 182.597656 C 156.410156 182.328125 155.578125 182.035156 154.761719 181.707031 C 153.945312 181.378906 153.148438 181.019531 152.359375 180.632812 C 150.789062 179.863281 149.277344 178.992188 147.84375 178.003906 C 147.792969 177.96875 147.78125 177.902344 147.816406 177.851562 C 147.847656 177.808594 147.902344 177.792969 147.949219 177.8125 C 149.554688 178.460938 151.160156 179.0625 152.78125 179.597656 C 153.59375 179.859375 154.410156 180.101562 155.226562 180.328125 C 156.046875 180.550781 156.867188 180.746094 157.691406 180.925781 C 158.515625 181.09375 159.34375 181.246094 160.171875 181.363281 C 160.96875 181.46875 161.761719 181.519531 162.507812 181.457031 C 163.25 181.390625 163.925781 181.203125 164.457031 180.867188 C 164.597656 180.792969 164.703125 180.679688 164.828125 180.589844 C 164.859375 180.566406 164.886719 180.539062 164.910156 180.511719 C 164.910156 180.511719 164.992188 180.425781 164.992188 180.425781 C 165.042969 180.371094 165.105469 180.324219 165.148438 180.257812 C 165.148438 180.257812 165.292969 180.074219 165.292969 180.074219 C 165.320312 180.042969 165.339844 180.011719 165.359375 179.972656 C 165.359375 179.972656 165.421875 179.871094 165.421875 179.871094 C 165.460938 179.800781 165.515625 179.738281 165.546875 179.660156 C 165.546875 179.660156 165.652344 179.433594 165.652344 179.433594 C 165.933594 178.820312 166.085938 178.082031 166.167969 177.316406 C 166.25 176.546875 166.246094 175.738281 166.210938 174.917969 C 166.171875 174.097656 166.09375 173.265625 165.996094 172.425781 C 165.996094 172.425781 165.839844 171.152344 165.839844 171.152344 C 165.839844 171.152344 165.761719 170.503906 165.761719 170.503906 C 165.761719 170.503906 165.722656 170.175781 165.722656 170.175781 C 165.722656 170.175781 165.703125 170.007812 165.703125 170.007812 C 165.703125 170.007812 165.6875 169.820312 165.6875 169.820312 C 165.648438 169.316406 165.65625 168.792969 165.75 168.265625 C 165.847656 167.742188 166.03125 167.210938 166.308594 166.738281 C 166.585938 166.261719 166.949219 165.84375 167.355469 165.511719 C 167.761719 165.175781 168.203125 164.917969 168.648438 164.714844 C 169.546875 164.304688 170.464844 164.101562 171.367188 163.984375 C 172.273438 163.863281 173.167969 163.84375 174.050781 163.863281 C 174.9375 163.875 175.8125 163.949219 176.683594 164.027344 C 177.117188 164.070312 177.558594 164.128906 177.964844 164.160156 C 178.378906 164.191406 178.792969 164.195312 179.203125 164.167969 C 179.304688 164.164062 179.40625 164.144531 179.507812 164.132812 C 179.609375 164.121094 179.710938 164.113281 179.8125 164.09375 C 180.011719 164.050781 180.214844 164.019531 180.40625 163.953125 C 180.796875 163.851562 181.164062 163.679688 181.507812 163.476562 C 181.851562 163.273438 182.148438 163.003906 182.40625 162.699219 C 182.664062 162.398438 182.871094 162.050781 183.035156 161.683594 C 183.355469 160.941406 183.503906 160.121094 183.53125 159.296875 C 183.566406 158.46875 183.488281 157.632812 183.363281 156.800781 C 183.300781 156.382812 183.226562 155.976562 183.144531 155.550781 C 183.0625 155.089844 183.011719 154.617188 183.011719 154.128906 C 183.011719 153.644531 183.070312 153.140625 183.207031 152.644531 C 183.347656 152.148438 183.5625 151.660156 183.863281 151.226562 C 184.15625 150.785156 184.523438 150.402344 184.925781 150.082031 C 185.328125 149.761719 185.765625 149.507812 186.207031 149.300781 C 186.652344 149.089844 187.109375 148.929688 187.5625 148.800781 C 187.789062 148.738281 188.015625 148.675781 188.242188 148.632812 C 188.242188 148.632812 188.585938 148.5625 188.585938 148.5625 C 188.585938 148.5625 188.925781 148.503906 188.925781 148.503906 C 189.152344 148.464844 189.378906 148.441406 189.605469 148.410156 C 189.832031 148.382812 190.058594 148.359375 190.285156 148.34375 C 190.511719 148.332031 190.734375 148.3125 190.960938 148.304688 C 190.960938 148.304688 191.296875 148.292969 191.296875 148.292969 C 191.296875 148.292969 191.378906 148.292969 191.378906 148.292969 C 191.378906 148.292969 191.421875 148.289062 191.421875 148.289062 C 191.421875 148.289062 191.453125 148.289062 191.453125 148.289062 C 191.453125 148.289062 191.582031 148.277344 191.582031 148.277344 C 191.914062 148.257812 192.230469 148.199219 192.515625 148.070312 C 192.796875 147.945312 193.058594 147.761719 193.292969 147.527344 C 193.761719 147.050781 194.117188 146.363281 194.363281 145.613281 C 194.429688 145.425781 194.480469 145.230469 194.535156 145.039062 C 194.585938 144.84375 194.632812 144.644531 194.675781 144.445312 C 194.761719 144.042969 194.828125 143.632812 194.882812 143.21875 C 195.101562 141.558594 195.125 139.839844 195.121094 138.109375 C 195.121094 138.050781 195.171875 138 195.230469 138 C 195.285156 138 195.328125 138.035156 195.339844 138.082031 Z M 195.339844 138.082031 " fill-opacity="1" fill-rule="nonzero"/><path fill="#a31bd8" d="M 213.660156 151.277344 C 212.9375 153.179688 212.097656 155.019531 211.222656 156.839844 C 210.339844 158.660156 209.414062 160.453125 208.445312 162.222656 C 207.476562 163.992188 206.464844 165.738281 205.410156 167.460938 C 204.347656 169.179688 203.25 170.878906 202.03125 172.511719 C 202.75 170.605469 203.589844 168.765625 204.464844 166.945312 C 205.347656 165.125 206.273438 163.332031 207.246094 161.566406 C 208.214844 159.796875 209.226562 158.046875 210.28125 156.328125 C 211.34375 154.609375 212.441406 152.910156 213.660156 151.277344 Z M 213.660156 151.277344 " fill-opacity="1" fill-rule="nonzero"/><path fill="#a31bd8" d="M 199.292969 154.148438 C 200.871094 155.167969 202.359375 156.289062 203.820312 157.441406 C 205.28125 158.597656 206.703125 159.792969 208.09375 161.023438 C 209.484375 162.253906 210.84375 163.519531 212.167969 164.828125 C 213.488281 166.136719 214.78125 167.480469 215.984375 168.921875 C 214.40625 167.90625 212.917969 166.785156 211.457031 165.632812 C 210 164.476562 208.578125 163.28125 207.1875 162.046875 C 205.796875 160.816406 204.4375 159.550781 203.113281 158.242188 C 201.789062 156.933594 200.496094 155.59375 199.292969 154.148438 Z M 199.292969 154.148438 " fill-opacity="1" fill-rule="nonzero"/><path fill="#a31bd8" d="M 196.96875 167.007812 C 196.660156 167.535156 196.277344 167.941406 195.875 168.320312 C 195.472656 168.691406 195.035156 169.011719 194.578125 169.300781 C 194.117188 169.585938 193.636719 169.832031 193.125 170.03125 C 192.609375 170.222656 192.074219 170.386719 191.464844 170.429688 C 191.773438 169.898438 192.15625 169.492188 192.558594 169.117188 C 192.960938 168.742188 193.398438 168.421875 193.855469 168.136719 C 194.316406 167.855469 194.796875 167.605469 195.308594 167.40625 C 195.824219 167.214844 196.359375 167.050781 196.96875 167.007812 Z M 196.96875 167.007812 " fill-opacity="1" fill-rule="nonzero"/><path fill="#a31bd8" d="M 188.898438 171.386719 C 188.753906 171.964844 188.507812 172.449219 188.234375 172.910156 C 187.957031 173.367188 187.632812 173.785156 187.28125 174.171875 C 186.929688 174.558594 186.542969 174.917969 186.113281 175.238281 C 185.679688 175.550781 185.222656 175.84375 184.65625 176.039062 C 184.796875 175.457031 185.042969 174.972656 185.320312 174.511719 C 185.597656 174.054688 185.917969 173.636719 186.269531 173.25 C 186.625 172.863281 187.011719 172.503906 187.441406 172.1875 C 187.875 171.871094 188.332031 171.582031 188.898438 171.386719 Z M 188.898438 171.386719 " fill-opacity="1" fill-rule="nonzero"/><path fill="#a31bd8" d="M 184.65625 179.046875 C 184.941406 179.503906 185.085938 179.960938 185.191406 180.414062 C 185.296875 180.871094 185.339844 181.328125 185.339844 181.785156 C 185.339844 182.238281 185.296875 182.695312 185.195312 183.152344 C 185.085938 183.605469 184.945312 184.0625 184.65625 184.519531 C 184.367188 184.0625 184.226562 183.605469 184.117188 183.152344 C 184.015625 182.695312 183.972656 182.238281 183.972656 181.785156 C 183.972656 181.328125 184.015625 180.871094 184.121094 180.414062 C 184.226562 179.960938 184.371094 179.503906 184.65625 179.046875 Z M 184.65625 179.046875 " fill-opacity="1" fill-rule="nonzero"/><path fill="#a31bd8" d="M 186.160156 189.40625 C 186.710938 189.5625 187.15625 189.820312 187.574219 190.105469 C 187.992188 190.390625 188.363281 190.714844 188.707031 191.070312 C 189.046875 191.429688 189.359375 191.816406 189.628906 192.242188 C 189.890625 192.671875 190.128906 193.128906 190.265625 193.683594 C 189.714844 193.527344 189.269531 193.269531 188.851562 192.988281 C 188.433594 192.703125 188.0625 192.375 187.71875 192.019531 C 187.378906 191.660156 187.066406 191.273438 186.800781 190.847656 C 186.535156 190.414062 186.296875 189.960938 186.160156 189.40625 Z M 186.160156 189.40625 " fill-opacity="1" fill-rule="nonzero"/><path fill="#a31bd8" d="M 192.589844 198.199219 C 193.183594 198.199219 193.710938 198.324219 194.21875 198.484375 C 194.722656 198.644531 195.199219 198.855469 195.65625 199.105469 C 196.113281 199.355469 196.546875 199.644531 196.953125 199.984375 C 197.359375 200.332031 197.746094 200.707031 198.0625 201.210938 C 197.46875 201.210938 196.941406 201.085938 196.4375 200.929688 C 195.929688 200.769531 195.453125 200.554688 194.996094 200.304688 C 194.542969 200.050781 194.105469 199.761719 193.699219 199.421875 C 193.296875 199.078125 192.910156 198.699219 192.589844 198.199219 Z M 192.589844 198.199219 " fill-opacity="1" fill-rule="nonzero"/><path fill="#a31bd8" d="M 199.292969 205.449219 C 199.632812 205.847656 199.832031 206.261719 199.996094 206.679688 C 200.15625 207.101562 200.253906 207.527344 200.3125 207.960938 C 200.371094 208.394531 200.386719 208.832031 200.339844 209.28125 C 200.292969 209.726562 200.207031 210.179688 199.976562 210.648438 C 199.636719 210.253906 199.4375 209.839844 199.273438 209.417969 C 199.113281 209 199.015625 208.570312 198.957031 208.140625 C 198.902344 207.707031 198.886719 207.265625 198.933594 206.820312 C 198.984375 206.371094 199.066406 205.921875 199.292969 205.449219 Z M 199.292969 205.449219 " fill-opacity="1" fill-rule="nonzero"/><path fill="#a31bd8" d="M 198.0625 213.933594 C 198.105469 214.484375 198.019531 214.96875 197.902344 215.441406 C 197.78125 215.90625 197.605469 216.347656 197.394531 216.773438 C 197.179688 217.195312 196.929688 217.597656 196.625 217.972656 C 196.316406 218.34375 195.972656 218.703125 195.503906 218.996094 C 195.460938 218.441406 195.546875 217.957031 195.664062 217.488281 C 195.785156 217.019531 195.960938 216.578125 196.171875 216.15625 C 196.386719 215.734375 196.640625 215.332031 196.945312 214.957031 C 197.253906 214.582031 197.59375 214.226562 198.0625 213.933594 Z M 198.0625 213.933594 " fill-opacity="1" fill-rule="nonzero"/><path fill="#a31bd8" d="M 192.589844 223.644531 C 192.234375 224.140625 191.8125 224.507812 191.375 224.84375 C 190.9375 225.175781 190.46875 225.453125 189.988281 225.695312 C 189.503906 225.933594 189 226.136719 188.46875 226.28125 C 187.9375 226.425781 187.386719 226.535156 186.777344 226.519531 C 187.132812 226.023438 187.554688 225.652344 187.992188 225.316406 C 188.429688 224.984375 188.894531 224.707031 189.378906 224.46875 C 189.867188 224.230469 190.371094 224.03125 190.898438 223.882812 C 191.433594 223.738281 191.980469 223.628906 192.589844 223.644531 Z M 192.589844 223.644531 " fill-opacity="1" fill-rule="nonzero"/><path fill="#a31bd8" d="M 183.425781 227.75 C 182.742188 228.035156 182.058594 228.179688 181.371094 228.285156 C 180.6875 228.386719 180.003906 228.433594 179.320312 228.433594 C 178.636719 228.433594 177.953125 228.386719 177.269531 228.289062 C 176.585938 228.179688 175.902344 228.039062 175.214844 227.75 C 175.902344 227.460938 176.585938 227.320312 177.269531 227.210938 C 177.953125 227.113281 178.636719 227.066406 179.320312 227.066406 C 180.003906 227.066406 180.6875 227.113281 181.371094 227.214844 C 182.058594 227.320312 182.742188 227.464844 183.425781 227.75 Z M 183.425781 227.75 " fill-opacity="1" fill-rule="nonzero"/><path fill="#a31bd8" d="M 147.433594 138.835938 C 154.148438 138.277344 160.863281 137.9375 167.582031 137.667969 C 174.300781 137.402344 181.019531 137.222656 187.738281 137.117188 C 194.457031 137.011719 201.179688 136.984375 207.902344 137.042969 C 214.625 137.105469 221.347656 137.238281 228.074219 137.59375 C 221.359375 138.152344 214.644531 138.492188 207.925781 138.761719 C 201.210938 139.027344 194.492188 139.203125 187.773438 139.308594 C 181.050781 139.410156 174.332031 139.4375 167.609375 139.382812 C 160.886719 139.316406 154.164062 139.183594 147.433594 138.835938 Z M 147.433594 138.835938 " fill-opacity="1" fill-rule="nonzero"/><path stroke-linecap="butt" transform="matrix(0.136806, 0, 0, 0.136806, 169.697278, 208.082389)" fill-opacity="1" fill="#ffac3e" fill-rule="nonzero" stroke-linejoin="miter" d="M -36.162846 -153.248173 C -36.162846 -153.248173 -89.643176 -105.335736 -89.643176 -105.335736 C -89.643176 -105.335736 -93.583532 -32.838908 -93.583532 -32.838908 C -93.583532 -32.838908 -50.153963 79.661093 -50.153963 79.661093 C -50.153963 79.661093 0.356825 155.669977 0.356825 155.669977 C 0.356825 155.669977 45.842231 88.912362 45.842231 88.912362 C 45.842231 88.912362 83.332714 6.421879 83.332714 6.421879 C 83.332714 6.421879 93.583348 -56.338274 93.583348 -56.338274 C 93.583348 -56.338274 81.276876 -101.937893 81.276876 -101.937893 C 81.276876 -101.937893 61.004033 -131.319239 61.004033 -131.319239 C 61.004033 -131.319239 24.170277 -149.67901 24.170277 -149.67901 C 24.170277 -149.67901 -20.658404 -155.675203 -20.658404 -155.675203 C -20.658404 -155.675203 -36.162846 -153.248173 -36.162846 -153.248173 Z M -36.162846 -153.248173 " stroke="#a31bd8" stroke-width="1" stroke-opacity="1" stroke-miterlimit="10"/><path fill="#a31bd8" d="M 169.746094 229.28125 C 169.738281 229.265625 169.71875 229.257812 169.710938 229.261719 C 169.695312 229.269531 169.71875 229.246094 169.722656 229.234375 C 169.722656 229.234375 169.777344 229.144531 169.777344 229.144531 C 169.777344 229.144531 169.886719 228.96875 169.886719 228.96875 C 169.886719 228.96875 170.105469 228.621094 170.105469 228.621094 C 170.105469 228.621094 170.539062 227.914062 170.539062 227.914062 C 170.828125 227.449219 171.109375 226.976562 171.394531 226.503906 C 171.960938 225.5625 172.511719 224.609375 173.058594 223.660156 C 174.136719 221.75 175.1875 219.828125 176.15625 217.871094 C 177.128906 215.917969 178.035156 213.9375 178.835938 211.921875 C 179.621094 209.902344 180.316406 207.855469 180.851562 205.777344 C 180.890625 205.644531 180.921875 205.515625 180.949219 205.386719 C 180.949219 205.386719 181.039062 204.992188 181.039062 204.992188 C 181.097656 204.730469 181.164062 204.472656 181.214844 204.207031 C 181.214844 204.207031 181.359375 203.417969 181.359375 203.417969 C 181.382812 203.285156 181.410156 203.15625 181.429688 203.023438 C 181.429688 203.023438 181.480469 202.625 181.480469 202.625 C 181.480469 202.625 181.585938 201.828125 181.585938 201.828125 C 181.585938 201.828125 181.644531 201.03125 181.644531 201.03125 C 181.644531 201.03125 181.671875 200.632812 181.671875 200.632812 C 181.671875 200.632812 181.671875 200.230469 181.671875 200.230469 C 181.671875 200.230469 181.675781 199.429688 181.675781 199.429688 C 181.675781 199.429688 181.617188 198.632812 181.617188 198.632812 C 181.605469 198.5 181.601562 198.367188 181.585938 198.234375 C 181.585938 198.234375 181.523438 197.835938 181.523438 197.835938 C 181.476562 197.574219 181.445312 197.304688 181.390625 197.042969 C 181.390625 197.042969 181.210938 196.257812 181.210938 196.257812 C 180.929688 195.222656 180.539062 194.214844 180.003906 193.285156 C 178.929688 191.417969 177.261719 189.921875 175.324219 188.992188 C 175.089844 188.867188 174.835938 188.773438 174.589844 188.664062 C 174.34375 188.554688 174.085938 188.476562 173.835938 188.382812 C 173.324219 188.210938 172.804688 188.078125 172.28125 187.96875 C 171.230469 187.746094 170.15625 187.648438 169.085938 187.652344 C 168.019531 187.660156 166.953125 187.769531 165.929688 187.992188 C 165.421875 188.113281 164.921875 188.253906 164.457031 188.441406 C 164.339844 188.488281 164.230469 188.539062 164.117188 188.589844 C 164.003906 188.636719 163.90625 188.699219 163.800781 188.75 C 163.800781 188.75 163.722656 188.792969 163.722656 188.792969 C 163.722656 188.792969 163.65625 188.839844 163.65625 188.839844 C 163.65625 188.839844 163.519531 188.929688 163.519531 188.929688 C 163.480469 188.953125 163.421875 189 163.367188 189.039062 C 163.367188 189.039062 163.203125 189.160156 163.203125 189.160156 C 162.34375 189.816406 161.515625 190.476562 160.796875 191.222656 C 160.074219 191.96875 159.433594 192.777344 158.9375 193.664062 C 157.929688 195.433594 157.476562 197.46875 157.484375 199.53125 C 157.492188 200.566406 157.589844 201.605469 157.765625 202.644531 C 157.855469 203.160156 157.960938 203.679688 158.078125 204.191406 C 158.078125 204.191406 158.273438 204.960938 158.273438 204.960938 C 158.273438 204.960938 158.492188 205.730469 158.492188 205.730469 C 158.792969 206.753906 159.144531 207.769531 159.523438 208.78125 C 159.617188 209.035156 159.71875 209.285156 159.816406 209.539062 C 159.914062 209.789062 160.015625 210.042969 160.121094 210.292969 C 160.121094 210.292969 160.429688 211.046875 160.429688 211.046875 C 160.429688 211.046875 160.746094 211.796875 160.746094 211.796875 C 161.179688 212.796875 161.628906 213.789062 162.101562 214.773438 C 162.566406 215.761719 163.042969 216.746094 163.539062 217.722656 C 164.035156 218.699219 164.535156 219.675781 165.046875 220.648438 C 165.5625 221.617188 166.078125 222.585938 166.601562 223.554688 C 167.132812 224.515625 167.660156 225.484375 168.199219 226.445312 C 168.199219 226.445312 169.007812 227.886719 169.007812 227.886719 C 169.007812 227.886719 169.414062 228.605469 169.414062 228.605469 C 169.414062 228.605469 169.617188 228.964844 169.617188 228.964844 C 169.617188 228.964844 169.71875 229.144531 169.71875 229.144531 C 169.71875 229.144531 169.773438 229.234375 169.773438 229.234375 C 169.773438 229.234375 169.796875 229.277344 169.796875 229.277344 C 169.789062 229.269531 169.761719 229.265625 169.746094 229.28125 Z M 169.742188 229.472656 C 169.707031 229.460938 169.660156 229.429688 169.632812 229.394531 C 169.632812 229.394531 169.601562 229.351562 169.601562 229.351562 C 169.601562 229.351562 169.535156 229.269531 169.535156 229.269531 C 169.535156 229.269531 169.410156 229.105469 169.410156 229.105469 C 169.410156 229.105469 169.152344 228.777344 169.152344 228.777344 C 168.984375 228.558594 168.816406 228.339844 168.652344 228.121094 C 168.320312 227.675781 167.988281 227.234375 167.667969 226.785156 C 167.019531 225.886719 166.382812 224.980469 165.765625 224.0625 C 165.765625 224.0625 164.84375 222.683594 164.84375 222.683594 C 164.542969 222.21875 164.242188 221.753906 163.949219 221.285156 C 163.359375 220.347656 162.773438 219.40625 162.214844 218.445312 C 161.65625 217.488281 161.105469 216.523438 160.578125 215.542969 C 160.050781 214.566406 159.546875 213.570312 159.058594 212.570312 C 158.085938 210.558594 157.210938 208.492188 156.53125 206.320312 C 156.449219 206.046875 156.367188 205.773438 156.289062 205.5 C 156.289062 205.5 156.078125 204.667969 156.078125 204.667969 C 155.949219 204.109375 155.824219 203.546875 155.738281 202.976562 C 155.554688 201.839844 155.453125 200.679688 155.484375 199.507812 C 155.507812 198.339844 155.667969 197.160156 155.972656 196.011719 C 156.128906 195.4375 156.320312 194.871094 156.558594 194.328125 C 156.671875 194.050781 156.808594 193.785156 156.9375 193.519531 C 157.078125 193.257812 157.21875 192.996094 157.378906 192.742188 C 157.996094 191.726562 158.761719 190.8125 159.605469 190.015625 C 160.453125 189.214844 161.378906 188.519531 162.316406 187.90625 C 162.316406 187.90625 162.492188 187.789062 162.492188 187.789062 C 162.550781 187.75 162.605469 187.714844 162.683594 187.671875 C 162.683594 187.671875 162.898438 187.546875 162.898438 187.546875 C 162.898438 187.546875 163.007812 187.484375 163.007812 187.484375 C 163.007812 187.484375 163.113281 187.433594 163.113281 187.433594 C 163.257812 187.371094 163.402344 187.292969 163.546875 187.246094 C 163.6875 187.191406 163.832031 187.136719 163.976562 187.089844 C 164.550781 186.90625 165.125 186.796875 165.695312 186.707031 C 166.84375 186.550781 167.988281 186.523438 169.125 186.601562 C 171.390625 186.769531 173.617188 187.363281 175.621094 188.414062 C 175.867188 188.550781 176.121094 188.675781 176.355469 188.835938 C 176.589844 188.988281 176.839844 189.125 177.0625 189.296875 C 177.289062 189.46875 177.527344 189.621094 177.738281 189.808594 C 177.738281 189.808594 178.066406 190.078125 178.066406 190.078125 C 178.066406 190.078125 178.226562 190.214844 178.226562 190.214844 C 178.226562 190.214844 178.378906 190.359375 178.378906 190.359375 C 179.207031 191.128906 179.941406 192 180.53125 192.964844 C 181.125 193.929688 181.59375 194.964844 181.960938 196.035156 C 181.960938 196.035156 182.214844 196.84375 182.214844 196.84375 C 182.296875 197.117188 182.351562 197.390625 182.417969 197.667969 C 182.417969 197.667969 182.519531 198.082031 182.519531 198.082031 C 182.542969 198.21875 182.566406 198.359375 182.589844 198.5 C 182.589844 198.5 182.730469 199.34375 182.730469 199.34375 C 182.988281 201.609375 182.847656 203.90625 182.410156 206.125 C 181.972656 208.34375 181.269531 210.492188 180.417969 212.558594 C 179.5625 214.628906 178.5625 216.628906 177.476562 218.570312 C 177.207031 219.058594 176.921875 219.539062 176.640625 220.015625 C 176.347656 220.488281 176.070312 220.96875 175.769531 221.4375 C 175.179688 222.378906 174.554688 223.296875 173.921875 224.207031 C 173.289062 225.117188 172.621094 226.003906 171.945312 226.882812 C 171.609375 227.320312 171.257812 227.75 170.90625 228.179688 C 170.730469 228.394531 170.550781 228.605469 170.371094 228.8125 C 170.371094 228.8125 170.097656 229.128906 170.097656 229.128906 C 170.097656 229.128906 169.960938 229.28125 169.960938 229.28125 C 169.960938 229.28125 169.890625 229.359375 169.890625 229.359375 C 169.875 229.375 169.875 229.378906 169.839844 229.414062 C 169.8125 229.441406 169.769531 229.464844 169.742188 229.472656 Z M 169.742188 229.472656 " fill-opacity="1" fill-rule="nonzero"/><path fill="#ffffff" d="M 169.011719 194.492188 C 165.777344 194.625 163.453125 197.914062 163.453125 199.691406 C 163.453125 201.46875 164.449219 206.667969 169.011719 206.667969 C 173.574219 206.667969 175.902344 202.5625 175.902344 200.578125 C 175.902344 196.886719 172.382812 194.355469 169.011719 194.492188 Z M 169.011719 194.492188 " fill-opacity="1" fill-rule="nonzero"/><path fill="#a31bd8" d="M 169.015625 194.589844 C 168.230469 194.613281 167.460938 194.902344 166.835938 195.355469 C 166.519531 195.582031 166.242188 195.851562 165.992188 196.136719 C 165.738281 196.421875 165.519531 196.734375 165.324219 197.050781 C 165.128906 197.363281 164.957031 197.6875 164.808594 198.011719 C 164.660156 198.335938 164.53125 198.660156 164.445312 198.972656 C 164.398438 199.128906 164.359375 199.28125 164.339844 199.421875 C 164.332031 199.457031 164.328125 199.492188 164.324219 199.523438 C 164.320312 199.558594 164.316406 199.59375 164.316406 199.621094 C 164.316406 199.621094 164.316406 199.667969 164.316406 199.667969 C 164.3125 199.679688 164.3125 199.699219 164.3125 199.722656 C 164.3125 199.722656 164.3125 199.847656 164.3125 199.847656 C 164.316406 200.195312 164.339844 200.566406 164.375 200.933594 C 164.445312 201.667969 164.546875 202.421875 164.765625 203.148438 C 164.980469 203.871094 165.320312 204.570312 165.84375 205.117188 C 166.363281 205.660156 167.042969 206.054688 167.777344 206.195312 C 168.144531 206.265625 168.519531 206.292969 168.894531 206.261719 C 169.269531 206.234375 169.648438 206.167969 170.003906 206.070312 C 170.726562 205.875 171.382812 205.542969 171.972656 205.148438 C 172.558594 204.746094 173.089844 204.269531 173.53125 203.71875 C 173.972656 203.167969 174.324219 202.546875 174.570312 201.910156 C 174.6875 201.59375 174.785156 201.273438 174.832031 200.976562 C 174.855469 200.824219 174.871094 200.691406 174.871094 200.5625 C 174.871094 200.5625 174.867188 200.316406 174.867188 200.316406 C 174.859375 200.234375 174.851562 200.152344 174.847656 200.070312 C 174.824219 199.742188 174.757812 199.421875 174.671875 199.105469 C 174.582031 198.789062 174.453125 198.480469 174.304688 198.175781 C 174.007812 197.570312 173.617188 196.976562 173.117188 196.433594 C 172.867188 196.164062 172.589844 195.90625 172.285156 195.675781 C 171.984375 195.445312 171.652344 195.234375 171.300781 195.070312 C 170.597656 194.738281 169.804688 194.5625 169.015625 194.589844 Z M 169.007812 194.398438 C 169.820312 194.359375 170.636719 194.421875 171.460938 194.578125 C 171.867188 194.660156 172.28125 194.761719 172.6875 194.898438 C 173.09375 195.039062 173.5 195.207031 173.886719 195.421875 C 174.664062 195.84375 175.375 196.453125 175.898438 197.222656 C 176.421875 197.992188 176.761719 198.90625 176.882812 199.847656 C 176.894531 199.964844 176.910156 200.082031 176.917969 200.199219 C 176.917969 200.199219 176.929688 200.554688 176.929688 200.554688 C 176.925781 200.824219 176.90625 201.09375 176.855469 201.335938 C 176.761719 201.828125 176.609375 202.273438 176.417969 202.691406 C 176.035156 203.53125 175.507812 204.273438 174.886719 204.921875 C 174.261719 205.566406 173.535156 206.121094 172.722656 206.496094 C 171.90625 206.871094 171.023438 207.070312 170.160156 207.105469 C 169.726562 207.132812 169.300781 207.109375 168.878906 207.066406 C 168.878906 207.066406 168.558594 207.03125 168.558594 207.03125 C 168.558594 207.03125 168.242188 206.972656 168.242188 206.972656 C 168.132812 206.957031 168.03125 206.925781 167.925781 206.902344 C 167.824219 206.878906 167.71875 206.851562 167.617188 206.816406 C 166.792969 206.578125 166.046875 206.125 165.414062 205.558594 C 164.78125 204.992188 164.246094 204.316406 163.804688 203.582031 C 163.363281 202.847656 163.007812 202.050781 162.800781 201.210938 C 162.695312 200.789062 162.625 200.359375 162.597656 199.90625 C 162.597656 199.90625 162.589844 199.734375 162.589844 199.734375 C 162.589844 199.707031 162.589844 199.675781 162.589844 199.636719 C 162.589844 199.636719 162.59375 199.535156 162.59375 199.535156 C 162.597656 199.464844 162.605469 199.398438 162.613281 199.332031 C 162.617188 199.265625 162.628906 199.199219 162.640625 199.136719 C 162.679688 198.882812 162.753906 198.648438 162.835938 198.425781 C 162.917969 198.199219 163.023438 197.992188 163.128906 197.789062 C 163.246094 197.59375 163.363281 197.398438 163.5 197.21875 C 163.769531 196.859375 164.070312 196.535156 164.402344 196.246094 C 164.734375 195.960938 165.089844 195.707031 165.460938 195.488281 C 165.832031 195.269531 166.214844 195.085938 166.605469 194.929688 C 167.386719 194.621094 168.191406 194.433594 169.007812 194.398438 Z M 169.007812 194.398438 " fill-opacity="1" fill-rule="nonzero"/></svg>