<svg xmlns="http://www.w3.org/2000/svg" xmlns:xlink="http://www.w3.org/1999/xlink" width="500" zoomAndPan="magnify" viewBox="0 0 375 374.999991" height="500" preserveAspectRatio="xMidYMid meet" version="1.0"><defs><clipPath id="2505663a80"><path d="M 0.269531 42.160156 L 374.757812 42.160156 L 374.757812 297.121094 L 0.269531 297.121094 Z M 0.269531 42.160156 " clip-rule="nonzero"/></clipPath><clipPath id="463558e97b"><path d="M 374.375 258.679688 C 374.082031 253.257812 373.597656 247.839844 372.878906 242.453125 C 372.144531 237.003906 371.171875 231.578125 369.898438 226.222656 C 368.832031 221.6875 367.523438 217.21875 366.027344 212.800781 C 365.1875 210.300781 364.207031 207.828125 363.078125 205.4375 C 360.933594 200.90625 358.472656 196.5625 355.585938 192.464844 C 352.503906 188.089844 349.003906 184.042969 345.203125 180.28125 C 341.402344 176.519531 337.25 173.078125 332.851562 170.035156 C 329.832031 167.945312 326.699219 166.007812 323.457031 164.257812 C 319.375 162.066406 315.121094 160.183594 310.90625 158.25 C 305.835938 155.921875 300.738281 153.648438 295.628906 151.410156 C 290.511719 149.164062 285.375 146.949219 280.226562 144.765625 C 275.101562 142.589844 269.96875 140.4375 264.832031 138.292969 C 259.714844 136.152344 254.582031 134.023438 249.457031 131.886719 C 244.335938 129.753906 239.210938 127.617188 234.101562 125.457031 C 229.097656 123.34375 224.109375 121.210938 219.128906 119.035156 C 214.078125 116.828125 209.050781 114.578125 204.050781 112.246094 C 199.105469 109.941406 194.195312 107.558594 189.359375 105.039062 C 184.539062 102.53125 179.78125 99.886719 175.191406 96.992188 C 170.695312 94.148438 166.296875 91.0625 162.425781 87.398438 C 160.550781 85.621094 158.789062 83.691406 157.339844 81.539062 C 156.023438 79.589844 154.878906 77.367188 154.449219 75.03125 C 154.304688 74.1875 154.167969 73.324219 154.191406 72.464844 C 154.214844 71.5625 154.34375 70.679688 154.613281 69.804688 C 155.171875 67.96875 156.296875 66.304688 157.570312 64.878906 C 159.332031 62.894531 161.4375 61.230469 163.628906 59.746094 C 165.851562 58.242188 168.191406 56.902344 170.574219 55.667969 C 175.191406 53.269531 179.996094 51.234375 184.839844 49.316406 C 189.121094 47.617188 193.460938 46.0625 197.742188 44.351562 C 197.972656 44.261719 198.210938 44.160156 198.441406 44.070312 L 198.371094 43.929688 C 194.425781 45.410156 190.449219 46.78125 186.488281 48.230469 C 181.683594 49.992188 176.902344 51.855469 172.257812 54.015625 C 169.835938 55.140625 167.445312 56.359375 165.148438 57.714844 C 162.832031 59.078125 160.589844 60.589844 158.582031 62.367188 C 156.78125 63.953125 155.046875 65.828125 154.03125 68.019531 C 153.378906 69.414062 152.980469 70.839844 152.917969 72.386719 C 152.835938 74.328125 153.261719 76.304688 153.929688 78.113281 C 154.84375 80.578125 156.28125 82.839844 157.929688 84.886719 C 161.210938 88.984375 165.316406 92.386719 169.539062 95.476562 C 173.945312 98.691406 178.59375 101.582031 183.324219 104.300781 C 188.011719 107.007812 192.792969 109.542969 197.613281 111.988281 C 202.507812 114.46875 207.441406 116.859375 212.402344 119.195312 C 217.351562 121.519531 222.316406 123.792969 227.304688 126.039062 C 232.332031 128.308594 237.371094 130.550781 242.421875 132.773438 C 247.523438 135.027344 252.628906 137.273438 257.730469 139.523438 C 262.8125 141.761719 267.890625 144.007812 272.964844 146.269531 C 278.066406 148.542969 283.160156 150.828125 288.242188 153.15625 C 293.3125 155.476562 298.378906 157.832031 303.429688 160.222656 C 308.316406 162.550781 313.207031 164.878906 318.023438 167.347656 C 321.265625 168.996094 324.382812 170.886719 327.378906 172.933594 C 331.449219 175.707031 335.265625 178.808594 338.84375 182.1875 C 342.710938 185.84375 346.246094 189.90625 349.332031 194.242188 C 352.359375 198.484375 354.933594 203.015625 357.0625 207.765625 C 358.144531 210.171875 359.070312 212.652344 359.859375 215.175781 C 361.148438 219.25 362.25 223.382812 363.164062 227.566406 C 364.328125 232.957031 365.1875 238.429688 365.792969 243.914062 C 366.390625 249.332031 366.734375 254.78125 366.886719 260.230469 C 367.039062 265.609375 366.988281 270.996094 366.796875 276.375 C 366.597656 281.675781 366.242188 286.976562 365.792969 292.265625 C 365.644531 293.882812 365.492188 295.5 365.332031 297.121094 L 373.675781 297.121094 C 373.835938 295.007812 373.984375 292.902344 374.113281 290.785156 C 374.433594 285.484375 374.640625 280.171875 374.703125 274.863281 C 374.757812 269.46875 374.664062 264.066406 374.375 258.679688 Z M 188.625 163.515625 C 187.75 160.6875 186.195312 158.230469 184.347656 155.945312 C 182.800781 154.039062 181.039062 152.296875 179.214844 150.660156 C 177.175781 148.828125 175.03125 147.109375 172.839844 145.464844 C 168.449219 142.144531 163.875 139.097656 159.253906 136.101562 C 154.589844 133.082031 149.882812 130.132812 145.1875 127.164062 C 140.527344 124.222656 135.878906 121.257812 131.289062 118.214844 C 126.691406 115.167969 122.140625 112.046875 117.71875 108.753906 C 113.34375 105.496094 109.066406 102.078125 105.390625 98.050781 C 102.5625 94.953125 99.902344 91.328125 98.9375 87.183594 C 98.570312 85.660156 98.492188 84.105469 98.707031 82.601562 C 98.921875 81.09375 99.453125 79.636719 100.1875 78.296875 C 101.3125 76.242188 102.890625 74.472656 104.625 72.910156 C 106.394531 71.308594 108.324219 69.898438 110.324219 68.601562 C 114.921875 65.628906 119.917969 63.285156 124.988281 61.238281 C 130.085938 59.195312 135.304688 57.445312 140.558594 55.875 C 145.671875 54.34375 150.835938 52.972656 156.007812 51.691406 C 161.09375 50.445312 166.203125 49.273438 171.324219 48.144531 C 176.195312 47.074219 181.070312 46.03125 185.941406 44.964844 C 189.8125 44.113281 193.675781 43.242188 197.527344 42.300781 L 197.453125 42.160156 C 193.359375 43.089844 189.253906 43.9375 185.136719 44.757812 C 180.234375 45.730469 175.332031 46.6875 170.425781 47.683594 C 165.277344 48.734375 160.128906 49.824219 155.003906 50.996094 C 149.800781 52.191406 144.628906 53.476562 139.496094 54.941406 C 134.214844 56.4375 128.972656 58.105469 123.855469 60.089844 C 118.761719 62.074219 113.816406 64.382812 109.160156 67.238281 C 105.238281 69.699219 101.3125 72.671875 98.808594 76.640625 C 98.667969 76.863281 98.539062 77.078125 98.410156 77.300781 C 97.074219 79.644531 96.355469 82.273438 96.441406 84.976562 C 96.464844 85.882812 96.585938 86.785156 96.777344 87.667969 C 97.886719 92.855469 101.289062 97.304688 104.851562 101.097656 C 108.59375 105.082031 112.867188 108.515625 117.210938 111.820312 C 121.601562 115.167969 126.117188 118.355469 130.667969 121.480469 C 135.242188 124.605469 139.863281 127.664062 144.496094 130.699219 C 149.164062 133.761719 153.832031 136.804688 158.449219 139.9375 C 162.980469 143.011719 167.476562 146.152344 171.746094 149.585938 C 173.851562 151.277344 175.898438 153.050781 177.820312 154.949219 C 179.351562 156.472656 180.847656 158.097656 182.074219 159.890625 C 182.839844 161.019531 183.53125 162.175781 184.035156 163.445312 C 184.449219 164.472656 184.726562 165.5625 184.976562 166.632812 C 185.09375 167.109375 185.175781 167.585938 185.269531 168.066406 C 185.914062 171.652344 185.867188 175.355469 185.175781 178.941406 C 184.480469 182.527344 183.144531 185.988281 181.316406 189.167969 C 178.6875 193.742188 175.078125 197.726562 170.933594 200.96875 C 167.347656 203.765625 163.355469 205.964844 159.402344 208.1875 C 154.527344 210.921875 149.617188 213.582031 144.683594 216.210938 C 139.769531 218.820312 134.835938 221.394531 129.894531 223.941406 C 124.988281 226.476562 120.0625 228.972656 115.128906 231.449219 C 110.171875 233.941406 105.207031 236.398438 100.226562 238.828125 C 95.398438 241.1875 90.554688 243.515625 85.707031 245.824219 C 80.863281 248.121094 76.003906 250.398438 71.132812 252.644531 C 66.25 254.886719 61.355469 257.109375 56.449219 259.285156 C 51.800781 261.347656 47.140625 263.378906 42.46875 265.363281 C 37.507812 267.46875 32.542969 269.53125 27.546875 271.523438 C 23.035156 273.332031 18.5 275.085938 13.941406 276.765625 C 9.414062 278.433594 4.859375 280.035156 0.269531 281.515625 L 0.269531 290.472656 C 4.21875 289.152344 8.132812 287.75 12.023438 286.296875 C 16.691406 284.542969 21.328125 282.703125 25.941406 280.808594 C 30.765625 278.824219 35.578125 276.773438 40.367188 274.679688 C 45.140625 272.589844 49.890625 270.449219 54.636719 268.273438 C 59.421875 266.074219 64.199219 263.835938 68.957031 261.570312 C 73.867188 259.234375 78.769531 256.855469 83.652344 254.453125 C 88.410156 252.105469 93.160156 249.738281 97.894531 247.339844 C 102.792969 244.867188 107.671875 242.367188 112.546875 239.839844 C 117.457031 237.289062 122.363281 234.714844 127.25 232.109375 C 132.152344 229.496094 137.050781 226.851562 141.929688 224.179688 C 146.8125 221.503906 151.675781 218.792969 156.511719 216.03125 C 158.925781 214.652344 161.339844 213.265625 163.738281 211.847656 C 165.976562 210.515625 168.25 209.207031 170.394531 207.726562 C 174.035156 205.207031 177.390625 202.316406 180.304688 198.96875 C 182.289062 196.671875 184.035156 194.1875 185.507812 191.527344 C 187.515625 187.882812 188.976562 183.90625 189.699219 179.765625 C 190.058594 177.707031 190.234375 175.605469 190.21875 173.507812 C 190.195312 170.105469 189.636719 166.757812 188.625 163.515625 Z M 191.875 127.328125 C 190.769531 126.828125 189.589844 126.300781 188.417969 125.769531 C 186.066406 124.699219 183.714844 123.617188 181.964844 122.796875 C 181.085938 122.382812 180.347656 122.039062 179.84375 121.800781 C 179.332031 121.558594 179.039062 121.417969 179.039062 121.417969 L 177.484375 124.628906 C 177.484375 124.628906 177.773438 124.773438 178.28125 125.027344 C 178.792969 125.28125 179.523438 125.640625 180.394531 126.070312 C 182.140625 126.929688 184.480469 128.0625 186.824219 129.1875 C 187.996094 129.742188 189.167969 130.300781 190.265625 130.820312 C 191.367188 131.34375 192.402344 131.824219 193.285156 132.238281 C 195.046875 133.058594 196.226562 133.601562 196.226562 133.601562 L 197.859375 129.976562 C 197.859375 129.976562 196.679688 129.457031 194.898438 128.675781 C 194.019531 128.285156 192.984375 127.824219 191.875 127.328125 Z M 228.628906 247.65625 C 228.09375 248.085938 227.320312 248.6875 226.382812 249.417969 C 224.53125 250.867188 222.023438 252.765625 219.488281 254.644531 C 216.953125 256.511719 214.394531 258.359375 212.460938 259.738281 C 211.496094 260.421875 210.683594 260.996094 210.125 261.394531 C 209.558594 261.792969 209.234375 262.023438 209.234375 262.023438 L 213.789062 268.367188 C 213.789062 268.367188 214.109375 268.128906 214.675781 267.714844 C 215.242188 267.292969 216.046875 266.703125 217.003906 265.992188 C 218.9375 264.558594 221.496094 262.632812 224.039062 260.671875 C 226.582031 258.71875 229.105469 256.726562 230.980469 255.210938 C 231.925781 254.453125 232.699219 253.808594 233.242188 253.363281 C 233.785156 252.910156 234.09375 252.660156 234.09375 252.660156 L 229.472656 246.988281 C 229.472656 246.988281 229.164062 247.234375 228.628906 247.65625 Z M 271.363281 182.847656 C 271.300781 182.6875 271.230469 182.503906 271.148438 182.3125 C 271.070312 182.121094 270.980469 181.914062 270.878906 181.691406 C 270.695312 181.246094 270.457031 180.761719 270.203125 180.234375 C 269.675781 179.191406 269.023438 177.996094 268.25 176.777344 C 267.476562 175.570312 266.597656 174.320312 265.667969 173.125 L 265.316406 172.679688 C 265.203125 172.527344 265.085938 172.382812 264.964844 172.234375 C 264.726562 171.945312 264.488281 171.652344 264.25 171.371094 C 263.777344 170.808594 263.300781 170.25 262.832031 169.738281 C 262.359375 169.207031 261.898438 168.726562 261.453125 168.257812 C 261.230469 168.027344 261.019531 167.804688 260.804688 167.585938 C 260.597656 167.371094 260.390625 167.164062 260.199219 166.972656 C 259.402344 166.183594 258.734375 165.546875 258.257812 165.101562 C 257.785156 164.664062 257.507812 164.414062 257.507812 164.414062 L 253.890625 168.304688 C 253.890625 168.304688 254.144531 168.542969 254.582031 168.964844 C 255.019531 169.394531 255.640625 169.996094 256.359375 170.75 C 256.542969 170.933594 256.71875 171.132812 256.917969 171.332031 C 257.109375 171.539062 257.300781 171.746094 257.507812 171.960938 C 257.898438 172.402344 258.328125 172.863281 258.742188 173.355469 C 259.171875 173.835938 259.585938 174.351562 260.023438 174.871094 C 260.222656 175.132812 260.433594 175.398438 260.640625 175.660156 C 260.757812 175.796875 260.855469 175.929688 260.957031 176.066406 L 261.261719 176.472656 C 262.066406 177.5625 262.824219 178.679688 263.476562 179.746094 C 264.128906 180.816406 264.65625 181.835938 265.085938 182.726562 C 265.285156 183.167969 265.476562 183.574219 265.621094 183.941406 C 265.691406 184.128906 265.769531 184.296875 265.828125 184.449219 C 265.890625 184.609375 265.945312 184.753906 265.992188 184.886719 C 266.089844 185.152344 266.167969 185.359375 266.210938 185.5 C 266.257812 185.644531 266.28125 185.722656 266.28125 185.722656 L 271.738281 183.875 C 271.738281 183.875 271.707031 183.773438 271.644531 183.597656 C 271.585938 183.421875 271.484375 183.167969 271.363281 182.847656 Z M 236.246094 148.886719 C 235.984375 148.734375 235.679688 148.542969 235.3125 148.328125 C 234.949219 148.113281 234.542969 147.871094 234.101562 147.609375 C 232.324219 146.550781 229.925781 145.179688 227.511719 143.863281 C 226.300781 143.203125 225.082031 142.558594 223.941406 141.960938 C 222.796875 141.363281 221.726562 140.8125 220.804688 140.34375 C 218.960938 139.417969 217.71875 138.820312 217.71875 138.820312 L 215.757812 142.75 C 215.757812 142.75 216.96875 143.363281 218.753906 144.3125 C 219.648438 144.789062 220.691406 145.347656 221.800781 145.953125 C 222.914062 146.566406 224.09375 147.226562 225.257812 147.890625 C 227.601562 149.234375 229.925781 150.613281 231.640625 151.675781 C 232.070312 151.945312 232.460938 152.191406 232.8125 152.40625 C 233.15625 152.628906 233.464844 152.820312 233.710938 152.972656 C 233.960938 153.132812 234.152344 153.257812 234.285156 153.339844 C 234.414062 153.425781 234.492188 153.46875 234.492188 153.46875 L 237.058594 149.386719 C 237.058594 149.386719 236.980469 149.339844 236.84375 149.257812 C 236.707031 149.171875 236.507812 149.050781 236.246094 148.886719 Z M 263.308594 209.621094 C 263.230469 209.765625 263.125 209.988281 262.988281 210.269531 C 262.703125 210.824219 262.289062 211.621094 261.769531 212.554688 C 261.238281 213.488281 260.605469 214.578125 259.867188 215.710938 C 259.140625 216.851562 258.328125 218.046875 257.46875 219.226562 C 255.777344 221.582031 253.921875 223.839844 252.472656 225.503906 C 252.113281 225.917969 251.792969 226.300781 251.484375 226.628906 C 251.195312 226.96875 250.925781 227.257812 250.71875 227.496094 C 250.28125 227.96875 250.03125 228.238281 250.03125 228.238281 L 255.050781 232.765625 C 255.050781 232.765625 255.300781 232.476562 255.753906 231.96875 C 255.976562 231.710938 256.246094 231.394531 256.550781 231.042969 C 256.863281 230.683594 257.203125 230.269531 257.578125 229.824219 C 259.070312 228.03125 261.003906 225.578125 262.796875 222.996094 C 263.683594 221.703125 264.550781 220.386719 265.324219 219.128906 C 266.097656 217.863281 266.78125 216.660156 267.347656 215.613281 C 267.90625 214.5625 268.351562 213.664062 268.648438 213.035156 C 268.796875 212.722656 268.910156 212.46875 268.996094 212.300781 C 269.070312 212.132812 269.117188 212.039062 269.117188 212.039062 L 263.417969 209.390625 C 263.417969 209.390625 263.378906 209.464844 263.308594 209.621094 Z M 195.644531 43.441406 C 194.203125 43.832031 192.265625 44.335938 190.316406 44.828125 C 186.433594 45.800781 182.539062 46.773438 182.539062 46.773438 L 182.746094 47.570312 C 182.746094 47.570312 186.617188 46.519531 190.488281 45.464844 C 192.425781 44.941406 194.355469 44.398438 195.796875 43.976562 C 196.523438 43.761719 197.121094 43.570312 197.542969 43.441406 C 197.757812 43.371094 197.917969 43.316406 198.035156 43.28125 L 197.796875 42.820312 C 197.6875 42.851562 197.550781 42.898438 197.390625 42.941406 C 196.96875 43.066406 196.371094 43.242188 195.644531 43.441406 Z M 181.167969 281.453125 C 180.5625 281.882812 179.707031 282.503906 178.671875 283.261719 C 176.617188 284.777344 173.875 286.824219 171.183594 289.09375 C 170.511719 289.660156 169.835938 290.242188 169.1875 290.832031 C 168.527344 291.4375 167.890625 292.035156 167.269531 292.65625 C 166.65625 293.277344 166.066406 293.90625 165.507812 294.539062 C 164.957031 295.175781 164.441406 295.835938 163.984375 296.5 C 163.835938 296.699219 163.699219 296.90625 163.5625 297.121094 L 175.300781 297.121094 C 175.804688 296.648438 176.328125 296.171875 176.863281 295.703125 C 179.253906 293.605469 181.835938 291.589844 183.789062 290.097656 C 184.769531 289.34375 185.597656 288.726562 186.179688 288.296875 C 186.753906 287.859375 187.085938 287.613281 187.085938 287.613281 L 182.121094 280.777344 C 182.121094 280.777344 181.773438 281.023438 181.167969 281.453125 Z M 126.699219 77.238281 C 126.78125 76.785156 126.859375 76.527344 126.859375 76.527344 L 124.820312 75.96875 C 124.820312 75.96875 124.730469 76.265625 124.613281 76.816406 C 124.5 77.363281 124.367188 78.160156 124.355469 79.125 C 124.355469 79.183594 124.355469 79.246094 124.355469 79.300781 C 124.355469 79.359375 124.355469 79.414062 124.355469 79.476562 C 124.355469 79.597656 124.347656 79.714844 124.355469 79.835938 C 124.355469 80.082031 124.363281 80.34375 124.375 80.601562 C 124.390625 81.132812 124.4375 81.683594 124.507812 82.257812 C 124.636719 83.414062 124.890625 84.640625 125.28125 85.828125 L 125.425781 86.273438 C 125.480469 86.410156 125.535156 86.5625 125.59375 86.710938 L 125.671875 86.925781 L 125.761719 87.136719 C 125.824219 87.277344 125.878906 87.421875 125.941406 87.558594 C 126.191406 88.121094 126.453125 88.664062 126.730469 89.167969 C 127.28125 90.1875 127.871094 91.085938 128.40625 91.828125 C 128.945312 92.570312 129.425781 93.152344 129.761719 93.566406 C 129.839844 93.667969 129.917969 93.757812 129.984375 93.835938 C 130.054688 93.910156 130.109375 93.980469 130.152344 94.035156 C 130.253906 94.140625 130.300781 94.203125 130.300781 94.203125 L 132.144531 92.554688 C 132.144531 92.554688 132.101562 92.503906 132.015625 92.402344 C 131.96875 92.355469 131.917969 92.296875 131.855469 92.226562 C 131.785156 92.15625 131.71875 92.074219 131.632812 91.972656 C 131.320312 91.605469 130.859375 91.070312 130.359375 90.394531 C 129.855469 89.726562 129.304688 88.921875 128.789062 88.019531 C 128.53125 87.574219 128.292969 87.101562 128.0625 86.609375 C 128.007812 86.488281 127.953125 86.363281 127.902344 86.242188 L 127.816406 86.050781 L 127.742188 85.867188 C 127.695312 85.734375 127.640625 85.613281 127.59375 85.484375 L 127.457031 85.101562 C 127.097656 84.066406 126.851562 83 126.714844 81.972656 C 126.636719 81.46875 126.589844 80.96875 126.558594 80.488281 C 126.546875 80.25 126.539062 80.019531 126.53125 79.789062 C 126.523438 79.675781 126.523438 79.566406 126.523438 79.453125 C 126.523438 79.398438 126.523438 79.347656 126.523438 79.292969 C 126.515625 79.238281 126.515625 79.183594 126.515625 79.140625 C 126.515625 78.351562 126.605469 77.691406 126.699219 77.238281 Z M 149.675781 56.855469 C 149.226562 57.035156 148.574219 57.292969 147.800781 57.617188 C 146.253906 58.265625 144.207031 59.164062 142.191406 60.152344 C 141.1875 60.648438 140.191406 61.164062 139.265625 61.667969 C 138.335938 62.175781 137.488281 62.664062 136.757812 63.101562 C 136.039062 63.546875 135.441406 63.921875 135.027344 64.199219 C 134.820312 64.335938 134.660156 64.441406 134.550781 64.511719 C 134.445312 64.589844 134.382812 64.632812 134.382812 64.632812 L 135.425781 66.128906 C 135.425781 66.128906 135.480469 66.089844 135.585938 66.011719 C 135.695312 65.945312 135.847656 65.835938 136.039062 65.699219 C 136.429688 65.429688 137.003906 65.046875 137.695312 64.613281 C 138.382812 64.175781 139.203125 63.675781 140.101562 63.171875 C 140.988281 62.65625 141.953125 62.136719 142.933594 61.628906 C 144.886719 60.621094 146.894531 59.699219 148.40625 59.027344 C 149.164062 58.695312 149.800781 58.421875 150.246094 58.238281 C 150.6875 58.050781 150.949219 57.945312 150.949219 57.945312 L 150.390625 56.574219 C 150.390625 56.574219 150.128906 56.671875 149.675781 56.855469 Z M 147.292969 104.484375 C 146.980469 104.285156 146.703125 104.109375 146.480469 103.964844 C 146.03125 103.679688 145.777344 103.511719 145.777344 103.511719 L 144.214844 105.863281 C 144.214844 105.863281 144.46875 106.042969 144.917969 106.339844 C 145.148438 106.492188 145.425781 106.675781 145.738281 106.882812 C 146.054688 107.097656 146.414062 107.328125 146.804688 107.582031 C 148.359375 108.601562 150.464844 109.917969 152.589844 111.191406 C 154.710938 112.46875 156.855469 113.703125 158.472656 114.613281 C 159.285156 115.066406 159.953125 115.449219 160.425781 115.710938 C 160.902344 115.972656 161.179688 116.117188 161.179688 116.117188 L 162.695312 113.296875 C 162.695312 113.296875 162.425781 113.152344 161.953125 112.898438 C 161.476562 112.652344 160.804688 112.292969 160 111.855469 C 158.382812 110.984375 156.238281 109.8125 154.113281 108.59375 C 151.992188 107.375 149.898438 106.117188 148.351562 105.144531 C 147.960938 104.90625 147.601562 104.683594 147.292969 104.484375 Z M 167.554688 50.820312 C 165.523438 51.410156 163.5 52.03125 161.984375 52.511719 C 160.472656 52.988281 159.46875 53.324219 159.46875 53.324219 L 159.882812 54.542969 C 159.882812 54.542969 160.871094 54.191406 162.375 53.683594 C 163.867188 53.179688 165.867188 52.527344 167.875 51.898438 C 169.882812 51.265625 171.90625 50.667969 173.421875 50.214844 C 174.941406 49.777344 175.953125 49.476562 175.953125 49.476562 L 175.691406 48.550781 C 175.691406 48.550781 174.671875 48.828125 173.148438 49.242188 C 171.613281 49.664062 169.578125 50.230469 167.554688 50.820312 Z M 167.554688 50.820312 " clip-rule="nonzero"/></clipPath><clipPath id="c34dbafda0"><path d="M 374.375 258.679688 C 374.082031 253.257812 373.597656 247.839844 372.878906 242.453125 C 372.144531 237.003906 371.171875 231.578125 369.898438 226.222656 C 368.832031 221.6875 367.523438 217.21875 366.027344 212.800781 C 365.1875 210.300781 364.207031 207.828125 363.078125 205.4375 C 360.933594 200.90625 358.472656 196.5625 355.585938 192.464844 C 352.503906 188.089844 349.003906 184.042969 345.203125 180.28125 C 341.402344 176.519531 337.25 173.078125 332.851562 170.035156 C 329.832031 167.945312 326.699219 166.007812 323.457031 164.257812 C 319.375 162.066406 315.121094 160.183594 310.90625 158.25 C 305.835938 155.921875 300.738281 153.648438 295.628906 151.410156 C 290.511719 149.164062 285.375 146.949219 280.226562 144.765625 C 275.101562 142.589844 269.96875 140.4375 264.832031 138.292969 C 259.714844 136.152344 254.582031 134.023438 249.457031 131.886719 C 244.335938 129.753906 239.210938 127.617188 234.101562 125.457031 C 229.097656 123.34375 224.109375 121.210938 219.128906 119.035156 C 214.078125 116.828125 209.050781 114.578125 204.050781 112.246094 C 199.105469 109.941406 194.195312 107.558594 189.359375 105.039062 C 184.539062 102.53125 179.78125 99.886719 175.191406 96.992188 C 170.695312 94.148438 166.296875 91.0625 162.425781 87.398438 C 160.550781 85.621094 158.789062 83.691406 157.339844 81.539062 C 156.023438 79.589844 154.878906 77.367188 154.449219 75.03125 C 154.304688 74.1875 154.167969 73.324219 154.191406 72.464844 C 154.214844 71.5625 154.34375 70.679688 154.613281 69.804688 C 155.171875 67.96875 156.296875 66.304688 157.570312 64.878906 C 159.332031 62.894531 161.4375 61.230469 163.628906 59.746094 C 165.851562 58.242188 168.191406 56.902344 170.574219 55.667969 C 175.191406 53.269531 179.996094 51.234375 184.839844 49.316406 C 189.121094 47.617188 193.460938 46.0625 197.742188 44.351562 C 197.972656 44.261719 198.210938 44.160156 198.441406 44.070312 L 198.371094 43.929688 C 194.425781 45.410156 190.449219 46.78125 186.488281 48.230469 C 181.683594 49.992188 176.902344 51.855469 172.257812 54.015625 C 169.835938 55.140625 167.445312 56.359375 165.148438 57.714844 C 162.832031 59.078125 160.589844 60.589844 158.582031 62.367188 C 156.78125 63.953125 155.046875 65.828125 154.03125 68.019531 C 153.378906 69.414062 152.980469 70.839844 152.917969 72.386719 C 152.835938 74.328125 153.261719 76.304688 153.929688 78.113281 C 154.84375 80.578125 156.28125 82.839844 157.929688 84.886719 C 161.210938 88.984375 165.316406 92.386719 169.539062 95.476562 C 173.945312 98.691406 178.59375 101.582031 183.324219 104.300781 C 188.011719 107.007812 192.792969 109.542969 197.613281 111.988281 C 202.507812 114.46875 207.441406 116.859375 212.402344 119.195312 C 217.351562 121.519531 222.316406 123.792969 227.304688 126.039062 C 232.332031 128.308594 237.371094 130.550781 242.421875 132.773438 C 247.523438 135.027344 252.628906 137.273438 257.730469 139.523438 C 262.8125 141.761719 267.890625 144.007812 272.964844 146.269531 C 278.066406 148.542969 283.160156 150.828125 288.242188 153.15625 C 293.3125 155.476562 298.378906 157.832031 303.429688 160.222656 C 308.316406 162.550781 313.207031 164.878906 318.023438 167.347656 C 321.265625 168.996094 324.382812 170.886719 327.378906 172.933594 C 331.449219 175.707031 335.265625 178.808594 338.84375 182.1875 C 342.710938 185.84375 346.246094 189.90625 349.332031 194.242188 C 352.359375 198.484375 354.933594 203.015625 357.0625 207.765625 C 358.144531 210.171875 359.070312 212.652344 359.859375 215.175781 C 361.148438 219.25 362.25 223.382812 363.164062 227.566406 C 364.328125 232.957031 365.1875 238.429688 365.792969 243.914062 C 366.390625 249.332031 366.734375 254.78125 366.886719 260.230469 C 367.039062 265.609375 366.988281 270.996094 366.796875 276.375 C 366.597656 281.675781 366.242188 286.976562 365.792969 292.265625 C 365.644531 293.882812 365.492188 295.5 365.332031 297.121094 L 373.675781 297.121094 C 373.835938 295.007812 373.984375 292.902344 374.113281 290.785156 C 374.433594 285.484375 374.640625 280.171875 374.703125 274.863281 C 374.757812 269.46875 374.664062 264.066406 374.375 258.679688 Z M 188.625 163.515625 C 187.75 160.6875 186.195312 158.230469 184.347656 155.945312 C 182.800781 154.039062 181.039062 152.296875 179.214844 150.660156 C 177.175781 148.828125 175.03125 147.109375 172.839844 145.464844 C 168.449219 142.144531 163.875 139.097656 159.253906 136.101562 C 154.589844 133.082031 149.882812 130.132812 145.1875 127.164062 C 140.527344 124.222656 135.878906 121.257812 131.289062 118.214844 C 126.691406 115.167969 122.140625 112.046875 117.71875 108.753906 C 113.34375 105.496094 109.066406 102.078125 105.390625 98.050781 C 102.5625 94.953125 99.902344 91.328125 98.9375 87.183594 C 98.570312 85.660156 98.492188 84.105469 98.707031 82.601562 C 98.921875 81.09375 99.453125 79.636719 100.1875 78.296875 C 101.3125 76.242188 102.890625 74.472656 104.625 72.910156 C 106.394531 71.308594 108.324219 69.898438 110.324219 68.601562 C 114.921875 65.628906 119.917969 63.285156 124.988281 61.238281 C 130.085938 59.195312 135.304688 57.445312 140.558594 55.875 C 145.671875 54.34375 150.835938 52.972656 156.007812 51.691406 C 161.09375 50.445312 166.203125 49.273438 171.324219 48.144531 C 176.195312 47.074219 181.070312 46.03125 185.941406 44.964844 C 189.8125 44.113281 193.675781 43.242188 197.527344 42.300781 L 197.453125 42.160156 C 193.359375 43.089844 189.253906 43.9375 185.136719 44.757812 C 180.234375 45.730469 175.332031 46.6875 170.425781 47.683594 C 165.277344 48.734375 160.128906 49.824219 155.003906 50.996094 C 149.800781 52.191406 144.628906 53.476562 139.496094 54.941406 C 134.214844 56.4375 128.972656 58.105469 123.855469 60.089844 C 118.761719 62.074219 113.816406 64.382812 109.160156 67.238281 C 105.238281 69.699219 101.3125 72.671875 98.808594 76.640625 C 98.667969 76.863281 98.539062 77.078125 98.410156 77.300781 C 97.074219 79.644531 96.355469 82.273438 96.441406 84.976562 C 96.464844 85.882812 96.585938 86.785156 96.777344 87.667969 C 97.886719 92.855469 101.289062 97.304688 104.851562 101.097656 C 108.59375 105.082031 112.867188 108.515625 117.210938 111.820312 C 121.601562 115.167969 126.117188 118.355469 130.667969 121.480469 C 135.242188 124.605469 139.863281 127.664062 144.496094 130.699219 C 149.164062 133.761719 153.832031 136.804688 158.449219 139.9375 C 162.980469 143.011719 167.476562 146.152344 171.746094 149.585938 C 173.851562 151.277344 175.898438 153.050781 177.820312 154.949219 C 179.351562 156.472656 180.847656 158.097656 182.074219 159.890625 C 182.839844 161.019531 183.53125 162.175781 184.035156 163.445312 C 184.449219 164.472656 184.726562 165.5625 184.976562 166.632812 C 185.09375 167.109375 185.175781 167.585938 185.269531 168.066406 C 185.914062 171.652344 185.867188 175.355469 185.175781 178.941406 C 184.480469 182.527344 183.144531 185.988281 181.316406 189.167969 C 178.6875 193.742188 175.078125 197.726562 170.933594 200.96875 C 167.347656 203.765625 163.355469 205.964844 159.402344 208.1875 C 154.527344 210.921875 149.617188 213.582031 144.683594 216.210938 C 139.769531 218.820312 134.835938 221.394531 129.894531 223.941406 C 124.988281 226.476562 120.0625 228.972656 115.128906 231.449219 C 110.171875 233.941406 105.207031 236.398438 100.226562 238.828125 C 95.398438 241.1875 90.554688 243.515625 85.707031 245.824219 C 80.863281 248.121094 76.003906 250.398438 71.132812 252.644531 C 66.25 254.886719 61.355469 257.109375 56.449219 259.285156 C 51.800781 261.347656 47.140625 263.378906 42.46875 265.363281 C 37.507812 267.46875 32.542969 269.53125 27.546875 271.523438 C 23.035156 273.332031 18.5 275.085938 13.941406 276.765625 C 9.414062 278.433594 4.859375 280.035156 0.269531 281.515625 L 0.269531 290.472656 C 4.21875 289.152344 8.132812 287.75 12.023438 286.296875 C 16.691406 284.542969 21.328125 282.703125 25.941406 280.808594 C 30.765625 278.824219 35.578125 276.773438 40.367188 274.679688 C 45.140625 272.589844 49.890625 270.449219 54.636719 268.273438 C 59.421875 266.074219 64.199219 263.835938 68.957031 261.570312 C 73.867188 259.234375 78.769531 256.855469 83.652344 254.453125 C 88.410156 252.105469 93.160156 249.738281 97.894531 247.339844 C 102.792969 244.867188 107.671875 242.367188 112.546875 239.839844 C 117.457031 237.289062 122.363281 234.714844 127.25 232.109375 C 132.152344 229.496094 137.050781 226.851562 141.929688 224.179688 C 146.8125 221.503906 151.675781 218.792969 156.511719 216.03125 C 158.925781 214.652344 161.339844 213.265625 163.738281 211.847656 C 165.976562 210.515625 168.25 209.207031 170.394531 207.726562 C 174.035156 205.207031 177.390625 202.316406 180.304688 198.96875 C 182.289062 196.671875 184.035156 194.1875 185.507812 191.527344 C 187.515625 187.882812 188.976562 183.90625 189.699219 179.765625 C 190.058594 177.707031 190.234375 175.605469 190.21875 173.507812 C 190.195312 170.105469 189.636719 166.757812 188.625 163.515625 Z M 191.875 127.328125 C 190.769531 126.828125 189.589844 126.300781 188.417969 125.769531 C 186.066406 124.699219 183.714844 123.617188 181.964844 122.796875 C 181.085938 122.382812 180.347656 122.039062 179.84375 121.800781 C 179.332031 121.558594 179.039062 121.417969 179.039062 121.417969 L 177.484375 124.628906 C 177.484375 124.628906 177.773438 124.773438 178.28125 125.027344 C 178.792969 125.28125 179.523438 125.640625 180.394531 126.070312 C 182.140625 126.929688 184.480469 128.0625 186.824219 129.1875 C 187.996094 129.742188 189.167969 130.300781 190.265625 130.820312 C 191.367188 131.34375 192.402344 131.824219 193.285156 132.238281 C 195.046875 133.058594 196.226562 133.601562 196.226562 133.601562 L 197.859375 129.976562 C 197.859375 129.976562 196.679688 129.457031 194.898438 128.675781 C 194.019531 128.285156 192.984375 127.824219 191.875 127.328125 Z M 228.628906 247.65625 C 228.09375 248.085938 227.320312 248.6875 226.382812 249.417969 C 224.53125 250.867188 222.023438 252.765625 219.488281 254.644531 C 216.953125 256.511719 214.394531 258.359375 212.460938 259.738281 C 211.496094 260.421875 210.683594 260.996094 210.125 261.394531 C 209.558594 261.792969 209.234375 262.023438 209.234375 262.023438 L 213.789062 268.367188 C 213.789062 268.367188 214.109375 268.128906 214.675781 267.714844 C 215.242188 267.292969 216.046875 266.703125 217.003906 265.992188 C 218.9375 264.558594 221.496094 262.632812 224.039062 260.671875 C 226.582031 258.71875 229.105469 256.726562 230.980469 255.210938 C 231.925781 254.453125 232.699219 253.808594 233.242188 253.363281 C 233.785156 252.910156 234.09375 252.660156 234.09375 252.660156 L 229.472656 246.988281 C 229.472656 246.988281 229.164062 247.234375 228.628906 247.65625 Z M 271.363281 182.847656 C 271.300781 182.6875 271.230469 182.503906 271.148438 182.3125 C 271.070312 182.121094 270.980469 181.914062 270.878906 181.691406 C 270.695312 181.246094 270.457031 180.761719 270.203125 180.234375 C 269.675781 179.191406 269.023438 177.996094 268.25 176.777344 C 267.476562 175.570312 266.597656 174.320312 265.667969 173.125 L 265.316406 172.679688 C 265.203125 172.527344 265.085938 172.382812 264.964844 172.234375 C 264.726562 171.945312 264.488281 171.652344 264.25 171.371094 C 263.777344 170.808594 263.300781 170.25 262.832031 169.738281 C 262.359375 169.207031 261.898438 168.726562 261.453125 168.257812 C 261.230469 168.027344 261.019531 167.804688 260.804688 167.585938 C 260.597656 167.371094 260.390625 167.164062 260.199219 166.972656 C 259.402344 166.183594 258.734375 165.546875 258.257812 165.101562 C 257.785156 164.664062 257.507812 164.414062 257.507812 164.414062 L 253.890625 168.304688 C 253.890625 168.304688 254.144531 168.542969 254.582031 168.964844 C 255.019531 169.394531 255.640625 169.996094 256.359375 170.75 C 256.542969 170.933594 256.71875 171.132812 256.917969 171.332031 C 257.109375 171.539062 257.300781 171.746094 257.507812 171.960938 C 257.898438 172.402344 258.328125 172.863281 258.742188 173.355469 C 259.171875 173.835938 259.585938 174.351562 260.023438 174.871094 C 260.222656 175.132812 260.433594 175.398438 260.640625 175.660156 C 260.757812 175.796875 260.855469 175.929688 260.957031 176.066406 L 261.261719 176.472656 C 262.066406 177.5625 262.824219 178.679688 263.476562 179.746094 C 264.128906 180.816406 264.65625 181.835938 265.085938 182.726562 C 265.285156 183.167969 265.476562 183.574219 265.621094 183.941406 C 265.691406 184.128906 265.769531 184.296875 265.828125 184.449219 C 265.890625 184.609375 265.945312 184.753906 265.992188 184.886719 C 266.089844 185.152344 266.167969 185.359375 266.210938 185.5 C 266.257812 185.644531 266.28125 185.722656 266.28125 185.722656 L 271.738281 183.875 C 271.738281 183.875 271.707031 183.773438 271.644531 183.597656 C 271.585938 183.421875 271.484375 183.167969 271.363281 182.847656 Z M 236.246094 148.886719 C 235.984375 148.734375 235.679688 148.542969 235.3125 148.328125 C 234.949219 148.113281 234.542969 147.871094 234.101562 147.609375 C 232.324219 146.550781 229.925781 145.179688 227.511719 143.863281 C 226.300781 143.203125 225.082031 142.558594 223.941406 141.960938 C 222.796875 141.363281 221.726562 140.8125 220.804688 140.34375 C 218.960938 139.417969 217.71875 138.820312 217.71875 138.820312 L 215.757812 142.75 C 215.757812 142.75 216.96875 143.363281 218.753906 144.3125 C 219.648438 144.789062 220.691406 145.347656 221.800781 145.953125 C 222.914062 146.566406 224.09375 147.226562 225.257812 147.890625 C 227.601562 149.234375 229.925781 150.613281 231.640625 151.675781 C 232.070312 151.945312 232.460938 152.191406 232.8125 152.40625 C 233.15625 152.628906 233.464844 152.820312 233.710938 152.972656 C 233.960938 153.132812 234.152344 153.257812 234.285156 153.339844 C 234.414062 153.425781 234.492188 153.46875 234.492188 153.46875 L 237.058594 149.386719 C 237.058594 149.386719 236.980469 149.339844 236.84375 149.257812 C 236.707031 149.171875 236.507812 149.050781 236.246094 148.886719 Z M 263.308594 209.621094 C 263.230469 209.765625 263.125 209.988281 262.988281 210.269531 C 262.703125 210.824219 262.289062 211.621094 261.769531 212.554688 C 261.238281 213.488281 260.605469 214.578125 259.867188 215.710938 C 259.140625 216.851562 258.328125 218.046875 257.46875 219.226562 C 255.777344 221.582031 253.921875 223.839844 252.472656 225.503906 C 252.113281 225.917969 251.792969 226.300781 251.484375 226.628906 C 251.195312 226.96875 250.925781 227.257812 250.71875 227.496094 C 250.28125 227.96875 250.03125 228.238281 250.03125 228.238281 L 255.050781 232.765625 C 255.050781 232.765625 255.300781 232.476562 255.753906 231.96875 C 255.976562 231.710938 256.246094 231.394531 256.550781 231.042969 C 256.863281 230.683594 257.203125 230.269531 257.578125 229.824219 C 259.070312 228.03125 261.003906 225.578125 262.796875 222.996094 C 263.683594 221.703125 264.550781 220.386719 265.324219 219.128906 C 266.097656 217.863281 266.78125 216.660156 267.347656 215.613281 C 267.90625 214.5625 268.351562 213.664062 268.648438 213.035156 C 268.796875 212.722656 268.910156 212.46875 268.996094 212.300781 C 269.070312 212.132812 269.117188 212.039062 269.117188 212.039062 L 263.417969 209.390625 C 263.417969 209.390625 263.378906 209.464844 263.308594 209.621094 Z M 195.644531 43.441406 C 194.203125 43.832031 192.265625 44.335938 190.316406 44.828125 C 186.433594 45.800781 182.539062 46.773438 182.539062 46.773438 L 182.746094 47.570312 C 182.746094 47.570312 186.617188 46.519531 190.488281 45.464844 C 192.425781 44.941406 194.355469 44.398438 195.796875 43.976562 C 196.523438 43.761719 197.121094 43.570312 197.542969 43.441406 C 197.757812 43.371094 197.917969 43.316406 198.035156 43.28125 L 197.796875 42.820312 C 197.6875 42.851562 197.550781 42.898438 197.390625 42.941406 C 196.96875 43.066406 196.371094 43.242188 195.644531 43.441406 Z M 181.167969 281.453125 C 180.5625 281.882812 179.707031 282.503906 178.671875 283.261719 C 176.617188 284.777344 173.875 286.824219 171.183594 289.09375 C 170.511719 289.660156 169.835938 290.242188 169.1875 290.832031 C 168.527344 291.4375 167.890625 292.035156 167.269531 292.65625 C 166.65625 293.277344 166.066406 293.90625 165.507812 294.539062 C 164.957031 295.175781 164.441406 295.835938 163.984375 296.5 C 163.835938 296.699219 163.699219 296.90625 163.5625 297.121094 L 175.300781 297.121094 C 175.804688 296.648438 176.328125 296.171875 176.863281 295.703125 C 179.253906 293.605469 181.835938 291.589844 183.789062 290.097656 C 184.769531 289.34375 185.597656 288.726562 186.179688 288.296875 C 186.753906 287.859375 187.085938 287.613281 187.085938 287.613281 L 182.121094 280.777344 C 182.121094 280.777344 181.773438 281.023438 181.167969 281.453125 Z M 126.699219 77.238281 C 126.78125 76.785156 126.859375 76.527344 126.859375 76.527344 L 124.820312 75.96875 C 124.820312 75.96875 124.730469 76.265625 124.613281 76.816406 C 124.5 77.363281 124.367188 78.160156 124.355469 79.125 C 124.355469 79.183594 124.355469 79.246094 124.355469 79.300781 C 124.355469 79.359375 124.355469 79.414062 124.355469 79.476562 C 124.355469 79.597656 124.347656 79.714844 124.355469 79.835938 C 124.355469 80.082031 124.363281 80.34375 124.375 80.601562 C 124.390625 81.132812 124.4375 81.683594 124.507812 82.257812 C 124.636719 83.414062 124.890625 84.640625 125.28125 85.828125 L 125.425781 86.273438 C 125.480469 86.410156 125.535156 86.5625 125.59375 86.710938 L 125.671875 86.925781 L 125.761719 87.136719 C 125.824219 87.277344 125.878906 87.421875 125.941406 87.558594 C 126.191406 88.121094 126.453125 88.664062 126.730469 89.167969 C 127.28125 90.1875 127.871094 91.085938 128.40625 91.828125 C 128.945312 92.570312 129.425781 93.152344 129.761719 93.566406 C 129.839844 93.667969 129.917969 93.757812 129.984375 93.835938 C 130.054688 93.910156 130.109375 93.980469 130.152344 94.035156 C 130.253906 94.140625 130.300781 94.203125 130.300781 94.203125 L 132.144531 92.554688 C 132.144531 92.554688 132.101562 92.503906 132.015625 92.402344 C 131.96875 92.355469 131.917969 92.296875 131.855469 92.226562 C 131.785156 92.15625 131.71875 92.074219 131.632812 91.972656 C 131.320312 91.605469 130.859375 91.070312 130.359375 90.394531 C 129.855469 89.726562 129.304688 88.921875 128.789062 88.019531 C 128.53125 87.574219 128.292969 87.101562 128.0625 86.609375 C 128.007812 86.488281 127.953125 86.363281 127.902344 86.242188 L 127.816406 86.050781 L 127.742188 85.867188 C 127.695312 85.734375 127.640625 85.613281 127.59375 85.484375 L 127.457031 85.101562 C 127.097656 84.066406 126.851562 83 126.714844 81.972656 C 126.636719 81.46875 126.589844 80.96875 126.558594 80.488281 C 126.546875 80.25 126.539062 80.019531 126.53125 79.789062 C 126.523438 79.675781 126.523438 79.566406 126.523438 79.453125 C 126.523438 79.398438 126.523438 79.347656 126.523438 79.292969 C 126.515625 79.238281 126.515625 79.183594 126.515625 79.140625 C 126.515625 78.351562 126.605469 77.691406 126.699219 77.238281 Z M 149.675781 56.855469 C 149.226562 57.035156 148.574219 57.292969 147.800781 57.617188 C 146.253906 58.265625 144.207031 59.164062 142.191406 60.152344 C 141.1875 60.648438 140.191406 61.164062 139.265625 61.667969 C 138.335938 62.175781 137.488281 62.664062 136.757812 63.101562 C 136.039062 63.546875 135.441406 63.921875 135.027344 64.199219 C 134.820312 64.335938 134.660156 64.441406 134.550781 64.511719 C 134.445312 64.589844 134.382812 64.632812 134.382812 64.632812 L 135.425781 66.128906 C 135.425781 66.128906 135.480469 66.089844 135.585938 66.011719 C 135.695312 65.945312 135.847656 65.835938 136.039062 65.699219 C 136.429688 65.429688 137.003906 65.046875 137.695312 64.613281 C 138.382812 64.175781 139.203125 63.675781 140.101562 63.171875 C 140.988281 62.65625 141.953125 62.136719 142.933594 61.628906 C 144.886719 60.621094 146.894531 59.699219 148.40625 59.027344 C 149.164062 58.695312 149.800781 58.421875 150.246094 58.238281 C 150.6875 58.050781 150.949219 57.945312 150.949219 57.945312 L 150.390625 56.574219 C 150.390625 56.574219 150.128906 56.671875 149.675781 56.855469 Z M 147.292969 104.484375 C 146.980469 104.285156 146.703125 104.109375 146.480469 103.964844 C 146.03125 103.679688 145.777344 103.511719 145.777344 103.511719 L 144.214844 105.863281 C 144.214844 105.863281 144.46875 106.042969 144.917969 106.339844 C 145.148438 106.492188 145.425781 106.675781 145.738281 106.882812 C 146.054688 107.097656 146.414062 107.328125 146.804688 107.582031 C 148.359375 108.601562 150.464844 109.917969 152.589844 111.191406 C 154.710938 112.46875 156.855469 113.703125 158.472656 114.613281 C 159.285156 115.066406 159.953125 115.449219 160.425781 115.710938 C 160.902344 115.972656 161.179688 116.117188 161.179688 116.117188 L 162.695312 113.296875 C 162.695312 113.296875 162.425781 113.152344 161.953125 112.898438 C 161.476562 112.652344 160.804688 112.292969 160 111.855469 C 158.382812 110.984375 156.238281 109.8125 154.113281 108.59375 C 151.992188 107.375 149.898438 106.117188 148.351562 105.144531 C 147.960938 104.90625 147.601562 104.683594 147.292969 104.484375 Z M 167.554688 50.820312 C 165.523438 51.410156 163.5 52.03125 161.984375 52.511719 C 160.472656 52.988281 159.46875 53.324219 159.46875 53.324219 L 159.882812 54.542969 C 159.882812 54.542969 160.871094 54.191406 162.375 53.683594 C 163.867188 53.179688 165.867188 52.527344 167.875 51.898438 C 169.882812 51.265625 171.90625 50.667969 173.421875 50.214844 C 174.941406 49.777344 175.953125 49.476562 175.953125 49.476562 L 175.691406 48.550781 C 175.691406 48.550781 174.671875 48.828125 173.148438 49.242188 C 171.613281 49.664062 169.578125 50.230469 167.554688 50.820312 " clip-rule="nonzero"/></clipPath><linearGradient x1="0.0000000959375" gradientTransform="matrix(0, -254.958794, 254.958794, 0, 187.49411, 297.122599)" y1="0" x2="1.000011" gradientUnits="userSpaceOnUse" y2="0" id="73092b08e8"><stop stop-opacity="1" stop-color="rgb(90.99884%, 90.99884%, 90.59906%)" offset="0"/><stop stop-opacity="1" stop-color="rgb(91.194153%, 91.194153%, 90.59906%)" offset="0.015625"/><stop stop-opacity="1" stop-color="rgb(91.394043%, 91.394043%, 90.698242%)" offset="0.0234375"/><stop stop-opacity="1" stop-color="rgb(91.401672%, 91.398621%, 90.898132%)" offset="0.03125"/><stop stop-opacity="1" stop-color="rgb(91.601562%, 91.398621%, 90.99884%)" offset="0.046875"/><stop stop-opacity="1" stop-color="rgb(91.798401%, 91.592407%, 91.192627%)" offset="0.0625"/><stop stop-opacity="1" stop-color="rgb(91.896057%, 91.889954%, 91.392517%)" offset="0.078125"/><stop stop-opacity="1" stop-color="rgb(92.094421%, 92.094421%, 91.398621%)" offset="0.09375"/><stop stop-opacity="1" stop-color="rgb(92.198181%, 92.198181%, 91.499329%)" offset="0.101562"/><stop stop-opacity="1" stop-color="rgb(92.202759%, 92.199707%, 91.705322%)" offset="0.109375"/><stop stop-opacity="1" stop-color="rgb(92.352295%, 92.199707%, 92.004395%)" offset="0.125"/><stop stop-opacity="1" stop-color="rgb(92.501831%, 92.352295%, 92.201233%)" offset="0.15625"/><stop stop-opacity="1" stop-color="rgb(92.700195%, 92.700195%, 92.350769%)" offset="0.171875"/><stop stop-opacity="1" stop-color="rgb(92.897034%, 92.897034%, 92.497253%)" offset="0.1875"/><stop stop-opacity="1" stop-color="rgb(92.89856%, 92.89856%, 92.596436%)" offset="0.195312"/><stop stop-opacity="1" stop-color="rgb(92.900085%, 92.900085%, 92.796326%)" offset="0.203125"/><stop stop-opacity="1" stop-color="rgb(93.09845%, 93.09845%, 92.89856%)" offset="0.21875"/><stop stop-opacity="1" stop-color="rgb(93.301392%, 93.301392%, 92.903137%)" offset="0.234375"/><stop stop-opacity="1" stop-color="rgb(93.504333%, 93.504333%, 93.104553%)" offset="0.25"/><stop stop-opacity="1" stop-color="rgb(93.800354%, 93.699646%, 93.400574%)" offset="0.265625"/><stop stop-opacity="1" stop-color="rgb(94.00177%, 93.701172%, 93.60199%)" offset="0.28125"/><stop stop-opacity="1" stop-color="rgb(94.297791%, 93.89801%, 93.89801%)" offset="0.3125"/><stop stop-opacity="1" stop-color="rgb(94.496155%, 94.194031%, 94.194031%)" offset="0.320312"/><stop stop-opacity="1" stop-color="rgb(94.500732%, 94.398499%, 94.396973%)" offset="0.328125"/><stop stop-opacity="1" stop-color="rgb(94.697571%, 94.697571%, 94.499207%)" offset="0.34375"/><stop stop-opacity="1" stop-color="rgb(94.895935%, 94.895935%, 94.598389%)" offset="0.359375"/><stop stop-opacity="1" stop-color="rgb(94.898987%, 94.898987%, 94.798279%)" offset="0.375"/><stop stop-opacity="1" stop-color="rgb(95.094299%, 95.094299%, 95.094299%)" offset="0.390625"/><stop stop-opacity="1" stop-color="rgb(95.297241%, 95.297241%, 95.294189%)" offset="0.40625"/><stop stop-opacity="1" stop-color="rgb(95.500183%, 95.500183%, 95.298767%)" offset="0.421875"/><stop stop-opacity="1" stop-color="rgb(95.697021%, 95.697021%, 95.492554%)" offset="0.4375"/><stop stop-opacity="1" stop-color="rgb(95.796204%, 95.796204%, 95.7901%)" offset="0.453125"/><stop stop-opacity="1" stop-color="rgb(95.994568%, 95.994568%, 95.994568%)" offset="0.46875"/><stop stop-opacity="1" stop-color="rgb(96.098328%, 96.098328%, 96.199036%)" offset="0.476562"/><stop stop-opacity="1" stop-color="rgb(96.099854%, 96.104431%, 96.400452%)" offset="0.484375"/><stop stop-opacity="1" stop-color="rgb(96.099854%, 96.304321%, 96.499634%)" offset="0.5"/><stop stop-opacity="1" stop-color="rgb(96.200562%, 96.499634%, 96.499634%)" offset="0.515625"/><stop stop-opacity="1" stop-color="rgb(96.400452%, 96.50116%, 96.50116%)" offset="0.53125"/><stop stop-opacity="1" stop-color="rgb(96.499634%, 96.697998%, 96.697998%)" offset="0.5625"/><stop stop-opacity="1" stop-color="rgb(96.59729%, 96.896362%, 96.896362%)" offset="0.570313"/><stop stop-opacity="1" stop-color="rgb(96.79718%, 96.90094%, 96.90094%)" offset="0.578125"/><stop stop-opacity="1" stop-color="rgb(96.899414%, 97.097778%, 97.097778%)" offset="0.59375"/><stop stop-opacity="1" stop-color="rgb(96.998596%, 97.296143%, 97.296143%)" offset="0.609375"/><stop stop-opacity="1" stop-color="rgb(97.198486%, 97.299194%, 97.299194%)" offset="0.625"/><stop stop-opacity="1" stop-color="rgb(97.30072%, 97.451782%, 97.451782%)" offset="0.65625"/><stop stop-opacity="1" stop-color="rgb(97.450256%, 97.801208%, 97.801208%)" offset="0.671875"/><stop stop-opacity="1" stop-color="rgb(97.598267%, 97.998047%, 97.998047%)" offset="0.6875"/><stop stop-opacity="1" stop-color="rgb(97.697449%, 97.999573%, 97.999573%)" offset="0.703125"/><stop stop-opacity="1" stop-color="rgb(97.895813%, 97.999573%, 97.999573%)" offset="0.71875"/><stop stop-opacity="1" stop-color="rgb(97.998047%, 98.100281%, 98.100281%)" offset="0.726562"/><stop stop-opacity="1" stop-color="rgb(98.00415%, 98.300171%, 98.300171%)" offset="0.734375"/><stop stop-opacity="1" stop-color="rgb(98.204041%, 98.399353%, 98.399353%)" offset="0.75"/><stop stop-opacity="1" stop-color="rgb(98.399353%, 98.594666%, 98.594666%)" offset="0.765625"/><stop stop-opacity="1" stop-color="rgb(98.402405%, 98.794556%, 98.794556%)" offset="0.78125"/><stop stop-opacity="1" stop-color="rgb(98.600769%, 98.799133%, 98.799133%)" offset="0.796875"/><stop stop-opacity="1" stop-color="rgb(98.797607%, 98.99292%, 98.99292%)" offset="0.8125"/><stop stop-opacity="1" stop-color="rgb(98.89679%, 99.19281%, 99.19281%)" offset="0.828125"/><stop stop-opacity="1" stop-color="rgb(99.095154%, 99.198914%, 99.198914%)" offset="0.84375"/><stop stop-opacity="1" stop-color="rgb(99.201965%, 99.203491%, 99.203491%)" offset="0.859375"/><stop stop-opacity="1" stop-color="rgb(99.403381%, 99.403381%, 99.403381%)" offset="0.875"/><stop stop-opacity="1" stop-color="rgb(99.60022%, 99.60022%, 99.60022%)" offset="0.90625"/><stop stop-opacity="1" stop-color="rgb(99.797058%, 99.797058%, 99.797058%)" offset="0.9375"/><stop stop-opacity="1" stop-color="rgb(99.995422%, 99.995422%, 99.995422%)" offset="1"/></linearGradient></defs><g clip-path="url(#2505663a80)"><g clip-path="url(#463558e97b)"><g clip-path="url(#c34dbafda0)"><path fill="url(#73092b08e8)" d="M 0.269531 297.121094 L 374.757812 297.121094 L 374.757812 42.160156 L 0.269531 42.160156 Z M 0.269531 297.121094 " fill-rule="nonzero"/></g></g></g><path fill="#975ab6" d="M 110.5 114.738281 C 139.777344 137.125 171.199219 151.402344 176.273438 166.933594 C 178.457031 173.589844 175.972656 180.839844 171.253906 187.574219 C 176.933594 180.289062 180.1875 172.234375 177.78125 164.894531 C 172.703125 149.363281 141.289062 135.089844 112.003906 112.699219 C 95.710938 100.25 90.125 86.832031 96.714844 76.601562 C 87.910156 87.046875 93.097656 101.4375 110.5 114.738281 " fill-opacity="1" fill-rule="nonzero"/><path fill="#975ab6" d="M 156.242188 71.804688 C 156.242188 73.761719 156.664062 75.691406 157.484375 77.589844 C 157.261719 76.601562 157.148438 75.605469 157.148438 74.601562 C 157.148438 62.632812 185.109375 49.371094 198.464844 44.121094 C 185.109375 49.371094 156.242188 59.84375 156.242188 71.804688 " fill-opacity="1" fill-rule="nonzero"/></svg>