<svg width="35" height="35" viewBox="0 0 35 35" fill="none" xmlns="http://www.w3.org/2000/svg">
<circle cx="17.5" cy="17.5" r="17.5" fill="white"/>
<path d="M25 11H17V18H9V9H7V24H9V21H27V24H29V15C29 13.9391 28.5786 12.9217 27.8284 12.1716C27.0783 11.4214 26.0609 11 25 11ZM13 17C13.7956 17 14.5587 16.6839 15.1213 16.1213C15.6839 15.5587 16 14.7956 16 14C16 13.2044 15.6839 12.4413 15.1213 11.8787C14.5587 11.3161 13.7956 11 13 11C12.2044 11 11.4413 11.3161 10.8787 11.8787C10.3161 12.4413 10 13.2044 10 14C10 14.7956 10.3161 15.5587 10.8787 16.1213C11.4413 16.6839 12.2044 17 13 17V17Z" fill="#AED768"/>
</svg>
