<svg width="35" height="35" viewBox="0 0 35 35" fill="none" xmlns="http://www.w3.org/2000/svg">
<circle cx="17.5" cy="17.5" r="17.5" fill="white"/>
<path d="M9 10H12L14 8H20L22 10H25C25.5304 10 26.0391 10.2107 26.4142 10.5858C26.7893 10.9609 27 11.4696 27 12V24C27 24.5304 26.7893 25.0391 26.4142 25.4142C26.0391 25.7893 25.5304 26 25 26H9C8.46957 26 7.96086 25.7893 7.58579 25.4142C7.21071 25.0391 7 24.5304 7 24V12C7 11.4696 7.21071 10.9609 7.58579 10.5858C7.96086 10.2107 8.46957 10 9 10M17 13C15.6739 13 14.4021 13.5268 13.4645 14.4645C12.5268 15.4021 12 16.6739 12 18C12 19.3261 12.5268 20.5979 13.4645 21.5355C14.4021 22.4732 15.6739 23 17 23C18.3261 23 19.5979 22.4732 20.5355 21.5355C21.4732 20.5979 22 19.3261 22 18C22 16.6739 21.4732 15.4021 20.5355 14.4645C19.5979 13.5268 18.3261 13 17 13M17 15C17.7956 15 18.5587 15.3161 19.1213 15.8787C19.6839 16.4413 20 17.2044 20 18C20 18.7956 19.6839 19.5587 19.1213 20.1213C18.5587 20.6839 17.7956 21 17 21C16.2044 21 15.4413 20.6839 14.8787 20.1213C14.3161 19.5587 14 18.7956 14 18C14 17.2044 14.3161 16.4413 14.8787 15.8787C15.4413 15.3161 16.2044 15 17 15V15Z" fill="#AED768"/>
</svg>
