<svg width="35" height="35" viewBox="0 0 35 35" fill="none" xmlns="http://www.w3.org/2000/svg">
<circle cx="17.5" cy="17.5" r="17.5" fill="white"/>
<path d="M17 8C13 8 9 8.5 9 12V21.5C9 22.4283 9.36875 23.3185 10.0251 23.9749C10.6815 24.6313 11.5717 25 12.5 25L11 26.5V27H13.23L15.23 25H19L21 27H23V26.5L21.5 25C22.4283 25 23.3185 24.6313 23.9749 23.9749C24.6313 23.3185 25 22.4283 25 21.5V12C25 8.5 21.42 8 17 8ZM12.5 23C12.1022 23 11.7206 22.842 11.4393 22.5607C11.158 22.2794 11 21.8978 11 21.5C11 21.1022 11.158 20.7206 11.4393 20.4393C11.7206 20.158 12.1022 20 12.5 20C12.8978 20 13.2794 20.158 13.5607 20.4393C13.842 20.7206 14 21.1022 14 21.5C14 21.8978 13.842 22.2794 13.5607 22.5607C13.2794 22.842 12.8978 23 12.5 23M16 16H11V12H16V16ZM18 16V12H23V16H18ZM21.5 23C21.1022 23 20.7206 22.842 20.4393 22.5607C20.158 22.2794 20 21.8978 20 21.5C20 21.1022 20.158 20.7206 20.4393 20.4393C20.7206 20.158 21.1022 20 21.5 20C21.8978 20 22.2794 20.158 22.5607 20.4393C22.842 20.7206 23 21.1022 23 21.5C23 21.8978 22.842 22.2794 22.5607 22.5607C22.2794 22.842 21.8978 23 21.5 23V23Z" fill="#AED768"/>
</svg>
